SplineFontDB: 3.0
FontName: Latte
FullName: Latte
FamilyName: Latte
Weight: Book
Copyright: Copyright (c) 2016 by Guillaume Litaudon (www.guillaumelitaudon.com) with Reserved Font Name "Latte".\nThis Font Software is licensed under the SIL Open Font License, Version 1.1.\n\nLatte is a variation of Carlito.\nCarlito is Copyright (c) 2010-2013 by tyPoland Lukasz Dziedzic with Reserved Font Name "Carlito". Licensed under the SIL Open Font License, Version 1.1.

StartChar: .notdef
Encoding: 2122 -1 0
Width: 1038
GlyphClass: 2
Flags: MW
LayerCount: 2
Fore
SplineSet
241 1101 m 1,0,1
 265 1122 265 1122 293 1140.5 c 128,-1,2
 321 1159 321 1159 354 1173.5 c 128,-1,3
 387 1188 387 1188 425 1196 c 128,-1,4
 463 1204 463 1204 507 1204 c 0,5,6
 568 1204 568 1204 618 1187 c 128,-1,7
 668 1170 668 1170 704 1139 c 128,-1,8
 740 1108 740 1108 759.5 1063.5 c 128,-1,9
 779 1019 779 1019 779 965 c 0,10,11
 779 912 779 912 764.5 874 c 128,-1,12
 750 836 750 836 728.5 807.5 c 128,-1,13
 707 779 707 779 681 758 c 128,-1,14
 655 737 655 737 631.5 718.5 c 128,-1,15
 608 700 608 700 591.5 682 c 128,-1,16
 575 664 575 664 571 642 c 2,17,-1
 554 542 l 1,18,-1
 435 542 l 1,19,-1
 422 655 l 2,20,21
 418 688 418 688 431 712.5 c 128,-1,22
 444 737 444 737 465.5 757.5 c 128,-1,23
 487 778 487 778 513.5 797 c 128,-1,24
 540 816 540 816 562.5 838.5 c 128,-1,25
 585 861 585 861 600.5 888.5 c 128,-1,26
 616 916 616 916 616 955 c 0,27,28
 616 1003 616 1003 581.5 1031.5 c 128,-1,29
 547 1060 547 1060 493 1060 c 0,30,31
 454 1060 454 1060 427 1051.5 c 128,-1,32
 400 1043 400 1043 380.5 1032.5 c 128,-1,33
 361 1022 361 1022 348 1013.5 c 128,-1,34
 335 1005 335 1005 324 1005 c 0,35,36
 299 1005 299 1005 287 1026 c 2,37,-1
 241 1101 l 1,0,1
382 283 m 0,38,39
 382 305 382 305 390 325 c 128,-1,40
 398 345 398 345 412.5 359.5 c 128,-1,41
 427 374 427 374 446.5 382.5 c 128,-1,42
 466 391 466 391 489 391 c 0,43,44
 511 391 511 391 530.5 382.5 c 128,-1,45
 550 374 550 374 564 359.5 c 128,-1,46
 578 345 578 345 586.5 325 c 128,-1,47
 595 305 595 305 595 283 c 0,48,49
 595 260 595 260 586.5 240.5 c 128,-1,50
 578 221 578 221 564 207 c 128,-1,51
 550 193 550 193 530.5 184.5 c 128,-1,52
 511 176 511 176 489 176 c 0,53,54
 466 176 466 176 446.5 184.5 c 128,-1,55
 427 193 427 193 412.5 207 c 128,-1,56
 398 221 398 221 390 240.5 c 128,-1,57
 382 260 382 260 382 283 c 0,38,39
43 1383 m 1,58,-1
 985 1383 l 1,59,-1
 985 0 l 1,60,-1
 43 0 l 1,61,-1
 43 1383 l 1,58,-1
93 53 m 1,62,-1
 930 53 l 1,63,-1
 930 1330 l 1,64,-1
 93 1330 l 1,65,-1
 93 53 l 1,62,-1
EndSplineSet
Validated: 1
EndChar

StartChar: glyph1
Encoding: 0 -1 1
AltUni2: 000000.ffffffff.0
Width: 0
Flags: MW
LayerCount: 2
Fore
SplineSet
-17 -330 m 0,0,1
 -17 -323 -17 -323 -12 -318 c 128,-1,2
 -7 -313 -7 -313 0 -313 c 0,3,4
 8 -313 8 -313 13 -318 c 128,-1,5
 18 -323 18 -323 18 -330 c 0,6,7
 18 -338 18 -338 13 -343 c 128,-1,8
 8 -348 8 -348 0 -348 c 0,9,10
 -7 -348 -7 -348 -12 -343 c 128,-1,11
 -17 -338 -17 -338 -17 -330 c 0,0,1
EndSplineSet
Validated: 1
EndChar

StartChar: A
Encoding: 35 65 3
Width: 1185
GlyphClass: 2
Flags: MW
LayerCount: 2
Fore
SplineSet
1178 0 m 1,0,-1
 1037 0 l 2,1,2
 1013 0 1013 0 998.5 12 c 128,-1,3
 984 24 984 24 976 42 c 2,4,-1
 864 358 l 1,5,-1
 322 358 l 1,6,-1
 211 43 l 2,7,8
 205 26 205 26 188.5 13 c 128,-1,9
 172 0 172 0 149 0 c 2,10,-1
 8 0 l 1,11,-1
 501 1314 l 1,12,-1
 686 1314 l 1,13,-1
 1178 0 l 1,0,-1
368 488 m 1,14,-1
 818 488 l 1,15,-1
 632 1017 l 2,16,17
 622 1041 622 1041 612 1073 c 128,-1,18
 602 1105 602 1105 593 1142 c 1,19,20
 583 1104 583 1104 573 1072 c 128,-1,21
 563 1040 563 1040 554 1016 c 2,22,-1
 368 488 l 1,14,-1
EndSplineSet
Validated: 1
Substitution2: "sous-table 'sups' Exposant lookups25" A.superior
Position2: "sous-table 'cpsp' Chasses pour composition en capitales lookups0" dx=40 dy=0 dh=80 dv=0
EndChar

StartChar: Aogonek
Encoding: 195 260 4
Width: 1185
GlyphClass: 2
Flags: MW
LayerCount: 2
Fore
SplineSet
1278 -200 m 0,0,1
 1291 -200 1291 -200 1296 -212 c 2,2,-1
 1323 -277 l 1,3,4
 1294 -299 1294 -299 1249.5 -313 c 128,-1,5
 1205 -327 1205 -327 1155 -327 c 0,6,7
 1070 -327 1070 -327 1021.5 -289 c 128,-1,8
 973 -251 973 -251 973 -187 c 0,9,10
 973 -133 973 -133 1009 -84.5 c 128,-1,11
 1045 -36 1045 -36 1102 0 c 1,12,-1
 1037 0 l 2,13,14
 1013 0 1013 0 998.5 12 c 128,-1,15
 984 24 984 24 976 42 c 2,16,-1
 864 358 l 1,17,-1
 322 358 l 1,18,-1
 211 43 l 2,19,20
 205 26 205 26 188.5 13 c 128,-1,21
 172 0 172 0 149 0 c 2,22,-1
 8 0 l 1,23,-1
 501 1314 l 1,24,-1
 686 1314 l 1,25,-1
 1175 8 l 1,26,-1
 1217 3 l 1,27,28
 1198 -8 1198 -8 1178.5 -22.5 c 128,-1,29
 1159 -37 1159 -37 1142.5 -56 c 128,-1,30
 1126 -75 1126 -75 1115.5 -97 c 128,-1,31
 1105 -119 1105 -119 1105 -144 c 0,32,33
 1105 -180 1105 -180 1129 -201 c 128,-1,34
 1153 -222 1153 -222 1191 -222 c 0,35,36
 1213 -222 1213 -222 1227 -218.5 c 128,-1,37
 1241 -215 1241 -215 1251 -211 c 128,-1,38
 1261 -207 1261 -207 1267 -203.5 c 128,-1,39
 1273 -200 1273 -200 1278 -200 c 0,0,1
368 488 m 1,40,-1
 818 488 l 1,41,-1
 632 1017 l 2,42,43
 622 1041 622 1041 612 1073 c 128,-1,44
 602 1105 602 1105 593 1142 c 1,45,46
 583 1104 583 1104 573 1072 c 128,-1,47
 563 1040 563 1040 554 1016 c 2,48,-1
 368 488 l 1,40,-1
EndSplineSet
Validated: 1
Position2: "sous-table 'cpsp' Chasses pour composition en capitales lookups0" dx=40 dy=0 dh=80 dv=0
EndChar

StartChar: AE
Encoding: 133 198 5
Width: 1563
GlyphClass: 2
Flags: MW
LayerCount: 2
Fore
SplineSet
609 1314 m 1,0,-1
 1480 1314 l 1,1,-1
 1480 1166 l 1,2,-1
 865 1166 l 1,3,-1
 914 735 l 1,4,-1
 1369 735 l 1,5,-1
 1369 592 l 1,6,-1
 930 592 l 1,7,-1
 980 148 l 1,8,-1
 1480 148 l 1,9,-1
 1480 0 l 1,10,-1
 826 0 l 1,11,-1
 785 358 l 1,12,-1
 330 358 l 1,13,-1
 187 42 l 2,14,15
 178 23 178 23 160 11.5 c 128,-1,16
 142 0 142 0 117 0 c 2,17,-1
 -21 0 l 1,18,-1
 609 1314 l 1,0,-1
389 488 m 1,19,-1
 770 488 l 1,20,-1
 692 1173 l 1,21,22
 680 1136 680 1136 667.5 1104.5 c 128,-1,23
 655 1073 655 1073 641 1045 c 2,24,-1
 389 488 l 1,19,-1
EndSplineSet
Validated: 1
Position2: "sous-table 'cpsp' Chasses pour composition en capitales lookups0" dx=40 dy=0 dh=80 dv=0
EndChar

StartChar: B
Encoding: 36 66 6
Width: 1114
GlyphClass: 2
Flags: MW
LayerCount: 2
Fore
SplineSet
144 0 m 1,0,-1
 144 1314 l 1,1,-1
 545 1314 l 2,2,3
 661 1314 661 1314 744.5 1290.5 c 128,-1,4
 828 1267 828 1267 881.5 1222.5 c 128,-1,5
 935 1178 935 1178 960 1114.5 c 128,-1,6
 985 1051 985 1051 985 971 c 0,7,8
 985 923 985 923 970.5 878 c 128,-1,9
 956 833 956 833 927 795 c 128,-1,10
 898 757 898 757 854 726 c 128,-1,11
 810 695 810 695 750 676 c 1,12,13
 887 649 887 649 956.5 573.5 c 128,-1,14
 1026 498 1026 498 1026 375 c 0,15,16
 1026 291 1026 291 997 222 c 128,-1,17
 968 153 968 153 912 103.5 c 128,-1,18
 856 54 856 54 774.5 27 c 128,-1,19
 693 0 693 0 588 0 c 2,20,-1
 144 0 l 1,0,-1
326 598 m 1,21,-1
 326 144 l 1,22,-1
 585 144 l 2,23,24
 654 144 654 144 703.5 161.5 c 128,-1,25
 753 179 753 179 784.5 210 c 128,-1,26
 816 241 816 241 830.5 284.5 c 128,-1,27
 845 328 845 328 845 379 c 0,28,29
 845 480 845 480 781.5 539 c 128,-1,30
 718 598 718 598 585 598 c 2,31,-1
 326 598 l 1,21,-1
326 726 m 1,32,-1
 538 726 l 2,33,34
 605 726 605 726 655 742.5 c 128,-1,35
 705 759 705 759 738 788 c 128,-1,36
 771 817 771 817 787.5 858 c 128,-1,37
 804 899 804 899 804 949 c 0,38,39
 804 1064 804 1064 741.5 1117.5 c 128,-1,40
 679 1171 679 1171 545 1171 c 2,41,-1
 326 1171 l 1,42,-1
 326 726 l 1,32,-1
EndSplineSet
Validated: 1
Substitution2: "sous-table 'sups' Exposant lookups25" B.superior
Position2: "sous-table 'cpsp' Chasses pour composition en capitales lookups0" dx=40 dy=0 dh=80 dv=0
EndChar

StartChar: C
Encoding: 37 67 7
Width: 1092
GlyphClass: 2
Flags: MW
LayerCount: 2
Fore
SplineSet
954 274 m 0,0,1
 968 274 968 274 980 262 c 2,2,-1
 1052 184 l 1,3,4
 981 90 981 90 877 38 c 128,-1,5
 773 -14 773 -14 628 -14 c 0,6,7
 500 -14 500 -14 396.5 35 c 128,-1,8
 293 84 293 84 219.5 172.5 c 128,-1,9
 146 261 146 261 106.5 384.5 c 128,-1,10
 67 508 67 508 67 657 c 256,11,12
 67 806 67 806 109 929.5 c 128,-1,13
 151 1053 151 1053 227 1142 c 128,-1,14
 303 1231 303 1231 409 1280 c 128,-1,15
 515 1329 515 1329 643 1329 c 0,16,17
 770 1329 770 1329 866.5 1284 c 128,-1,18
 963 1239 963 1239 1035 1162 c 1,19,-1
 975 1078 l 2,20,21
 969 1069 969 1069 960 1063 c 128,-1,22
 951 1057 951 1057 937 1057 c 0,23,24
 920 1057 920 1057 899.5 1075 c 128,-1,25
 879 1093 879 1093 846 1114.5 c 128,-1,26
 813 1136 813 1136 764 1154 c 128,-1,27
 715 1172 715 1172 642 1172 c 0,28,29
 556 1172 556 1172 484.5 1137 c 128,-1,30
 413 1102 413 1102 361.5 1035.5 c 128,-1,31
 310 969 310 969 281.5 873.5 c 128,-1,32
 253 778 253 778 253 657 c 0,33,34
 253 535 253 535 283 439 c 128,-1,35
 313 343 313 343 365 277 c 128,-1,36
 417 211 417 211 487.5 176 c 128,-1,37
 558 141 558 141 639 141 c 0,38,39
 689 141 689 141 728.5 148 c 128,-1,40
 768 155 768 155 801.5 169.5 c 128,-1,41
 835 184 835 184 864.5 206.5 c 128,-1,42
 894 229 894 229 923 260 c 0,43,44
 939 274 939 274 954 274 c 0,0,1
EndSplineSet
Validated: 1
Substitution2: "sous-table 'sups' Exposant lookups25" C.superior
Position2: "sous-table 'cpsp' Chasses pour composition en capitales lookups0" dx=40 dy=0 dh=80 dv=0
EndChar

StartChar: Ccedilla
Encoding: 134 199 8
Width: 1092
GlyphClass: 2
Flags: MW
LayerCount: 2
Fore
SplineSet
506 -243 m 0,0,1
 512 -243 512 -243 519.5 -246.5 c 128,-1,2
 527 -250 527 -250 538 -254 c 128,-1,3
 549 -258 549 -258 563.5 -261.5 c 128,-1,4
 578 -265 578 -265 599 -265 c 0,5,6
 639 -265 639 -265 659.5 -249 c 128,-1,7
 680 -233 680 -233 680 -208 c 0,8,9
 680 -171 680 -171 639.5 -156.5 c 128,-1,10
 599 -142 599 -142 525 -132 c 1,11,-1
 565 -10 l 1,12,13
 451 2 451 2 358.5 55 c 128,-1,14
 266 108 266 108 201.5 195.5 c 128,-1,15
 137 283 137 283 102 400 c 128,-1,16
 67 517 67 517 67 657 c 0,17,18
 67 806 67 806 109 929.5 c 128,-1,19
 151 1053 151 1053 227 1142 c 128,-1,20
 303 1231 303 1231 409 1280 c 128,-1,21
 515 1329 515 1329 643 1329 c 0,22,23
 770 1329 770 1329 866.5 1284 c 128,-1,24
 963 1239 963 1239 1035 1162 c 1,25,-1
 975 1078 l 2,26,27
 969 1069 969 1069 960 1063 c 128,-1,28
 951 1057 951 1057 937 1057 c 0,29,30
 920 1057 920 1057 899.5 1075 c 128,-1,31
 879 1093 879 1093 846 1114.5 c 128,-1,32
 813 1136 813 1136 764 1154 c 128,-1,33
 715 1172 715 1172 642 1172 c 0,34,35
 556 1172 556 1172 484.5 1137 c 128,-1,36
 413 1102 413 1102 361.5 1035.5 c 128,-1,37
 310 969 310 969 281.5 873.5 c 128,-1,38
 253 778 253 778 253 657 c 0,39,40
 253 535 253 535 283 439 c 128,-1,41
 313 343 313 343 365 277 c 128,-1,42
 417 211 417 211 487.5 176 c 128,-1,43
 558 141 558 141 639 141 c 0,44,45
 689 141 689 141 728.5 148 c 128,-1,46
 768 155 768 155 801.5 169.5 c 128,-1,47
 835 184 835 184 864.5 206.5 c 128,-1,48
 894 229 894 229 923 260 c 0,49,50
 939 274 939 274 954 274 c 0,51,52
 968 274 968 274 980 262 c 2,53,-1
 1052 184 l 1,54,55
 985 96 985 96 891 45 c 128,-1,56
 797 -6 797 -6 666 -13 c 1,57,-1
 649 -72 l 1,58,59
 739 -90 739 -90 778.5 -124 c 128,-1,60
 818 -158 818 -158 818 -210 c 0,61,62
 818 -241 818 -241 802.5 -266 c 128,-1,63
 787 -291 787 -291 759.5 -308 c 128,-1,64
 732 -325 732 -325 693 -334.5 c 128,-1,65
 654 -344 654 -344 608 -344 c 0,66,67
 569 -344 569 -344 533 -336 c 128,-1,68
 497 -328 497 -328 467 -314 c 1,69,-1
 484 -260 l 2,70,71
 490 -243 490 -243 506 -243 c 0,0,1
EndSplineSet
Validated: 1
Position2: "sous-table 'cpsp' Chasses pour composition en capitales lookups0" dx=40 dy=0 dh=80 dv=0
EndChar

StartChar: D
Encoding: 38 68 9
Width: 1260
GlyphClass: 2
Flags: MW
LayerCount: 2
Fore
SplineSet
1192 657 m 0,0,1
 1192 509 1192 509 1148.5 388 c 128,-1,2
 1105 267 1105 267 1026.5 180.5 c 128,-1,3
 948 94 948 94 837.5 47 c 128,-1,4
 727 0 727 0 593 0 c 2,5,-1
 139 0 l 1,6,-1
 139 1314 l 1,7,-1
 593 1314 l 2,8,9
 727 1314 727 1314 837.5 1266.5 c 128,-1,10
 948 1219 948 1219 1026.5 1133 c 128,-1,11
 1105 1047 1105 1047 1148.5 925.5 c 128,-1,12
 1192 804 1192 804 1192 657 c 0,0,1
1005 657 m 256,13,14
 1005 777 1005 777 976 871.5 c 128,-1,15
 947 966 947 966 893 1032 c 128,-1,16
 839 1098 839 1098 763 1132.5 c 128,-1,17
 687 1167 687 1167 593 1167 c 2,18,-1
 322 1167 l 1,19,-1
 322 147 l 1,20,-1
 593 147 l 2,21,22
 687 147 687 147 763 181.5 c 128,-1,23
 839 216 839 216 893 281.5 c 128,-1,24
 947 347 947 347 976 442 c 128,-1,25
 1005 537 1005 537 1005 657 c 256,13,14
EndSplineSet
Validated: 1
Substitution2: "sous-table 'sups' Exposant lookups25" D.superior
Position2: "sous-table 'cpsp' Chasses pour composition en capitales lookups0" dx=40 dy=0 dh=80 dv=0
EndChar

StartChar: E
Encoding: 39 69 11
Width: 1000
GlyphClass: 2
Flags: MW
LayerCount: 2
Fore
SplineSet
913 1314 m 1,0,-1
 913 1166 l 1,1,-1
 328 1166 l 1,2,-1
 328 735 l 1,3,-1
 799 735 l 1,4,-1
 799 592 l 1,5,-1
 328 592 l 1,6,-1
 328 148 l 1,7,-1
 914 148 l 1,8,-1
 913 0 l 1,9,-1
 145 0 l 1,10,-1
 145 1314 l 1,11,-1
 913 1314 l 1,0,-1
EndSplineSet
Validated: 1
Substitution2: "sous-table 'sups' Exposant lookups25" E.superior
Position2: "sous-table 'cpsp' Chasses pour composition en capitales lookups0" dx=40 dy=0 dh=80 dv=0
EndChar

StartChar: Eogonek
Encoding: 215 280 12
Width: 1000
GlyphClass: 2
Flags: MW
LayerCount: 2
Fore
SplineSet
886 -200 m 0,0,1
 899 -200 899 -200 904 -212 c 2,2,-1
 931 -277 l 1,3,4
 902 -299 902 -299 857.5 -313 c 128,-1,5
 813 -327 813 -327 763 -327 c 0,6,7
 678 -327 678 -327 629.5 -289 c 128,-1,8
 581 -251 581 -251 581 -187 c 0,9,10
 581 -133 581 -133 617 -84.5 c 128,-1,11
 653 -36 653 -36 710 0 c 1,12,-1
 145 0 l 1,13,-1
 145 1314 l 1,14,-1
 913 1314 l 1,15,-1
 913 1166 l 1,16,-1
 328 1166 l 1,17,-1
 328 735 l 1,18,-1
 799 735 l 1,19,-1
 799 592 l 1,20,-1
 328 592 l 1,21,-1
 328 148 l 1,22,-1
 914 148 l 1,23,-1
 913 0 l 1,24,-1
 819 0 l 1,25,26
 801 -11 801 -11 782 -25.5 c 128,-1,27
 763 -40 763 -40 747.5 -58 c 128,-1,28
 732 -76 732 -76 722.5 -98 c 128,-1,29
 713 -120 713 -120 713 -144 c 0,30,31
 713 -180 713 -180 737 -201 c 128,-1,32
 761 -222 761 -222 799 -222 c 0,33,34
 821 -222 821 -222 835 -218.5 c 128,-1,35
 849 -215 849 -215 859 -211 c 128,-1,36
 869 -207 869 -207 875 -203.5 c 128,-1,37
 881 -200 881 -200 886 -200 c 0,0,1
EndSplineSet
Validated: 1
Position2: "sous-table 'cpsp' Chasses pour composition en capitales lookups0" dx=40 dy=0 dh=80 dv=0
EndChar

StartChar: F
Encoding: 40 70 13
Width: 941
GlyphClass: 2
Flags: MW
LayerCount: 2
Fore
SplineSet
882 1314 m 1,0,-1
 882 1166 l 1,1,-1
 321 1166 l 1,2,-1
 321 711 l 1,3,-1
 798 711 l 1,4,-1
 798 563 l 1,5,-1
 321 563 l 1,6,-1
 321 0 l 1,7,-1
 138 0 l 1,8,-1
 138 1314 l 1,9,-1
 882 1314 l 1,0,-1
EndSplineSet
Validated: 1
Substitution2: "sous-table 'sups' Exposant lookups25" F.superior
Position2: "sous-table 'cpsp' Chasses pour composition en capitales lookups0" dx=40 dy=0 dh=80 dv=0
EndChar

StartChar: G
Encoding: 41 71 14
Width: 1292
GlyphClass: 2
Flags: MW
LayerCount: 2
Fore
SplineSet
1185 633 m 1,0,-1
 1185 127 l 1,1,2
 1089 56 1089 56 980.5 21 c 128,-1,3
 872 -14 872 -14 745 -14 c 0,4,5
 592 -14 592 -14 468.5 35 c 128,-1,6
 345 84 345 84 258 172.5 c 128,-1,7
 171 261 171 261 124 384.5 c 128,-1,8
 77 508 77 508 77 657 c 0,9,10
 77 807 77 807 122.5 930.5 c 128,-1,11
 168 1054 168 1054 252.5 1142.5 c 128,-1,12
 337 1231 337 1231 457 1280 c 128,-1,13
 577 1329 577 1329 726 1329 c 0,14,15
 802 1329 802 1329 866.5 1317.5 c 128,-1,16
 931 1306 931 1306 986 1284.5 c 128,-1,17
 1041 1263 1041 1263 1087.5 1232 c 128,-1,18
 1134 1201 1134 1201 1174 1163 c 1,19,-1
 1123 1081 l 2,20,21
 1110 1061 1110 1061 1091 1056 c 0,22,23
 1071 1051 1071 1051 1048 1065 c 0,24,25
 1025 1078 1025 1078 997.5 1096.5 c 128,-1,26
 970 1115 970 1115 932 1131.5 c 128,-1,27
 894 1148 894 1148 842 1160 c 128,-1,28
 790 1172 790 1172 719 1172 c 0,29,30
 615 1172 615 1172 530.5 1136 c 128,-1,31
 446 1100 446 1100 386.5 1033 c 128,-1,32
 327 966 327 966 295 870.5 c 128,-1,33
 263 775 263 775 263 657 c 0,34,35
 263 534 263 534 296.5 436.5 c 128,-1,36
 330 339 330 339 392.5 271.5 c 128,-1,37
 455 204 455 204 543 168.5 c 128,-1,38
 631 133 631 133 740 133 c 0,39,40
 824 133 824 133 890 152.5 c 128,-1,41
 956 172 956 172 1020 207 c 1,42,-1
 1020 495 l 1,43,-1
 831 495 l 2,44,45
 813 495 813 495 802 505 c 128,-1,46
 791 515 791 515 791 530 c 2,47,-1
 791 633 l 1,48,-1
 1185 633 l 1,0,-1
EndSplineSet
Validated: 1
Substitution2: "sous-table 'sups' Exposant lookups25" G.superior
Position2: "sous-table 'cpsp' Chasses pour composition en capitales lookups0" dx=40 dy=0 dh=80 dv=0
EndChar

StartChar: H
Encoding: 42 72 15
Width: 1276
GlyphClass: 2
Flags: MW
LayerCount: 2
Fore
SplineSet
1136 0 m 1,0,-1
 953 0 l 1,1,-1
 953 596 l 1,2,-1
 323 596 l 1,3,-1
 323 0 l 1,4,-1
 140 0 l 1,5,-1
 140 1314 l 1,6,-1
 323 1314 l 1,7,-1
 323 729 l 1,8,-1
 953 729 l 1,9,-1
 953 1314 l 1,10,-1
 1136 1314 l 1,11,-1
 1136 0 l 1,0,-1
EndSplineSet
Validated: 1
Substitution2: "sous-table 'sups' Exposant lookups25" H.superior
Position2: "sous-table 'cpsp' Chasses pour composition en capitales lookups0" dx=40 dy=0 dh=80 dv=0
EndChar

StartChar: Hbar
Encoding: 229 294 16
Width: 1344
GlyphClass: 2
Flags: MW
LayerCount: 2
Fore
SplineSet
1170 1060 m 1,0,-1
 1310 1060 l 1,1,-1
 1310 951 l 1,2,-1
 1170 951 l 1,3,-1
 1170 0 l 1,4,-1
 987 0 l 1,5,-1
 987 596 l 1,6,-1
 357 596 l 1,7,-1
 357 0 l 1,8,-1
 174 0 l 1,9,-1
 174 951 l 1,10,-1
 34 951 l 1,11,-1
 34 1060 l 1,12,-1
 174 1060 l 1,13,-1
 174 1314 l 1,14,-1
 357 1314 l 1,15,-1
 357 1060 l 1,16,-1
 987 1060 l 1,17,-1
 987 1314 l 1,18,-1
 1170 1314 l 1,19,-1
 1170 1060 l 1,0,-1
357 729 m 1,20,-1
 987 729 l 1,21,-1
 987 951 l 1,22,-1
 357 951 l 1,23,-1
 357 729 l 1,20,-1
EndSplineSet
Validated: 1
Position2: "sous-table 'cpsp' Chasses pour composition en capitales lookups0" dx=40 dy=0 dh=80 dv=0
EndChar

StartChar: I
Encoding: 43 73 17
Width: 516
GlyphClass: 2
Flags: MW
LayerCount: 2
Fore
SplineSet
349 0 m 1,0,-1
 167 0 l 1,1,-1
 167 1314 l 1,2,-1
 349 1314 l 1,3,-1
 349 0 l 1,0,-1
EndSplineSet
Validated: 1
Substitution2: "sous-table 'sups' Exposant lookups25" I.superior
Position2: "sous-table 'cpsp' Chasses pour composition en capitales lookups0" dx=40 dy=0 dh=80 dv=0
EndChar

StartChar: Iogonek
Encoding: 237 302 18
Width: 516
GlyphClass: 2
Flags: MW
LayerCount: 2
Fore
SplineSet
383 -200 m 0,0,1
 396 -200 396 -200 401 -212 c 2,2,-1
 428 -277 l 1,3,4
 399 -299 399 -299 354.5 -313 c 128,-1,5
 310 -327 310 -327 260 -327 c 0,6,7
 175 -327 175 -327 126.5 -289 c 128,-1,8
 78 -251 78 -251 78 -187 c 0,9,10
 78 -133 78 -133 114 -84.5 c 128,-1,11
 150 -36 150 -36 207 0 c 1,12,-1
 167 0 l 1,13,-1
 167 1314 l 1,14,-1
 349 1314 l 1,15,-1
 349 0 l 1,16,-1
 316 0 l 1,17,18
 298 -11 298 -11 279 -25.5 c 128,-1,19
 260 -40 260 -40 244.5 -58 c 128,-1,20
 229 -76 229 -76 219.5 -98 c 128,-1,21
 210 -120 210 -120 210 -144 c 0,22,23
 210 -180 210 -180 234 -201 c 128,-1,24
 258 -222 258 -222 296 -222 c 0,25,26
 318 -222 318 -222 332 -218.5 c 128,-1,27
 346 -215 346 -215 356 -211 c 128,-1,28
 366 -207 366 -207 372 -203.5 c 128,-1,29
 378 -200 378 -200 383 -200 c 0,0,1
EndSplineSet
Validated: 1
Position2: "sous-table 'cpsp' Chasses pour composition en capitales lookups0" dx=40 dy=0 dh=80 dv=0
EndChar

StartChar: J
Encoding: 44 74 19
Width: 653
GlyphClass: 2
Flags: MW
LayerCount: 2
Fore
SplineSet
538 455 m 2,0,1
 538 345 538 345 516 258 c 128,-1,2
 494 171 494 171 450 110.5 c 128,-1,3
 406 50 406 50 341 18 c 128,-1,4
 276 -14 276 -14 191 -14 c 0,5,6
 152 -14 152 -14 114 -8.5 c 128,-1,7
 76 -3 76 -3 34 10 c 1,8,9
 36 38 36 38 38.5 65 c 128,-1,10
 41 92 41 92 44 118 c 0,11,12
 46 133 46 133 55.5 143 c 128,-1,13
 65 153 65 153 84 153 c 0,14,15
 97 153 97 153 117.5 145.5 c 128,-1,16
 138 138 138 138 172 138 c 0,17,18
 262 138 262 138 309 212 c 128,-1,19
 356 286 356 286 356 451 c 2,20,-1
 356 1314 l 1,21,-1
 538 1314 l 1,22,-1
 538 455 l 2,0,1
EndSplineSet
Validated: 1
Substitution2: "sous-table 'sups' Exposant lookups25" J.superior
Position2: "sous-table 'cpsp' Chasses pour composition en capitales lookups0" dx=40 dy=0 dh=80 dv=0
EndChar

StartChar: K
Encoding: 45 75 20
Width: 1064
GlyphClass: 2
Flags: MW
LayerCount: 2
Fore
SplineSet
306 740 m 1,0,-1
 358 740 l 2,1,2
 387 740 387 740 406 749 c 128,-1,3
 425 758 425 758 439 778 c 2,4,-1
 778 1272 l 2,5,6
 796 1295 796 1295 815.5 1304.5 c 128,-1,7
 835 1314 835 1314 864 1314 c 2,8,-1
 1020 1314 l 1,9,-1
 620 750 l 2,10,11
 588 707 588 707 553 689 c 1,12,13
 599 673 599 673 636 624 c 2,14,-1
 1049 0 l 1,15,-1
 889 0 l 2,16,17
 856 0 856 0 840.5 10.5 c 128,-1,18
 825 21 825 21 811 38 c 2,19,-1
 463 558 l 2,20,21
 447 581 447 581 428.5 590.5 c 128,-1,22
 410 600 410 600 373 600 c 2,23,-1
 306 600 l 1,24,-1
 306 0 l 1,25,-1
 124 0 l 1,26,-1
 124 1314 l 1,27,-1
 306 1314 l 1,28,-1
 306 740 l 1,0,-1
EndSplineSet
Validated: 1
Substitution2: "sous-table 'sups' Exposant lookups25" K.superior
Position2: "sous-table 'cpsp' Chasses pour composition en capitales lookups0" dx=40 dy=0 dh=80 dv=0
EndChar

StartChar: L
Encoding: 46 76 21
Width: 861
GlyphClass: 2
Flags: MW
LayerCount: 2
Fore
SplineSet
320 153 m 1,0,-1
 827 153 l 1,1,-1
 827 0 l 1,2,-1
 138 0 l 1,3,-1
 138 1314 l 1,4,-1
 320 1314 l 1,5,-1
 320 153 l 1,0,-1
EndSplineSet
Validated: 1
Substitution2: "sous-table 'sups' Exposant lookups25" L.superior
Position2: "sous-table 'cpsp' Chasses pour composition en capitales lookups0" dx=40 dy=0 dh=80 dv=0
EndChar

StartChar: Lslash
Encoding: 256 321 22
Width: 880
GlyphClass: 2
Flags: MW
LayerCount: 2
Fore
SplineSet
375 753 m 1,0,-1
 663 920 l 1,1,-1
 663 798 l 2,2,3
 663 769 663 769 639 756 c 2,4,-1
 375 600 l 1,5,-1
 375 153 l 1,6,-1
 882 153 l 1,7,-1
 882 0 l 1,8,-1
 193 0 l 1,9,-1
 193 507 l 1,10,-1
 33 419 l 1,11,-1
 33 545 l 2,12,13
 33 569 33 569 55 581 c 2,14,-1
 193 660 l 1,15,-1
 193 1314 l 1,16,-1
 375 1314 l 1,17,-1
 375 753 l 1,0,-1
EndSplineSet
Validated: 1
Position2: "sous-table 'cpsp' Chasses pour composition en capitales lookups0" dx=40 dy=0 dh=80 dv=0
EndChar

StartChar: M
Encoding: 47 77 24
Width: 1751
GlyphClass: 2
Flags: MW
LayerCount: 2
Fore
SplineSet
835 479 m 2,0,1
 848 457 848 457 858 432 c 0,2,3
 877 387 877 387 879 383 c 1,4,5
 890 409 890 409 900 433 c 0,6,7
 910 458 910 458 922 479 c 2,8,-1
 1386 1284 l 2,9,10
 1398 1305 1398 1305 1412 1309.5 c 128,-1,11
 1426 1314 1426 1314 1450 1314 c 2,12,-1
 1584 1314 l 1,13,-1
 1584 0 l 1,14,-1
 1423 0 l 1,15,-1
 1423 959 l 2,16,17
 1423 979 1423 979 1424.5 1003.5 c 128,-1,18
 1426 1028 1426 1028 1428 1053 c 1,19,-1
 959 229 l 2,20,21
 936 188 936 188 893 188 c 2,22,-1
 867 188 l 2,23,24
 825 188 825 188 801 229 c 2,25,-1
 321 1052 l 1,26,27
 327 1002 327 1002 327 959 c 2,28,-1
 327 0 l 1,29,-1
 167 0 l 1,30,-1
 167 1314 l 1,31,-1
 301 1314 l 2,32,33
 325 1314 325 1314 338 1310 c 0,34,35
 352 1305 352 1305 365 1283 c 2,36,-1
 835 479 l 2,0,1
EndSplineSet
Validated: 1
Substitution2: "sous-table 'sups' Exposant lookups25" M.superior
Position2: "sous-table 'cpsp' Chasses pour composition en capitales lookups0" dx=40 dy=0 dh=80 dv=0
EndChar

StartChar: N
Encoding: 48 78 25
Width: 1322
GlyphClass: 2
Flags: MW
LayerCount: 2
Fore
SplineSet
243 1314 m 2,0,1
 268 1314 268 1314 278 1309 c 0,2,3
 291 1303 291 1303 305 1283 c 2,4,-1
 1019 300 l 1,5,6
 1017 324 1017 324 1015.5 347.5 c 128,-1,7
 1014 371 1014 371 1014 391 c 2,8,-1
 1014 1314 l 1,9,-1
 1174 1314 l 1,10,-1
 1174 0 l 1,11,-1
 1082 0 l 2,12,13
 1061 0 1061 0 1046 7 c 0,14,15
 1029 16 1029 16 1018 32 c 2,16,-1
 304 1012 l 1,17,18
 306 989 306 989 307 968 c 128,-1,19
 308 947 308 947 308 928 c 2,20,-1
 308 0 l 1,21,-1
 148 0 l 1,22,-1
 148 1314 l 1,23,-1
 243 1314 l 2,0,1
EndSplineSet
Validated: 1
Substitution2: "sous-table 'sups' Exposant lookups25" N.superior
Position2: "sous-table 'cpsp' Chasses pour composition en capitales lookups0" dx=40 dy=0 dh=80 dv=0
EndChar

StartChar: Eng
Encoding: 265 330 26
Width: 1287
GlyphClass: 2
Flags: MW
LayerCount: 2
Fore
SplineSet
1145 8 m 2,0,1
 1145 -67 1145 -67 1129 -129 c 128,-1,2
 1113 -191 1113 -191 1078 -235.5 c 128,-1,3
 1043 -280 1043 -280 988.5 -304 c 128,-1,4
 934 -328 934 -328 858 -328 c 0,5,6
 816 -328 816 -328 782 -320 c 128,-1,7
 748 -312 748 -312 710 -295 c 1,8,-1
 728 -222 l 2,9,10
 733 -201 733 -201 743.5 -194.5 c 128,-1,11
 754 -188 754 -188 766 -188 c 0,12,13
 777 -188 777 -188 794.5 -195 c 128,-1,14
 812 -202 812 -202 844 -202 c 0,15,16
 913 -202 913 -202 949 -154.5 c 128,-1,17
 985 -107 985 -107 985 -10 c 2,18,-1
 985 37 l 1,19,-1
 298 1012 l 1,20,21
 300 989 300 989 301 968 c 128,-1,22
 302 947 302 947 302 928 c 2,23,-1
 302 0 l 1,24,-1
 142 0 l 1,25,-1
 142 1314 l 1,26,-1
 237 1314 l 2,27,28
 260 1314 260 1314 272 1308.5 c 128,-1,29
 284 1303 284 1303 299 1283 c 2,30,-1
 990 302 l 1,31,32
 988 325 988 325 986.5 348 c 128,-1,33
 985 371 985 371 985 391 c 2,34,-1
 985 1314 l 1,35,-1
 1145 1314 l 1,36,-1
 1145 8 l 2,0,1
EndSplineSet
Validated: 1
Substitution2: "sous-table 'ss03' Style 3 lookups33" Eng.ss03
Substitution2: "sous-table 'ss02' Style 2 lookups31" Eng.ss02
Substitution2: "sous-table 'ss01' Style 1 lookups29" Eng.ss01
Position2: "sous-table 'cpsp' Chasses pour composition en capitales lookups0" dx=40 dy=0 dh=80 dv=0
EndChar

StartChar: O
Encoding: 49 79 27
Width: 1356
GlyphClass: 2
Flags: MW
LayerCount: 2
Fore
SplineSet
1284 657 m 0,0,1
 1284 509 1284 509 1240.5 386 c 128,-1,2
 1197 263 1197 263 1117.5 174 c 128,-1,3
 1038 85 1038 85 926.5 35.5 c 128,-1,4
 815 -14 815 -14 679 -14 c 0,5,6
 544 -14 544 -14 432 35.5 c 128,-1,7
 320 85 320 85 240 174 c 128,-1,8
 160 263 160 263 116 386 c 128,-1,9
 72 509 72 509 72 657 c 0,10,11
 72 804 72 804 116 927.5 c 128,-1,12
 160 1051 160 1051 240 1140.5 c 128,-1,13
 320 1230 320 1230 432 1279.5 c 128,-1,14
 544 1329 544 1329 679 1329 c 0,15,16
 815 1329 815 1329 926.5 1279.5 c 128,-1,17
 1038 1230 1038 1230 1117.5 1140.5 c 128,-1,18
 1197 1051 1197 1051 1240.5 927.5 c 128,-1,19
 1284 804 1284 804 1284 657 c 0,0,1
1098 657 m 256,20,21
 1098 777 1098 777 1068.5 872.5 c 128,-1,22
 1039 968 1039 968 984.5 1034.5 c 128,-1,23
 930 1101 930 1101 852.5 1136.5 c 128,-1,24
 775 1172 775 1172 679 1172 c 256,25,26
 583 1172 583 1172 505.5 1136.5 c 128,-1,27
 428 1101 428 1101 373 1034.5 c 128,-1,28
 318 968 318 968 288.5 872.5 c 128,-1,29
 259 777 259 777 259 657 c 256,30,31
 259 537 259 537 288.5 441.5 c 128,-1,32
 318 346 318 346 373 279.5 c 128,-1,33
 428 213 428 213 505.5 178 c 128,-1,34
 583 143 583 143 679 143 c 256,35,36
 775 143 775 143 852.5 178 c 128,-1,37
 930 213 930 213 984.5 279.5 c 128,-1,38
 1039 346 1039 346 1068.5 441.5 c 128,-1,39
 1098 537 1098 537 1098 657 c 256,20,21
EndSplineSet
Validated: 1
Substitution2: "sous-table 'sups' Exposant lookups25" O.superior
Position2: "sous-table 'cpsp' Chasses pour composition en capitales lookups0" dx=40 dy=0 dh=80 dv=0
EndChar

StartChar: Oslash
Encoding: 151 216 28
Width: 1359
GlyphClass: 2
Flags: MW
LayerCount: 2
Fore
SplineSet
1287 657 m 0,0,1
 1287 509 1287 509 1243 386 c 128,-1,2
 1199 263 1199 263 1119.5 174 c 128,-1,3
 1040 85 1040 85 928 35.5 c 128,-1,4
 816 -14 816 -14 680 -14 c 0,5,6
 590 -14 590 -14 512 7.5 c 128,-1,7
 434 29 434 29 367 70 c 1,8,-1
 286 -49 l 2,9,10
 266 -77 266 -77 238 -88.5 c 128,-1,11
 210 -100 210 -100 183 -100 c 2,12,-1
 111 -100 l 1,13,-1
 274 140 l 1,14,15
 178 230 178 230 125.5 361.5 c 128,-1,16
 73 493 73 493 73 657 c 0,17,18
 73 804 73 804 117 927.5 c 128,-1,19
 161 1051 161 1051 241 1140.5 c 128,-1,20
 321 1230 321 1230 433 1279.5 c 128,-1,21
 545 1329 545 1329 680 1329 c 0,22,23
 777 1329 777 1329 861.5 1303.5 c 128,-1,24
 946 1278 946 1278 1016 1230 c 1,25,-1
 1082 1327 l 2,26,27
 1091 1340 1091 1340 1098.5 1349 c 128,-1,28
 1106 1358 1106 1358 1114 1363.5 c 128,-1,29
 1122 1369 1122 1369 1133 1371.5 c 128,-1,30
 1144 1374 1144 1374 1159 1374 c 2,31,-1
 1253 1374 l 1,32,-1
 1105 1156 l 1,33,34
 1192 1065 1192 1065 1239.5 938.5 c 128,-1,35
 1287 812 1287 812 1287 657 c 0,0,1
259 657 m 256,36,37
 259 537 259 537 288 443 c 128,-1,38
 317 349 317 349 371 282 c 1,39,-1
 924 1095 l 1,40,41
 874 1133 874 1133 813 1152.5 c 128,-1,42
 752 1172 752 1172 680 1172 c 0,43,44
 584 1172 584 1172 506 1136.5 c 128,-1,45
 428 1101 428 1101 373.5 1034.5 c 128,-1,46
 319 968 319 968 289 872.5 c 128,-1,47
 259 777 259 777 259 657 c 256,36,37
1100 657 m 0,48,49
 1100 766 1100 766 1075.5 854.5 c 128,-1,50
 1051 943 1051 943 1005 1009 c 1,51,-1
 458 204 l 1,52,53
 553 143 553 143 680 143 c 0,54,55
 776 143 776 143 854 178 c 128,-1,56
 932 213 932 213 986.5 279.5 c 128,-1,57
 1041 346 1041 346 1070.5 441.5 c 128,-1,58
 1100 537 1100 537 1100 657 c 0,48,49
EndSplineSet
Validated: 1
Position2: "sous-table 'cpsp' Chasses pour composition en capitales lookups0" dx=40 dy=0 dh=80 dv=0
EndChar

StartChar: OE
Encoding: 273 338 29
Width: 1775
GlyphClass: 2
Flags: MW
LayerCount: 2
Fore
SplineSet
1695 1314 m 1,0,-1
 1695 1166 l 1,1,-1
 1150 1166 l 1,2,-1
 1150 735 l 1,3,-1
 1588 735 l 1,4,-1
 1588 592 l 1,5,-1
 1150 592 l 1,6,-1
 1150 148 l 1,7,-1
 1696 148 l 1,8,-1
 1695 0 l 1,9,-1
 989 0 l 1,10,-1
 989 197 l 1,11,12
 920 97 920 97 819.5 42 c 128,-1,13
 719 -13 719 -13 593 -13 c 0,14,15
 475 -13 475 -13 378 36.5 c 128,-1,16
 281 86 281 86 212 174.5 c 128,-1,17
 143 263 143 263 105 386 c 128,-1,18
 67 509 67 509 67 657 c 0,19,20
 67 804 67 804 105 927.5 c 128,-1,21
 143 1051 143 1051 212 1140.5 c 128,-1,22
 281 1230 281 1230 378 1279.5 c 128,-1,23
 475 1329 475 1329 593 1329 c 0,24,25
 719 1329 719 1329 819.5 1273 c 128,-1,26
 920 1217 920 1217 989 1117 c 1,27,-1
 989 1314 l 1,28,-1
 1695 1314 l 1,0,-1
967 657 m 256,29,30
 967 777 967 777 942 873 c 128,-1,31
 917 969 917 969 871 1036.5 c 128,-1,32
 825 1104 825 1104 759 1140 c 128,-1,33
 693 1176 693 1176 611 1176 c 256,34,35
 529 1176 529 1176 462.5 1140 c 128,-1,36
 396 1104 396 1104 349.5 1036.5 c 128,-1,37
 303 969 303 969 278 873 c 128,-1,38
 253 777 253 777 253 657 c 256,39,40
 253 537 253 537 278 441 c 128,-1,41
 303 345 303 345 349.5 278 c 128,-1,42
 396 211 396 211 462.5 175 c 128,-1,43
 529 139 529 139 611 139 c 256,44,45
 693 139 693 139 759 175 c 128,-1,46
 825 211 825 211 871 278 c 128,-1,47
 917 345 917 345 942 441 c 128,-1,48
 967 537 967 537 967 657 c 256,29,30
EndSplineSet
Validated: 1
Position2: "sous-table 'cpsp' Chasses pour composition en capitales lookups0" dx=40 dy=0 dh=80 dv=0
EndChar

StartChar: P
Encoding: 50 80 30
Width: 1058
GlyphClass: 2
Flags: MW
LayerCount: 2
Fore
SplineSet
329 490 m 1,0,-1
 329 0 l 1,1,-1
 147 0 l 1,2,-1
 147 1314 l 1,3,-1
 524 1314 l 2,4,5
 644 1314 644 1314 732.5 1285 c 128,-1,6
 821 1256 821 1256 879 1203 c 128,-1,7
 937 1150 937 1150 965.5 1074.5 c 128,-1,8
 994 999 994 999 994 906 c 0,9,10
 994 814 994 814 963.5 738 c 128,-1,11
 933 662 933 662 873.5 606.5 c 128,-1,12
 814 551 814 551 726.5 520.5 c 128,-1,13
 639 490 639 490 524 490 c 2,14,-1
 329 490 l 1,0,-1
329 634 m 1,15,-1
 524 634 l 2,16,17
 594 634 594 634 648 654 c 128,-1,18
 702 674 702 674 738.5 710 c 128,-1,19
 775 746 775 746 793.5 796 c 128,-1,20
 812 846 812 846 812 906 c 0,21,22
 812 1032 812 1032 741 1101.5 c 128,-1,23
 670 1171 670 1171 524 1171 c 2,24,-1
 329 1171 l 1,25,-1
 329 634 l 1,15,-1
EndSplineSet
Validated: 1
Substitution2: "sous-table 'sups' Exposant lookups25" P.superior
Position2: "sous-table 'cpsp' Chasses pour composition en capitales lookups0" dx=40 dy=0 dh=80 dv=0
EndChar

StartChar: Thorn
Encoding: 157 222 31
Width: 1058
GlyphClass: 2
Flags: MW
LayerCount: 2
Fore
SplineSet
330 249 m 1,0,-1
 330 0 l 1,1,-1
 148 0 l 1,2,-1
 148 1314 l 1,3,-1
 330 1314 l 1,4,-1
 330 1073 l 1,5,-1
 526 1073 l 2,6,7
 646 1073 646 1073 735 1044 c 128,-1,8
 824 1015 824 1015 882 962 c 128,-1,9
 940 909 940 909 968.5 833.5 c 128,-1,10
 997 758 997 758 997 665 c 0,11,12
 997 573 997 573 966.5 497 c 128,-1,13
 936 421 936 421 876.5 365.5 c 128,-1,14
 817 310 817 310 729 279.5 c 128,-1,15
 641 249 641 249 526 249 c 2,16,-1
 330 249 l 1,0,-1
330 393 m 1,17,-1
 526 393 l 2,18,19
 597 393 597 393 651 413 c 128,-1,20
 705 433 705 433 741.5 469 c 128,-1,21
 778 505 778 505 796.5 555 c 128,-1,22
 815 605 815 605 815 665 c 0,23,24
 815 790 815 790 743.5 860 c 128,-1,25
 672 930 672 930 526 930 c 2,26,-1
 330 930 l 1,27,-1
 330 393 l 1,17,-1
EndSplineSet
Validated: 1
Position2: "sous-table 'cpsp' Chasses pour composition en capitales lookups0" dx=40 dy=0 dh=80 dv=0
EndChar

StartChar: Q
Encoding: 51 81 32
Width: 1378
GlyphClass: 2
Flags: MW
LayerCount: 2
Fore
SplineSet
1295 657 m 0,0,1
 1295 483 1295 483 1236 345.5 c 128,-1,2
 1177 208 1177 208 1071 118 c 1,3,-1
 1411 -271 l 1,4,-1
 1260 -271 l 2,5,6
 1227 -271 1227 -271 1201 -261 c 128,-1,7
 1175 -251 1175 -251 1153 -228 c 2,8,-1
 929 32 l 1,9,10
 820 -14 820 -14 690 -14 c 0,11,12
 555 -14 555 -14 443 35.5 c 128,-1,13
 331 85 331 85 251 174 c 128,-1,14
 171 263 171 263 127 386 c 128,-1,15
 83 509 83 509 83 657 c 0,16,17
 83 804 83 804 127 927.5 c 128,-1,18
 171 1051 171 1051 251 1140.5 c 128,-1,19
 331 1230 331 1230 443 1279.5 c 128,-1,20
 555 1329 555 1329 690 1329 c 0,21,22
 826 1329 826 1329 937.5 1279.5 c 128,-1,23
 1049 1230 1049 1230 1128.5 1140.5 c 128,-1,24
 1208 1051 1208 1051 1251.5 927.5 c 128,-1,25
 1295 804 1295 804 1295 657 c 0,0,1
1109 657 m 256,26,27
 1109 777 1109 777 1079.5 872.5 c 128,-1,28
 1050 968 1050 968 995.5 1034.5 c 128,-1,29
 941 1101 941 1101 863.5 1136.5 c 128,-1,30
 786 1172 786 1172 690 1172 c 256,31,32
 594 1172 594 1172 516.5 1136.5 c 128,-1,33
 439 1101 439 1101 384 1034.5 c 128,-1,34
 329 968 329 968 299.5 872.5 c 128,-1,35
 270 777 270 777 270 657 c 256,36,37
 270 537 270 537 299.5 441.5 c 128,-1,38
 329 346 329 346 384 279.5 c 128,-1,39
 439 213 439 213 516.5 178 c 128,-1,40
 594 143 594 143 690 143 c 256,41,42
 786 143 786 143 863.5 178 c 128,-1,43
 941 213 941 213 995.5 279.5 c 128,-1,44
 1050 346 1050 346 1079.5 441.5 c 128,-1,45
 1109 537 1109 537 1109 657 c 256,26,27
EndSplineSet
Validated: 1
Substitution2: "sous-table 'sups' Exposant lookups25" Q.superior
Position2: "sous-table 'cpsp' Chasses pour composition en capitales lookups0" dx=40 dy=0 dh=80 dv=0
EndChar

StartChar: R
Encoding: 52 82 33
Width: 1112
GlyphClass: 2
Flags: MW
LayerCount: 2
Fore
SplineSet
329 546 m 1,0,-1
 329 0 l 1,1,-1
 147 0 l 1,2,-1
 147 1314 l 1,3,-1
 507 1314 l 2,4,5
 627 1314 627 1314 714.5 1288.5 c 128,-1,6
 802 1263 802 1263 858.5 1215.5 c 128,-1,7
 915 1168 915 1168 942 1100.5 c 128,-1,8
 969 1033 969 1033 969 949 c 0,9,10
 969 880 969 880 948.5 820 c 128,-1,11
 928 760 928 760 889.5 712 c 128,-1,12
 851 664 851 664 795 629.5 c 128,-1,13
 739 595 739 595 668 577 c 1,14,15
 685 566 685 566 700 552.5 c 128,-1,16
 715 539 715 539 729 520 c 2,17,-1
 1082 0 l 1,18,-1
 920 0 l 2,19,20
 873 0 873 0 847 37 c 2,21,-1
 536 505 l 2,22,23
 521 527 521 527 503.5 536.5 c 128,-1,24
 486 546 486 546 451 546 c 2,25,-1
 329 546 l 1,0,-1
329 679 m 1,26,-1
 500 679 l 2,27,28
 572 679 572 679 626.5 697.5 c 128,-1,29
 681 716 681 716 718 750 c 128,-1,30
 755 784 755 784 773.5 831.5 c 128,-1,31
 792 879 792 879 792 936 c 0,32,33
 792 1171 792 1171 507 1171 c 2,34,-1
 329 1171 l 1,35,-1
 329 679 l 1,26,-1
EndSplineSet
Validated: 1
Substitution2: "sous-table 'sups' Exposant lookups25" R.superior
Position2: "sous-table 'cpsp' Chasses pour composition en capitales lookups0" dx=40 dy=0 dh=80 dv=0
EndChar

StartChar: S
Encoding: 53 83 34
Width: 941
GlyphClass: 2
Flags: MW
LayerCount: 2
Fore
SplineSet
797 1107 m 2,0,1
 782 1079 782 1079 756 1079 c 0,2,3
 741 1079 741 1079 720.5 1094.5 c 128,-1,4
 700 1110 700 1110 670.5 1128.5 c 128,-1,5
 641 1147 641 1147 599.5 1162.5 c 128,-1,6
 558 1178 558 1178 500 1178 c 0,7,8
 445 1178 445 1178 403.5 1162.5 c 128,-1,9
 362 1147 362 1147 334.5 1119.5 c 128,-1,10
 307 1092 307 1092 293 1055.5 c 128,-1,11
 279 1019 279 1019 279 977 c 0,12,13
 279 922 279 922 304.5 886 c 128,-1,14
 330 850 330 850 371.5 824.5 c 128,-1,15
 413 799 413 799 466 780 c 128,-1,16
 519 761 519 761 574 741 c 128,-1,17
 629 721 629 721 682 695.5 c 128,-1,18
 735 670 735 670 776.5 631.5 c 128,-1,19
 818 593 818 593 843.5 537 c 128,-1,20
 869 481 869 481 869 400 c 0,21,22
 869 313 869 313 841 237.5 c 128,-1,23
 813 162 813 162 759.5 106 c 128,-1,24
 706 50 706 50 628 18 c 128,-1,25
 550 -14 550 -14 450 -14 c 0,26,27
 329 -14 329 -14 227.5 32.5 c 128,-1,28
 126 79 126 79 55 158 c 1,29,-1
 108 244 l 2,30,31
 115 255 115 255 125.5 261.5 c 128,-1,32
 136 268 136 268 150 268 c 0,33,34
 169 268 169 268 192.5 247.5 c 128,-1,35
 216 227 216 227 251 202.5 c 128,-1,36
 286 178 286 178 335.5 157.5 c 128,-1,37
 385 137 385 137 454 137 c 0,38,39
 512 137 512 137 557 154 c 128,-1,40
 602 171 602 171 633.5 202 c 128,-1,41
 665 233 665 233 681.5 276.5 c 128,-1,42
 698 320 698 320 698 373 c 0,43,44
 698 432 698 432 672.5 470 c 128,-1,45
 647 508 647 508 605.5 533.5 c 128,-1,46
 564 559 564 559 511 576.5 c 128,-1,47
 458 594 458 594 403 613 c 128,-1,48
 348 632 348 632 295 656.5 c 128,-1,49
 242 681 242 681 200.5 721 c 128,-1,50
 159 761 159 761 133.5 820 c 128,-1,51
 108 879 108 879 108 967 c 0,52,53
 108 1036 108 1036 134 1101.5 c 128,-1,54
 160 1167 160 1167 209.5 1217.5 c 128,-1,55
 259 1268 259 1268 331.5 1298.5 c 128,-1,56
 404 1329 404 1329 498 1329 c 0,57,58
 603 1329 603 1329 690.5 1294 c 128,-1,59
 778 1259 778 1259 842 1192 c 1,60,-1
 797 1107 l 2,0,1
EndSplineSet
Validated: 1
Substitution2: "sous-table 'sups' Exposant lookups25" S.superior
Position2: "sous-table 'cpsp' Chasses pour composition en capitales lookups0" dx=40 dy=0 dh=80 dv=0
EndChar

StartChar: Scedilla
Encoding: 285 350 35
Width: 941
GlyphClass: 2
Flags: MW
LayerCount: 2
Fore
SplineSet
370 -243 m 0,0,1
 376 -243 376 -243 383.5 -246.5 c 128,-1,2
 391 -250 391 -250 402 -254 c 128,-1,3
 413 -258 413 -258 427.5 -261.5 c 128,-1,4
 442 -265 442 -265 463 -265 c 0,5,6
 503 -265 503 -265 523.5 -249 c 128,-1,7
 544 -233 544 -233 544 -208 c 0,8,9
 544 -171 544 -171 503.5 -156.5 c 128,-1,10
 463 -142 463 -142 389 -132 c 1,11,-1
 428 -13 l 1,12,13
 313 -8 313 -8 217.5 37.5 c 128,-1,14
 122 83 122 83 55 158 c 1,15,-1
 108 244 l 2,16,17
 115 255 115 255 125.5 261.5 c 128,-1,18
 136 268 136 268 150 268 c 0,19,20
 169 268 169 268 192.5 247.5 c 128,-1,21
 216 227 216 227 251 202.5 c 128,-1,22
 286 178 286 178 335.5 157.5 c 128,-1,23
 385 137 385 137 454 137 c 0,24,25
 512 137 512 137 557 154 c 128,-1,26
 602 171 602 171 633.5 202 c 128,-1,27
 665 233 665 233 681.5 276.5 c 128,-1,28
 698 320 698 320 698 373 c 0,29,30
 698 432 698 432 672.5 470 c 128,-1,31
 647 508 647 508 605.5 533.5 c 128,-1,32
 564 559 564 559 511 576.5 c 128,-1,33
 458 594 458 594 403 613 c 128,-1,34
 348 632 348 632 295 656.5 c 128,-1,35
 242 681 242 681 200.5 721 c 128,-1,36
 159 761 159 761 133.5 820 c 128,-1,37
 108 879 108 879 108 967 c 0,38,39
 108 1036 108 1036 134 1101.5 c 128,-1,40
 160 1167 160 1167 209.5 1217.5 c 128,-1,41
 259 1268 259 1268 331.5 1298.5 c 128,-1,42
 404 1329 404 1329 498 1329 c 0,43,44
 603 1329 603 1329 690.5 1294 c 128,-1,45
 778 1259 778 1259 842 1192 c 1,46,-1
 797 1107 l 2,47,48
 782 1079 782 1079 756 1079 c 0,49,50
 741 1079 741 1079 720.5 1094.5 c 128,-1,51
 700 1110 700 1110 670.5 1128.5 c 128,-1,52
 641 1147 641 1147 599.5 1162.5 c 128,-1,53
 558 1178 558 1178 500 1178 c 0,54,55
 445 1178 445 1178 403.5 1162.5 c 128,-1,56
 362 1147 362 1147 334.5 1119.5 c 128,-1,57
 307 1092 307 1092 293 1055.5 c 128,-1,58
 279 1019 279 1019 279 977 c 0,59,60
 279 922 279 922 304.5 886 c 128,-1,61
 330 850 330 850 371.5 824.5 c 128,-1,62
 413 799 413 799 466 780 c 128,-1,63
 519 761 519 761 574 741 c 128,-1,64
 629 721 629 721 682 695.5 c 128,-1,65
 735 670 735 670 776.5 631.5 c 128,-1,66
 818 593 818 593 843.5 537 c 128,-1,67
 869 481 869 481 869 400 c 0,68,69
 869 323 869 323 846.5 254.5 c 128,-1,70
 824 186 824 186 781 132 c 128,-1,71
 738 78 738 78 675.5 41.5 c 128,-1,72
 613 5 613 5 532 -7 c 1,73,-1
 513 -72 l 1,74,75
 603 -90 603 -90 642.5 -124 c 128,-1,76
 682 -158 682 -158 682 -210 c 0,77,78
 682 -241 682 -241 666.5 -266 c 128,-1,79
 651 -291 651 -291 623.5 -308 c 128,-1,80
 596 -325 596 -325 557 -334.5 c 128,-1,81
 518 -344 518 -344 472 -344 c 0,82,83
 433 -344 433 -344 397 -336 c 128,-1,84
 361 -328 361 -328 331 -314 c 1,85,-1
 348 -260 l 2,86,87
 354 -243 354 -243 370 -243 c 0,0,1
EndSplineSet
Validated: 1
Substitution2: "sous-table 'salt' Alternatives stylistiques dans Latin lookup 8" uni0218
Position2: "sous-table 'cpsp' Chasses pour composition en capitales lookups0" dx=40 dy=0 dh=80 dv=0
EndChar

StartChar: T
Encoding: 54 84 36
Width: 998
GlyphClass: 2
Flags: MW
LayerCount: 2
Fore
SplineSet
974 1314 m 1,0,-1
 974 1162 l 1,1,-1
 591 1162 l 1,2,-1
 591 0 l 1,3,-1
 408 0 l 1,4,-1
 408 1162 l 1,5,-1
 24 1162 l 1,6,-1
 24 1314 l 1,7,-1
 974 1314 l 1,0,-1
EndSplineSet
Validated: 1
Substitution2: "sous-table 'sups' Exposant lookups25" T.superior
Position2: "sous-table 'cpsp' Chasses pour composition en capitales lookups0" dx=40 dy=0 dh=80 dv=0
EndChar

StartChar: Tbar
Encoding: 293 358 37
Width: 998
GlyphClass: 2
Flags: MW
LayerCount: 2
Fore
SplineSet
974 1314 m 1,0,-1
 974 1162 l 1,1,-1
 591 1162 l 1,2,-1
 591 781 l 1,3,-1
 901 781 l 1,4,-1
 901 674 l 1,5,-1
 591 674 l 1,6,-1
 591 0 l 1,7,-1
 408 0 l 1,8,-1
 408 674 l 1,9,-1
 175 674 l 1,10,-1
 175 781 l 1,11,-1
 408 781 l 1,12,-1
 408 1162 l 1,13,-1
 24 1162 l 1,14,-1
 24 1314 l 1,15,-1
 974 1314 l 1,0,-1
EndSplineSet
Validated: 1
Position2: "sous-table 'cpsp' Chasses pour composition en capitales lookups0" dx=40 dy=0 dh=80 dv=0
EndChar

StartChar: U
Encoding: 55 85 38
Width: 1314
GlyphClass: 2
Flags: MW
LayerCount: 2
Fore
SplineSet
657 144 m 256,0,1
 736 144 736 144 798.5 171.5 c 128,-1,2
 861 199 861 199 904 248.5 c 128,-1,3
 947 298 947 298 969.5 366 c 128,-1,4
 992 434 992 434 992 516 c 2,5,-1
 992 1314 l 1,6,-1
 1174 1314 l 1,7,-1
 1174 516 l 2,8,9
 1174 402 1174 402 1138 305 c 128,-1,10
 1102 208 1102 208 1035.5 137 c 128,-1,11
 969 66 969 66 873 25.5 c 128,-1,12
 777 -15 777 -15 657 -15 c 256,13,14
 537 -15 537 -15 441.5 25.5 c 128,-1,15
 346 66 346 66 279 137 c 128,-1,16
 212 208 212 208 176 305 c 128,-1,17
 140 402 140 402 140 516 c 2,18,-1
 140 1314 l 1,19,-1
 322 1314 l 1,20,-1
 322 517 l 2,21,22
 322 435 322 435 344.5 366.5 c 128,-1,23
 367 298 367 298 410 248.5 c 128,-1,24
 453 199 453 199 515.5 171.5 c 128,-1,25
 578 144 578 144 657 144 c 256,0,1
EndSplineSet
Validated: 1
Substitution2: "sous-table 'sups' Exposant lookups25" U.superior
Position2: "sous-table 'cpsp' Chasses pour composition en capitales lookups0" dx=40 dy=0 dh=80 dv=0
EndChar

StartChar: Uogonek
Encoding: 305 370 39
Width: 1314
GlyphClass: 2
Flags: MW
LayerCount: 2
Fore
SplineSet
819 -200 m 0,0,1
 832 -200 832 -200 837 -212 c 2,2,-1
 864 -277 l 1,3,4
 835 -299 835 -299 790.5 -313 c 128,-1,5
 746 -327 746 -327 696 -327 c 0,6,7
 611 -327 611 -327 562.5 -289 c 128,-1,8
 514 -251 514 -251 514 -187 c 0,9,10
 514 -137 514 -137 544 -93 c 128,-1,11
 574 -49 574 -49 622 -14 c 1,12,13
 510 -8 510 -8 420.5 34.5 c 128,-1,14
 331 77 331 77 269 147.5 c 128,-1,15
 207 218 207 218 173.5 312 c 128,-1,16
 140 406 140 406 140 516 c 2,17,-1
 140 1314 l 1,18,-1
 322 1314 l 1,19,-1
 322 517 l 2,20,21
 322 435 322 435 344.5 366.5 c 128,-1,22
 367 298 367 298 410 248.5 c 128,-1,23
 453 199 453 199 515.5 171.5 c 128,-1,24
 578 144 578 144 657 144 c 256,25,26
 736 144 736 144 798.5 171.5 c 128,-1,27
 861 199 861 199 904 248.5 c 128,-1,28
 947 298 947 298 969.5 366 c 128,-1,29
 992 434 992 434 992 516 c 2,30,-1
 992 1314 l 1,31,-1
 1174 1314 l 1,32,-1
 1174 516 l 2,33,34
 1174 412 1174 412 1144 321.5 c 128,-1,35
 1114 231 1114 231 1057.5 161.5 c 128,-1,36
 1001 92 1001 92 919.5 47.5 c 128,-1,37
 838 3 838 3 736 -10 c 1,38,39
 719 -21 719 -21 703 -35 c 128,-1,40
 687 -49 687 -49 674.5 -66 c 128,-1,41
 662 -83 662 -83 654 -102.5 c 128,-1,42
 646 -122 646 -122 646 -144 c 0,43,44
 646 -180 646 -180 670 -201 c 128,-1,45
 694 -222 694 -222 732 -222 c 0,46,47
 754 -222 754 -222 768 -218.5 c 128,-1,48
 782 -215 782 -215 792 -211 c 128,-1,49
 802 -207 802 -207 808 -203.5 c 128,-1,50
 814 -200 814 -200 819 -200 c 0,0,1
EndSplineSet
Validated: 1
Position2: "sous-table 'cpsp' Chasses pour composition en capitales lookups0" dx=40 dy=0 dh=80 dv=0
EndChar

StartChar: V
Encoding: 56 86 40
Width: 1162
GlyphClass: 2
Flags: MW
LayerCount: 2
Fore
SplineSet
6 1314 m 1,0,-1
 153 1314 l 2,1,2
 177 1314 177 1314 192 1302 c 128,-1,3
 207 1290 207 1290 214 1272 c 2,4,-1
 539 351 l 2,5,6
 551 320 551 320 562.5 283.5 c 128,-1,7
 574 247 574 247 583 207 c 1,8,9
 591 247 591 247 601.5 283.5 c 128,-1,10
 612 320 612 320 624 351 c 2,11,-1
 948 1271 l 2,12,13
 954 1288 954 1288 970 1301 c 128,-1,14
 986 1314 986 1314 1009 1314 c 2,15,-1
 1156 1314 l 1,16,-1
 663 0 l 1,17,-1
 499 0 l 1,18,-1
 6 1314 l 1,0,-1
EndSplineSet
Validated: 1
Substitution2: "sous-table 'sups' Exposant lookups25" V.superior
Position2: "sous-table 'cpsp' Chasses pour composition en capitales lookups0" dx=40 dy=0 dh=80 dv=0
EndChar

StartChar: W
Encoding: 57 87 41
Width: 1822
GlyphClass: 2
Flags: MW
LayerCount: 2
Fore
SplineSet
12 1314 m 1,0,-1
 165 1314 l 2,1,2
 188 1314 188 1314 204.5 1302.5 c 128,-1,3
 221 1291 221 1291 226 1272 c 2,4,-1
 481 365 l 2,5,6
 495 317 495 317 507 253 c 1,7,8
 513 284 513 284 520 312.5 c 128,-1,9
 527 341 527 341 535 366 c 2,10,-1
 828 1271 l 2,11,12
 833 1288 833 1288 850 1301 c 128,-1,13
 867 1314 867 1314 890 1314 c 2,14,-1
 943 1314 l 2,15,16
 967 1314 967 1314 982.5 1302.5 c 128,-1,17
 998 1291 998 1291 1004 1272 c 2,18,-1
 1297 365 l 2,19,20
 1305 341 1305 341 1312 313.5 c 128,-1,21
 1319 286 1319 286 1325 256 c 1,22,23
 1331 286 1331 286 1337 314 c 128,-1,24
 1343 342 1343 342 1350 365 c 2,25,-1
 1604 1271 l 2,26,27
 1609 1288 1609 1288 1626.5 1301 c 128,-1,28
 1644 1314 1644 1314 1667 1314 c 2,29,-1
 1810 1314 l 1,30,-1
 1411 0 l 1,31,-1
 1246 0 l 1,32,-1
 930 996 l 2,33,34
 925 1010 925 1010 920.5 1026.5 c 128,-1,35
 916 1043 916 1043 911 1062 c 1,36,37
 907 1043 907 1043 902.5 1026.5 c 128,-1,38
 898 1010 898 1010 893 996 c 2,39,-1
 575 0 l 1,40,-1
 411 0 l 1,41,-1
 12 1314 l 1,0,-1
EndSplineSet
Validated: 1
Substitution2: "sous-table 'sups' Exposant lookups25" W.superior
Position2: "sous-table 'cpsp' Chasses pour composition en capitales lookups0" dx=40 dy=0 dh=80 dv=0
EndChar

StartChar: X
Encoding: 58 88 42
Width: 1063
GlyphClass: 2
Flags: MW
LayerCount: 2
Fore
SplineSet
407 674 m 1,0,-1
 27 1314 l 1,1,-1
 208 1314 l 2,2,3
 228 1314 228 1314 237 1307 c 128,-1,4
 246 1300 246 1300 254 1289 c 2,5,-1
 543 777 l 1,6,7
 550 794 550 794 559 807 c 2,8,-1
 825 1286 l 2,9,10
 833 1299 833 1299 842.5 1306.5 c 128,-1,11
 852 1314 852 1314 866 1314 c 2,12,-1
 1040 1314 l 1,13,-1
 658 684 l 1,14,-1
 1052 0 l 1,15,-1
 871 0 l 2,16,17
 851 0 851 0 840 11 c 128,-1,18
 829 22 829 22 821 34 c 2,19,-1
 524 570 l 1,20,21
 519 555 519 555 512 545 c 2,22,-1
 228 34 l 2,23,24
 220 21 220 21 209 10.5 c 128,-1,25
 198 0 198 0 181 0 c 2,26,-1
 11 0 l 1,27,-1
 407 674 l 1,0,-1
EndSplineSet
Validated: 1
Substitution2: "sous-table 'sups' Exposant lookups25" X.superior
Position2: "sous-table 'cpsp' Chasses pour composition en capitales lookups0" dx=40 dy=0 dh=80 dv=0
EndChar

StartChar: Y
Encoding: 59 89 43
Width: 998
GlyphClass: 2
Flags: MW
LayerCount: 2
Fore
SplineSet
590 525 m 1,0,-1
 590 0 l 1,1,-1
 408 0 l 1,2,-1
 408 523 l 1,3,-1
 0 1314 l 1,4,-1
 160 1314 l 2,5,6
 183 1314 183 1314 197.5 1302.5 c 128,-1,7
 212 1291 212 1291 222 1272 c 2,8,-1
 447 765 l 2,9,10
 464 734 464 734 477 706.5 c 128,-1,11
 490 679 490 679 500 652 c 1,12,13
 510 679 510 679 522.5 706.5 c 128,-1,14
 535 734 535 734 552 764 c 2,15,-1
 775 1272 l 2,16,17
 783 1287 783 1287 798 1300.5 c 128,-1,18
 813 1314 813 1314 836 1314 c 2,19,-1
 998 1314 l 1,20,-1
 590 525 l 1,0,-1
EndSplineSet
Validated: 1
Substitution2: "sous-table 'sups' Exposant lookups25" Y.superior
Position2: "sous-table 'cpsp' Chasses pour composition en capitales lookups0" dx=40 dy=0 dh=80 dv=0
EndChar

StartChar: Z
Encoding: 60 90 44
Width: 959
GlyphClass: 2
Flags: MW
LayerCount: 2
Fore
SplineSet
910 1314 m 1,0,-1
 910 1247 l 2,1,2
 910 1215 910 1215 891 1187 c 2,3,-1
 276 148 l 1,4,-1
 897 148 l 1,5,-1
 897 0 l 1,6,-1
 56 0 l 1,7,-1
 56 71 l 2,8,9
 56 86 56 86 61 99 c 128,-1,10
 66 112 66 112 74 124 c 2,11,-1
 688 1166 l 1,12,-1
 90 1166 l 1,13,-1
 90 1314 l 1,14,-1
 910 1314 l 1,0,-1
EndSplineSet
Validated: 1
Substitution2: "sous-table 'sups' Exposant lookups25" Z.superior
Position2: "sous-table 'cpsp' Chasses pour composition en capitales lookups0" dx=40 dy=0 dh=80 dv=0
EndChar

StartChar: a
Encoding: 67 97 45
Width: 981
GlyphClass: 2
Flags: MW
LayerCount: 2
Fore
SplineSet
777 0 m 2,0,1
 751 0 751 0 737 8 c 128,-1,2
 723 16 723 16 718 41 c 2,3,-1
 696 132 l 1,4,5
 658 97 658 97 621.5 69.5 c 128,-1,6
 585 42 585 42 545 23 c 128,-1,7
 505 4 505 4 459 -5.5 c 128,-1,8
 413 -15 413 -15 358 -15 c 0,9,10
 301 -15 301 -15 251.5 0.5 c 128,-1,11
 202 16 202 16 164.5 48.5 c 128,-1,12
 127 81 127 81 105.5 129.5 c 128,-1,13
 84 178 84 178 84 244 c 0,14,15
 84 302 84 302 115.5 355.5 c 128,-1,16
 147 409 147 409 218 451 c 128,-1,17
 289 493 289 493 403 519.5 c 128,-1,18
 517 546 517 546 683 550 c 1,19,-1
 683 625 l 2,20,21
 683 739 683 739 634.5 796.5 c 128,-1,22
 586 854 586 854 493 854 c 0,23,24
 431 854 431 854 388.5 838 c 128,-1,25
 346 822 346 822 315 803 c 128,-1,26
 284 784 284 784 261.5 768 c 128,-1,27
 239 752 239 752 216 752 c 0,28,29
 198 752 198 752 185 761 c 128,-1,30
 172 770 172 770 164 784 c 2,31,-1
 132 840 l 1,32,33
 213 918 213 918 306.5 956.5 c 128,-1,34
 400 995 400 995 514 995 c 0,35,36
 596 995 596 995 660 968.5 c 128,-1,37
 724 942 724 942 767 893 c 128,-1,38
 810 844 810 844 832.5 776 c 128,-1,39
 855 708 855 708 855 625 c 2,40,-1
 855 0 l 1,41,-1
 777 0 l 2,0,1
411 108 m 0,42,43
 455 108 455 108 492 117 c 128,-1,44
 529 126 529 126 562 142.5 c 128,-1,45
 595 159 595 159 624.5 183.5 c 128,-1,46
 654 208 654 208 683 238 c 1,47,-1
 683 440 l 1,48,49
 566 435 566 435 484 420.5 c 128,-1,50
 402 406 402 406 350.5 382 c 128,-1,51
 299 358 299 358 276 325.5 c 128,-1,52
 253 293 253 293 253 253 c 0,53,54
 253 215 253 215 265.5 187.5 c 128,-1,55
 278 160 278 160 299 142.5 c 128,-1,56
 320 125 320 125 349 116.5 c 128,-1,57
 378 108 378 108 411 108 c 0,42,43
EndSplineSet
Validated: 1
Substitution2: "sous-table 'ordn' Ordinaux dans Latin lookup 39" a.superior
Substitution2: "sous-table 'sups' Exposant lookups25" a.superior
EndChar

StartChar: aogonek
Encoding: 196 261 46
Width: 981
GlyphClass: 2
Flags: MW
LayerCount: 2
Fore
SplineSet
917 -203 m 0,0,1
 930 -203 930 -203 935 -215 c 2,2,-1
 962 -280 l 1,3,4
 933 -302 933 -302 888.5 -316 c 128,-1,5
 844 -330 844 -330 794 -330 c 0,6,7
 709 -330 709 -330 660.5 -292 c 128,-1,8
 612 -254 612 -254 612 -190 c 0,9,10
 612 -133 612 -133 651 -83.5 c 128,-1,11
 690 -34 690 -34 750 2 c 1,12,13
 725 9 725 9 718 41 c 2,14,-1
 696 132 l 1,15,16
 658 97 658 97 621.5 69.5 c 128,-1,17
 585 42 585 42 545 23 c 128,-1,18
 505 4 505 4 459 -5.5 c 128,-1,19
 413 -15 413 -15 358 -15 c 0,20,21
 301 -15 301 -15 251.5 0.5 c 128,-1,22
 202 16 202 16 164.5 48.5 c 128,-1,23
 127 81 127 81 105.5 129.5 c 128,-1,24
 84 178 84 178 84 244 c 0,25,26
 84 302 84 302 115.5 355.5 c 128,-1,27
 147 409 147 409 218 451 c 128,-1,28
 289 493 289 493 403 519.5 c 128,-1,29
 517 546 517 546 683 550 c 1,30,-1
 683 625 l 2,31,32
 683 739 683 739 634.5 796.5 c 128,-1,33
 586 854 586 854 493 854 c 0,34,35
 431 854 431 854 388.5 838 c 128,-1,36
 346 822 346 822 315 803 c 128,-1,37
 284 784 284 784 261.5 768 c 128,-1,38
 239 752 239 752 216 752 c 0,39,40
 198 752 198 752 185 761 c 128,-1,41
 172 770 172 770 164 784 c 2,42,-1
 132 840 l 1,43,44
 213 918 213 918 306.5 956.5 c 128,-1,45
 400 995 400 995 514 995 c 0,46,47
 596 995 596 995 660 968.5 c 128,-1,48
 724 942 724 942 767 893 c 128,-1,49
 810 844 810 844 832.5 776 c 128,-1,50
 855 708 855 708 855 625 c 2,51,-1
 855 0 l 1,52,-1
 856 0 l 1,53,54
 837 -11 837 -11 817.5 -25.5 c 128,-1,55
 798 -40 798 -40 781.5 -59 c 128,-1,56
 765 -78 765 -78 754.5 -100 c 128,-1,57
 744 -122 744 -122 744 -147 c 0,58,59
 744 -183 744 -183 768 -204 c 128,-1,60
 792 -225 792 -225 830 -225 c 0,61,62
 852 -225 852 -225 866 -221.5 c 128,-1,63
 880 -218 880 -218 890 -214 c 128,-1,64
 900 -210 900 -210 906 -206.5 c 128,-1,65
 912 -203 912 -203 917 -203 c 0,0,1
411 108 m 0,66,67
 455 108 455 108 492 117 c 128,-1,68
 529 126 529 126 562 142.5 c 128,-1,69
 595 159 595 159 624.5 183.5 c 128,-1,70
 654 208 654 208 683 238 c 1,71,-1
 683 440 l 1,72,73
 566 435 566 435 484 420.5 c 128,-1,74
 402 406 402 406 350.5 382 c 128,-1,75
 299 358 299 358 276 325.5 c 128,-1,76
 253 293 253 293 253 253 c 0,77,78
 253 215 253 215 265.5 187.5 c 128,-1,79
 278 160 278 160 299 142.5 c 128,-1,80
 320 125 320 125 349 116.5 c 128,-1,81
 378 108 378 108 411 108 c 0,66,67
EndSplineSet
Validated: 1
EndChar

StartChar: ae
Encoding: 165 230 47
Width: 1583
GlyphClass: 2
Flags: MW
LayerCount: 2
Fore
SplineSet
1131 993 m 0,0,1
 1210 993 1210 993 1279 962 c 128,-1,2
 1348 931 1348 931 1399 872.5 c 128,-1,3
 1450 814 1450 814 1479 729.5 c 128,-1,4
 1508 645 1508 645 1508 537 c 0,5,6
 1508 496 1508 496 1500 482 c 128,-1,7
 1492 468 1492 468 1467 468 c 2,8,-1
 857 468 l 1,9,10
 865 294 865 294 942 209 c 128,-1,11
 1019 124 1019 124 1144 124 c 0,12,13
 1211 124 1211 124 1256 138 c 128,-1,14
 1301 152 1301 152 1330.5 169 c 128,-1,15
 1360 186 1360 186 1378.5 200 c 128,-1,16
 1397 214 1397 214 1412 214 c 0,17,18
 1426 214 1426 214 1434.5 209.5 c 128,-1,19
 1443 205 1443 205 1449 197 c 2,20,-1
 1495 137 l 1,21,22
 1463 98 1463 98 1420.5 69.5 c 128,-1,23
 1378 41 1378 41 1330 22.5 c 128,-1,24
 1282 4 1282 4 1230 -5 c 128,-1,25
 1178 -14 1178 -14 1128 -14 c 0,26,27
 1015 -14 1015 -14 922 40.5 c 128,-1,28
 829 95 829 95 775 206 c 1,29,30
 749 146 749 146 707 104 c 128,-1,31
 665 62 665 62 613.5 35.5 c 128,-1,32
 562 9 562 9 504 -3 c 128,-1,33
 446 -15 446 -15 389 -15 c 0,34,35
 321 -15 321 -15 265.5 2 c 128,-1,36
 210 19 210 19 170 52.5 c 128,-1,37
 130 86 130 86 108 137.5 c 128,-1,38
 86 189 86 189 86 258 c 0,39,40
 86 316 86 316 117.5 372 c 128,-1,41
 149 428 149 428 220.5 472 c 128,-1,42
 292 516 292 516 407.5 545 c 128,-1,43
 523 574 523 574 691 578 c 1,44,-1
 691 625 l 2,45,46
 691 739 691 739 642.5 799.5 c 128,-1,47
 594 860 594 860 498 860 c 0,48,49
 435 860 435 860 391.5 843 c 128,-1,50
 348 826 348 826 317 806 c 128,-1,51
 286 786 286 786 263 769 c 128,-1,52
 240 752 240 752 217 752 c 0,53,54
 199 752 199 752 186 761 c 128,-1,55
 173 770 173 770 165 784 c 2,56,-1
 133 840 l 1,57,58
 215 918 215 918 303 956.5 c 128,-1,59
 391 995 391 995 501 995 c 0,60,61
 617 995 617 995 688.5 946 c 128,-1,62
 760 897 760 897 792 812 c 1,63,64
 844 896 844 896 929 944.5 c 128,-1,65
 1014 993 1014 993 1131 993 c 0,0,1
691 468 m 1,66,67
 572 463 572 463 489 446 c 128,-1,68
 406 429 406 429 354 402.5 c 128,-1,69
 302 376 302 376 278.5 341.5 c 128,-1,70
 255 307 255 307 255 267 c 0,71,72
 255 184 255 184 303 146 c 128,-1,73
 351 108 351 108 429 108 c 0,74,75
 484 108 484 108 532 125.5 c 128,-1,76
 580 143 580 143 615 178 c 128,-1,77
 650 213 650 213 670.5 265.5 c 128,-1,78
 691 318 691 318 691 389 c 2,79,-1
 691 468 l 1,66,67
1124 865 m 0,80,81
 1065 865 1065 865 1018.5 845 c 128,-1,82
 972 825 972 825 938.5 787.5 c 128,-1,83
 905 750 905 750 885 697 c 128,-1,84
 865 644 865 644 859 577 c 1,85,-1
 1352 577 l 1,86,87
 1352 639 1352 639 1336.5 692 c 128,-1,88
 1321 745 1321 745 1291.5 783.5 c 128,-1,89
 1262 822 1262 822 1220 843.5 c 128,-1,90
 1178 865 1178 865 1124 865 c 0,80,81
EndSplineSet
Validated: 1
EndChar

StartChar: b
Encoding: 68 98 48
Width: 1076
GlyphClass: 2
Flags: MW
LayerCount: 2
Fore
SplineSet
144 0 m 1,0,-1
 144 1422 l 1,1,-1
 320 1422 l 1,2,-1
 320 839 l 1,3,4
 380 910 380 910 457 951.5 c 128,-1,5
 534 993 534 993 634 993 c 0,6,7
 719 993 719 993 787 960 c 128,-1,8
 855 927 855 927 903 865 c 128,-1,9
 951 803 951 803 976.5 714.5 c 128,-1,10
 1002 626 1002 626 1002 514 c 0,11,12
 1002 395 1002 395 973 298 c 128,-1,13
 944 201 944 201 890 131.5 c 128,-1,14
 836 62 836 62 759 24 c 128,-1,15
 682 -14 682 -14 586 -14 c 256,16,17
 490 -14 490 -14 425.5 22.5 c 128,-1,18
 361 59 361 59 311 124 c 1,19,-1
 301 37 l 2,20,21
 297 0 297 0 258 0 c 2,22,-1
 144 0 l 1,0,-1
575 854 m 0,23,24
 494 854 494 854 432.5 816 c 128,-1,25
 371 778 371 778 320 708 c 1,26,-1
 320 236 l 1,27,28
 366 173 366 173 421 147.5 c 128,-1,29
 476 122 476 122 542 122 c 0,30,31
 677 122 677 122 749 219 c 128,-1,32
 821 316 821 316 821 508 c 0,33,34
 821 686 821 686 757 770 c 128,-1,35
 693 854 693 854 575 854 c 0,23,24
EndSplineSet
Validated: 1
Substitution2: "sous-table 'ordn' Ordinaux dans Latin lookup 39" b.superior
Substitution2: "sous-table 'sups' Exposant lookups25" b.superior
EndChar

StartChar: c
Encoding: 69 99 49
Width: 866
GlyphClass: 2
Flags: MW
LayerCount: 2
Fore
SplineSet
769 802 m 2,0,1
 761 791 761 791 753.5 785.5 c 128,-1,2
 746 780 746 780 732 780 c 0,3,4
 717 780 717 780 701 792 c 128,-1,5
 685 804 685 804 661 818.5 c 128,-1,6
 637 833 637 833 602.5 845 c 128,-1,7
 568 857 568 857 518 857 c 0,8,9
 452 857 452 857 401.5 831.5 c 128,-1,10
 351 806 351 806 317.5 758.5 c 128,-1,11
 284 711 284 711 266.5 643 c 128,-1,12
 249 575 249 575 249 490 c 0,13,14
 249 402 249 402 267.5 333.5 c 128,-1,15
 286 265 286 265 320 218 c 128,-1,16
 354 171 354 171 402 146.5 c 128,-1,17
 450 122 450 122 510 122 c 0,18,19
 568 122 568 122 605 137 c 128,-1,20
 642 152 642 152 667 170 c 128,-1,21
 692 188 692 188 708.5 203 c 128,-1,22
 725 218 725 218 743 218 c 0,23,24
 763 218 763 218 775 201 c 2,25,-1
 826 137 l 1,26,27
 794 98 794 98 755 69.5 c 128,-1,28
 716 41 716 41 671 22.5 c 128,-1,29
 626 4 626 4 577.5 -5 c 128,-1,30
 529 -14 529 -14 479 -14 c 0,31,32
 393 -14 393 -14 318 20 c 128,-1,33
 243 54 243 54 187.5 118.5 c 128,-1,34
 132 183 132 183 100.5 276.5 c 128,-1,35
 69 370 69 370 69 490 c 0,36,37
 69 599 69 599 98 691.5 c 128,-1,38
 127 784 127 784 182.5 851 c 128,-1,39
 238 918 238 918 319.5 955.5 c 128,-1,40
 401 993 401 993 507 993 c 0,41,42
 607 993 607 993 682 959.5 c 128,-1,43
 757 926 757 926 815 866 c 1,44,-1
 769 802 l 2,0,1
EndSplineSet
Validated: 1
Substitution2: "sous-table 'ordn' Ordinaux dans Latin lookup 39" c.superior
Substitution2: "sous-table 'sups' Exposant lookups25" c.superior
EndChar

StartChar: ccedilla
Encoding: 166 231 50
Width: 866
GlyphClass: 2
Flags: MW
LayerCount: 2
Fore
SplineSet
381 -243 m 0,0,1
 387 -243 387 -243 393.5 -246.5 c 128,-1,2
 400 -250 400 -250 410 -254 c 128,-1,3
 420 -258 420 -258 433.5 -261.5 c 128,-1,4
 447 -265 447 -265 465 -265 c 0,5,6
 501 -265 501 -265 520 -249 c 128,-1,7
 539 -233 539 -233 539 -208 c 0,8,9
 539 -171 539 -171 502 -156.5 c 128,-1,10
 465 -142 465 -142 395 -132 c 1,11,-1
 433 -11 l 1,12,13
 355 -3 355 -3 288.5 34.5 c 128,-1,14
 222 72 222 72 173 136 c 128,-1,15
 124 200 124 200 96.5 289 c 128,-1,16
 69 378 69 378 69 490 c 0,17,18
 69 599 69 599 98 691.5 c 128,-1,19
 127 784 127 784 182.5 851 c 128,-1,20
 238 918 238 918 319.5 955.5 c 128,-1,21
 401 993 401 993 507 993 c 0,22,23
 607 993 607 993 682 959.5 c 128,-1,24
 757 926 757 926 815 866 c 1,25,-1
 769 802 l 2,26,27
 761 791 761 791 753.5 785.5 c 128,-1,28
 746 780 746 780 732 780 c 0,29,30
 717 780 717 780 701 792 c 128,-1,31
 685 804 685 804 661 818.5 c 128,-1,32
 637 833 637 833 602.5 845 c 128,-1,33
 568 857 568 857 518 857 c 0,34,35
 452 857 452 857 401.5 831.5 c 128,-1,36
 351 806 351 806 317.5 758.5 c 128,-1,37
 284 711 284 711 266.5 643 c 128,-1,38
 249 575 249 575 249 490 c 0,39,40
 249 402 249 402 267.5 333.5 c 128,-1,41
 286 265 286 265 320 218 c 128,-1,42
 354 171 354 171 402 146.5 c 128,-1,43
 450 122 450 122 510 122 c 0,44,45
 568 122 568 122 605 137 c 128,-1,46
 642 152 642 152 667 170 c 128,-1,47
 692 188 692 188 708.5 203 c 128,-1,48
 725 218 725 218 743 218 c 0,49,50
 763 218 763 218 775 201 c 2,51,-1
 826 137 l 1,52,53
 772 69 772 69 696 33 c 128,-1,54
 620 -3 620 -3 535 -11 c 1,55,-1
 518 -72 l 1,56,57
 603 -90 603 -90 640 -124 c 128,-1,58
 677 -158 677 -158 677 -210 c 0,59,60
 677 -241 677 -241 662.5 -266 c 128,-1,61
 648 -291 648 -291 621 -308 c 128,-1,62
 594 -325 594 -325 557 -334.5 c 128,-1,63
 520 -344 520 -344 475 -344 c 0,64,65
 438 -344 438 -344 404 -336 c 128,-1,66
 370 -328 370 -328 341 -314 c 1,67,-1
 358 -260 l 2,68,69
 364 -243 364 -243 381 -243 c 0,0,1
EndSplineSet
Validated: 1
EndChar

StartChar: c_h.dlig
Encoding: 2123 -1 51
Width: 1903
GlyphClass: 3
Flags: MW
LayerCount: 2
Fore
SplineSet
769 802 m 2,0,1
 761 791 761 791 753.5 785.5 c 128,-1,2
 746 780 746 780 732 780 c 0,3,4
 717 780 717 780 701 792 c 128,-1,5
 685 804 685 804 661 818.5 c 128,-1,6
 637 833 637 833 602.5 845 c 128,-1,7
 568 857 568 857 518 857 c 0,8,9
 452 857 452 857 401.5 831.5 c 128,-1,10
 351 806 351 806 317.5 758.5 c 128,-1,11
 284 711 284 711 266.5 643 c 128,-1,12
 249 575 249 575 249 490 c 0,13,14
 249 402 249 402 267.5 333.5 c 128,-1,15
 286 265 286 265 320 218 c 128,-1,16
 354 171 354 171 402 146.5 c 128,-1,17
 450 122 450 122 510 122 c 0,18,19
 568 122 568 122 605 137 c 128,-1,20
 642 152 642 152 667 170 c 128,-1,21
 692 188 692 188 708.5 203 c 128,-1,22
 725 218 725 218 743 218 c 0,23,24
 763 218 763 218 775 201 c 2,25,-1
 826 137 l 1,26,27
 794 98 794 98 755 69.5 c 128,-1,28
 716 41 716 41 671 22.5 c 128,-1,29
 626 4 626 4 577.5 -5 c 128,-1,30
 529 -14 529 -14 479 -14 c 0,31,32
 393 -14 393 -14 318 20 c 128,-1,33
 243 54 243 54 187.5 118.5 c 128,-1,34
 132 183 132 183 100.5 276.5 c 128,-1,35
 69 370 69 370 69 490 c 0,36,37
 69 599 69 599 98 691.5 c 128,-1,38
 127 784 127 784 182.5 851 c 128,-1,39
 238 918 238 918 319.5 955.5 c 128,-1,40
 401 993 401 993 507 993 c 0,41,42
 551 993 551 993 594 985 c 1,43,44
 555 1038 555 1038 530.5 1095.5 c 128,-1,45
 506 1153 506 1153 506 1217 c 0,46,47
 506 1273 506 1273 527 1325.5 c 128,-1,48
 548 1378 548 1378 589.5 1418.5 c 128,-1,49
 631 1459 631 1459 692 1483.5 c 128,-1,50
 753 1508 753 1508 833 1508 c 0,51,52
 897 1508 897 1508 945.5 1494.5 c 128,-1,53
 994 1481 994 1481 1030.5 1465 c 128,-1,54
 1067 1449 1067 1449 1095 1435.5 c 128,-1,55
 1123 1422 1123 1422 1147 1422 c 1,56,-1
 1147 849 l 1,57,58
 1208 915 1208 915 1282.5 954 c 128,-1,59
 1357 993 1357 993 1455 993 c 0,60,61
 1535 993 1535 993 1595.5 966.5 c 128,-1,62
 1656 940 1656 940 1697 891.5 c 128,-1,63
 1738 843 1738 843 1758.5 774.5 c 128,-1,64
 1779 706 1779 706 1779 623 c 2,65,-1
 1779 0 l 1,66,-1
 1603 0 l 1,67,-1
 1603 623 l 2,68,69
 1603 732 1603 732 1554 793 c 128,-1,70
 1505 854 1505 854 1404 854 c 0,71,72
 1329 854 1329 854 1265 818 c 128,-1,73
 1201 782 1201 782 1147 719 c 1,74,-1
 1147 0 l 1,75,-1
 971 0 l 1,76,-1
 971 1334 l 1,77,78
 951 1374 951 1374 902.5 1395.5 c 128,-1,79
 854 1417 854 1417 794 1417 c 0,80,81
 741 1417 741 1417 702.5 1399 c 128,-1,82
 664 1381 664 1381 639.5 1352 c 128,-1,83
 615 1323 615 1323 603 1286.5 c 128,-1,84
 591 1250 591 1250 591 1214 c 0,85,86
 591 1167 591 1167 609 1123.5 c 128,-1,87
 627 1080 627 1080 656 1039.5 c 128,-1,88
 685 999 685 999 722 960 c 128,-1,89
 759 921 759 921 797 883 c 2,90,-1
 815 866 l 1,91,-1
 769 802 l 2,0,1
EndSplineSet
Validated: 1
Ligature2: "sous-table 'dlig' Ligatures facultatives  dans Latin lookup 36" c h
EndChar

StartChar: c_k.dlig
Encoding: 2124 -1 52
Width: 1757
GlyphClass: 3
Flags: MW
LayerCount: 2
Fore
SplineSet
769 802 m 2,0,1
 761 791 761 791 753.5 785.5 c 128,-1,2
 746 780 746 780 732 780 c 0,3,4
 717 780 717 780 701 792 c 128,-1,5
 685 804 685 804 661 818.5 c 128,-1,6
 637 833 637 833 602.5 845 c 128,-1,7
 568 857 568 857 518 857 c 0,8,9
 452 857 452 857 401.5 831.5 c 128,-1,10
 351 806 351 806 317.5 758.5 c 128,-1,11
 284 711 284 711 266.5 643 c 128,-1,12
 249 575 249 575 249 490 c 0,13,14
 249 402 249 402 267.5 333.5 c 128,-1,15
 286 265 286 265 320 218 c 128,-1,16
 354 171 354 171 402 146.5 c 128,-1,17
 450 122 450 122 510 122 c 0,18,19
 568 122 568 122 605 137 c 128,-1,20
 642 152 642 152 667 170 c 128,-1,21
 692 188 692 188 708.5 203 c 128,-1,22
 725 218 725 218 743 218 c 0,23,24
 763 218 763 218 775 201 c 2,25,-1
 826 137 l 1,26,27
 794 98 794 98 755 69.5 c 128,-1,28
 716 41 716 41 671 22.5 c 128,-1,29
 626 4 626 4 577.5 -5 c 128,-1,30
 529 -14 529 -14 479 -14 c 0,31,32
 393 -14 393 -14 318 20 c 128,-1,33
 243 54 243 54 187.5 118.5 c 128,-1,34
 132 183 132 183 100.5 276.5 c 128,-1,35
 69 370 69 370 69 490 c 0,36,37
 69 599 69 599 98 691.5 c 128,-1,38
 127 784 127 784 182.5 851 c 128,-1,39
 238 918 238 918 319.5 955.5 c 128,-1,40
 401 993 401 993 507 993 c 0,41,42
 547 993 547 993 585 987 c 1,43,44
 543 1039 543 1039 516 1096.5 c 128,-1,45
 489 1154 489 1154 489 1217 c 0,46,47
 489 1273 489 1273 510 1325.5 c 128,-1,48
 531 1378 531 1378 572.5 1418.5 c 128,-1,49
 614 1459 614 1459 675 1483.5 c 128,-1,50
 736 1508 736 1508 816 1508 c 0,51,52
 880 1508 880 1508 928.5 1494.5 c 128,-1,53
 977 1481 977 1481 1013.5 1465 c 128,-1,54
 1050 1449 1050 1449 1078 1435.5 c 128,-1,55
 1106 1422 1106 1422 1130 1422 c 1,56,-1
 1130 586 l 1,57,-1
 1170 586 l 2,58,59
 1189 586 1189 586 1200.5 591 c 128,-1,60
 1212 596 1212 596 1225 613 c 2,61,-1
 1485 944 l 2,62,63
 1499 960 1499 960 1514 969 c 128,-1,64
 1529 978 1529 978 1552 978 c 2,65,-1
 1712 978 l 1,66,-1
 1405 593 l 2,67,68
 1391 578 1391 578 1377 565.5 c 128,-1,69
 1363 553 1363 553 1347 543 c 1,70,71
 1364 532 1364 532 1377.5 516.5 c 128,-1,72
 1391 501 1391 501 1405 484 c 2,73,-1
 1732 0 l 1,74,-1
 1574 0 l 2,75,76
 1553 0 1553 0 1537 7.5 c 128,-1,77
 1521 15 1521 15 1508 33 c 2,78,-1
 1241 434 l 2,79,80
 1227 454 1227 454 1214.5 460.5 c 128,-1,81
 1202 467 1202 467 1175 467 c 2,82,-1
 1130 467 l 1,83,-1
 1130 0 l 1,84,-1
 954 0 l 1,85,-1
 954 1334 l 1,86,87
 934 1374 934 1374 885.5 1395.5 c 128,-1,88
 837 1417 837 1417 777 1417 c 0,89,90
 724 1417 724 1417 685.5 1399 c 128,-1,91
 647 1381 647 1381 622.5 1352 c 128,-1,92
 598 1323 598 1323 586 1286.5 c 128,-1,93
 574 1250 574 1250 574 1214 c 0,94,95
 574 1167 574 1167 594.5 1123.5 c 128,-1,96
 615 1080 615 1080 647 1039.5 c 128,-1,97
 679 999 679 999 718.5 960 c 128,-1,98
 758 921 758 921 797 883 c 2,99,-1
 815 866 l 1,100,-1
 769 802 l 2,0,1
EndSplineSet
Validated: 1
Ligature2: "sous-table 'dlig' Ligatures facultatives  dans Latin lookup 36" c k
EndChar

StartChar: c_t.dlig
Encoding: 2125 -1 53
Width: 1537
GlyphClass: 3
Flags: MW
LayerCount: 2
Fore
SplineSet
1215 960 m 1,0,-1
 1479 960 l 1,1,-1
 1479 832 l 1,2,-1
 1215 832 l 1,3,-1
 1215 248 l 2,4,5
 1215 188 1215 188 1242 158 c 128,-1,6
 1269 128 1269 128 1312 128 c 0,7,8
 1337 128 1337 128 1355 135 c 128,-1,9
 1373 142 1373 142 1385.5 151 c 128,-1,10
 1398 160 1398 160 1407 167 c 128,-1,11
 1416 174 1416 174 1424 174 c 0,12,13
 1439 174 1439 174 1448 157 c 2,14,-1
 1501 73 l 1,15,16
 1457 31 1457 31 1397 8 c 128,-1,17
 1337 -15 1337 -15 1271 -15 c 0,18,19
 1160 -15 1160 -15 1099.5 50 c 128,-1,20
 1039 115 1039 115 1039 236 c 2,21,-1
 1039 832 l 1,22,-1
 931 832 l 2,23,24
 916 832 916 832 905.5 842 c 128,-1,25
 895 852 895 852 895 871 c 2,26,-1
 895 941 l 1,27,-1
 1052 962 l 1,28,29
 1059 991 1059 991 1067 1023.5 c 128,-1,30
 1075 1056 1075 1056 1081 1089 c 128,-1,31
 1087 1122 1087 1122 1091 1155 c 128,-1,32
 1095 1188 1095 1188 1095 1218 c 0,33,34
 1095 1264 1095 1264 1084 1303.5 c 128,-1,35
 1073 1343 1073 1343 1048 1372 c 128,-1,36
 1023 1401 1023 1401 984 1417 c 128,-1,37
 945 1433 945 1433 890 1433 c 0,38,39
 824 1433 824 1433 774 1411.5 c 128,-1,40
 724 1390 724 1390 690.5 1354.5 c 128,-1,41
 657 1319 657 1319 640 1272.5 c 128,-1,42
 623 1226 623 1226 623 1176 c 0,43,44
 623 1116 623 1116 648.5 1054.5 c 128,-1,45
 674 993 674 993 723 939 c 1,46,47
 749 924 749 924 771.5 905.5 c 128,-1,48
 794 887 794 887 815 866 c 1,49,-1
 769 802 l 2,50,51
 761 791 761 791 753.5 785.5 c 128,-1,52
 746 780 746 780 732 780 c 0,53,54
 717 780 717 780 701 792 c 128,-1,55
 685 804 685 804 661 818.5 c 128,-1,56
 637 833 637 833 602.5 845 c 128,-1,57
 568 857 568 857 518 857 c 0,58,59
 452 857 452 857 401.5 831.5 c 128,-1,60
 351 806 351 806 317.5 758.5 c 128,-1,61
 284 711 284 711 266.5 643 c 128,-1,62
 249 575 249 575 249 490 c 0,63,64
 249 402 249 402 267.5 333.5 c 128,-1,65
 286 265 286 265 320 218 c 128,-1,66
 354 171 354 171 402 146.5 c 128,-1,67
 450 122 450 122 510 122 c 0,68,69
 568 122 568 122 605 137 c 128,-1,70
 642 152 642 152 667 170 c 128,-1,71
 692 188 692 188 708.5 203 c 128,-1,72
 725 218 725 218 743 218 c 0,73,74
 763 218 763 218 775 201 c 2,75,-1
 826 137 l 1,76,77
 794 98 794 98 755 69.5 c 128,-1,78
 716 41 716 41 671 22.5 c 128,-1,79
 626 4 626 4 577.5 -5 c 128,-1,80
 529 -14 529 -14 479 -14 c 0,81,82
 393 -14 393 -14 318 20 c 128,-1,83
 243 54 243 54 187.5 118.5 c 128,-1,84
 132 183 132 183 100.5 276.5 c 128,-1,85
 69 370 69 370 69 490 c 0,86,87
 69 599 69 599 98 691.5 c 128,-1,88
 127 784 127 784 182.5 851 c 128,-1,89
 238 918 238 918 319.5 955.5 c 128,-1,90
 401 993 401 993 507 993 c 0,91,92
 548 993 548 993 584 987 c 1,93,94
 561 1032 561 1032 549 1079.5 c 128,-1,95
 537 1127 537 1127 537 1175 c 0,96,97
 537 1240 537 1240 559 1300 c 128,-1,98
 581 1360 581 1360 625.5 1406.5 c 128,-1,99
 670 1453 670 1453 736 1480.5 c 128,-1,100
 802 1508 802 1508 890 1508 c 0,101,102
 975 1508 975 1508 1036.5 1481.5 c 128,-1,103
 1098 1455 1098 1455 1137.5 1411 c 128,-1,104
 1177 1367 1177 1367 1196 1311 c 128,-1,105
 1215 1255 1215 1255 1215 1195 c 2,106,-1
 1215 960 l 1,0,-1
EndSplineSet
Validated: 1
Ligature2: "sous-table 'dlig' Ligatures facultatives  dans Latin lookup 36" c t
EndChar

StartChar: ccedilla_t.dlig
Encoding: 2126 -1 54
Width: 1537
GlyphClass: 3
Flags: MW
LayerCount: 2
Fore
SplineSet
1215 960 m 1,0,-1
 1479 960 l 1,1,-1
 1479 832 l 1,2,-1
 1215 832 l 1,3,-1
 1215 248 l 2,4,5
 1215 188 1215 188 1242 158 c 128,-1,6
 1269 128 1269 128 1312 128 c 0,7,8
 1337 128 1337 128 1355 135 c 128,-1,9
 1373 142 1373 142 1385.5 151 c 128,-1,10
 1398 160 1398 160 1407 167 c 128,-1,11
 1416 174 1416 174 1424 174 c 0,12,13
 1439 174 1439 174 1448 157 c 2,14,-1
 1501 73 l 1,15,16
 1457 31 1457 31 1397 8 c 128,-1,17
 1337 -15 1337 -15 1271 -15 c 0,18,19
 1160 -15 1160 -15 1099.5 50 c 128,-1,20
 1039 115 1039 115 1039 236 c 2,21,-1
 1039 832 l 1,22,-1
 931 832 l 2,23,24
 916 832 916 832 905.5 842 c 128,-1,25
 895 852 895 852 895 871 c 2,26,-1
 895 941 l 1,27,-1
 1052 962 l 1,28,29
 1059 991 1059 991 1067 1023.5 c 128,-1,30
 1075 1056 1075 1056 1081 1089 c 128,-1,31
 1087 1122 1087 1122 1091 1155 c 128,-1,32
 1095 1188 1095 1188 1095 1218 c 0,33,34
 1095 1264 1095 1264 1084 1303.5 c 128,-1,35
 1073 1343 1073 1343 1048 1372 c 128,-1,36
 1023 1401 1023 1401 984 1417 c 128,-1,37
 945 1433 945 1433 890 1433 c 0,38,39
 824 1433 824 1433 774 1411.5 c 128,-1,40
 724 1390 724 1390 690.5 1354.5 c 128,-1,41
 657 1319 657 1319 640 1272.5 c 128,-1,42
 623 1226 623 1226 623 1176 c 0,43,44
 623 1116 623 1116 648.5 1054.5 c 128,-1,45
 674 993 674 993 723 939 c 1,46,47
 749 924 749 924 771.5 905.5 c 128,-1,48
 794 887 794 887 815 866 c 1,49,-1
 769 802 l 2,50,51
 761 791 761 791 753.5 785.5 c 128,-1,52
 746 780 746 780 732 780 c 0,53,54
 717 780 717 780 701 792 c 128,-1,55
 685 804 685 804 661 818.5 c 128,-1,56
 637 833 637 833 602.5 845 c 128,-1,57
 568 857 568 857 518 857 c 0,58,59
 452 857 452 857 401.5 831.5 c 128,-1,60
 351 806 351 806 317.5 758.5 c 128,-1,61
 284 711 284 711 266.5 643 c 128,-1,62
 249 575 249 575 249 490 c 0,63,64
 249 402 249 402 267.5 333.5 c 128,-1,65
 286 265 286 265 320 218 c 128,-1,66
 354 171 354 171 402 146.5 c 128,-1,67
 450 122 450 122 510 122 c 0,68,69
 568 122 568 122 605 137 c 128,-1,70
 642 152 642 152 667 170 c 128,-1,71
 692 188 692 188 708.5 203 c 128,-1,72
 725 218 725 218 743 218 c 0,73,74
 763 218 763 218 775 201 c 2,75,-1
 826 137 l 1,76,77
 776 74 776 74 708 39 c 128,-1,78
 640 4 640 4 563 -7 c 1,79,-1
 545 -72 l 1,80,81
 635 -90 635 -90 674.5 -124 c 128,-1,82
 714 -158 714 -158 714 -210 c 0,83,84
 714 -241 714 -241 698.5 -266 c 128,-1,85
 683 -291 683 -291 655.5 -308 c 128,-1,86
 628 -325 628 -325 589 -334.5 c 128,-1,87
 550 -344 550 -344 504 -344 c 0,88,89
 465 -344 465 -344 429 -336 c 128,-1,90
 393 -328 393 -328 363 -314 c 1,91,-1
 380 -260 l 2,92,93
 386 -243 386 -243 402 -243 c 0,94,95
 408 -243 408 -243 415.5 -246.5 c 128,-1,96
 423 -250 423 -250 434 -254 c 128,-1,97
 445 -258 445 -258 459.5 -261.5 c 128,-1,98
 474 -265 474 -265 495 -265 c 0,99,100
 535 -265 535 -265 555.5 -249 c 128,-1,101
 576 -233 576 -233 576 -208 c 0,102,103
 576 -171 576 -171 535.5 -156.5 c 128,-1,104
 495 -142 495 -142 421 -132 c 1,105,-1
 460 -13 l 1,106,107
 377 -9 377 -9 305.5 26 c 128,-1,108
 234 61 234 61 181.5 125.5 c 128,-1,109
 129 190 129 190 99 281.5 c 128,-1,110
 69 373 69 373 69 490 c 0,111,112
 69 599 69 599 98 691.5 c 128,-1,113
 127 784 127 784 182.5 851 c 128,-1,114
 238 918 238 918 319.5 955.5 c 128,-1,115
 401 993 401 993 507 993 c 0,116,117
 548 993 548 993 584 987 c 1,118,119
 561 1032 561 1032 549 1079.5 c 128,-1,120
 537 1127 537 1127 537 1175 c 0,121,122
 537 1240 537 1240 559 1300 c 128,-1,123
 581 1360 581 1360 625.5 1406.5 c 128,-1,124
 670 1453 670 1453 736 1480.5 c 128,-1,125
 802 1508 802 1508 890 1508 c 0,126,127
 975 1508 975 1508 1036.5 1481.5 c 128,-1,128
 1098 1455 1098 1455 1137.5 1411 c 128,-1,129
 1177 1367 1177 1367 1196 1311 c 128,-1,130
 1215 1255 1215 1255 1215 1195 c 2,131,-1
 1215 960 l 1,0,-1
EndSplineSet
Validated: 1
Ligature2: "sous-table 'dlig' Ligatures facultatives  dans Latin lookup 36" ccedilla t
EndChar

StartChar: d
Encoding: 70 100 55
Width: 1076
GlyphClass: 2
Flags: MW
LayerCount: 2
Fore
SplineSet
827 0 m 2,0,1
 808 0 808 0 796 8.5 c 128,-1,2
 784 17 784 17 782 36 c 2,3,-1
 764 153 l 1,4,5
 702 78 702 78 623 32 c 128,-1,6
 544 -14 544 -14 440 -14 c 0,7,8
 357 -14 357 -14 289.5 18.5 c 128,-1,9
 222 51 222 51 174 114 c 128,-1,10
 126 177 126 177 100 270.5 c 128,-1,11
 74 364 74 364 74 486 c 0,12,13
 74 594 74 594 102.5 687.5 c 128,-1,14
 131 781 131 781 185 849 c 128,-1,15
 239 917 239 917 316.5 956 c 128,-1,16
 394 995 394 995 492 995 c 0,17,18
 581 995 581 995 644 965.5 c 128,-1,19
 707 936 707 936 756 881 c 1,20,-1
 756 1422 l 1,21,-1
 932 1422 l 1,22,-1
 932 0 l 1,23,-1
 827 0 l 2,0,1
497 127 m 0,24,25
 580 127 580 127 641.5 165.5 c 128,-1,26
 703 204 703 204 756 273 c 1,27,-1
 756 746 l 1,28,29
 709 809 709 809 654 834.5 c 128,-1,30
 599 860 599 860 532 860 c 0,31,32
 399 860 399 860 327 763 c 128,-1,33
 255 666 255 666 255 486 c 0,34,35
 255 391 255 391 271.5 323 c 128,-1,36
 288 255 288 255 319 211.5 c 128,-1,37
 350 168 350 168 395 147.5 c 128,-1,38
 440 127 440 127 497 127 c 0,24,25
EndSplineSet
Validated: 1
Substitution2: "sous-table 'ordn' Ordinaux dans Latin lookup 39" d.superior
Substitution2: "sous-table 'sups' Exposant lookups25" d.superior
EndChar

StartChar: dcroat
Encoding: 208 273 57
Width: 1130
GlyphClass: 2
Flags: MW
LayerCount: 2
Fore
SplineSet
561 1214 m 1,0,-1
 800 1214 l 1,1,-1
 800 1422 l 1,2,-1
 976 1422 l 1,3,-1
 976 1214 l 1,4,-1
 1126 1214 l 1,5,-1
 1126 1102 l 1,6,-1
 976 1102 l 1,7,-1
 976 0 l 1,8,-1
 871 0 l 2,9,10
 852 0 852 0 840 8.5 c 128,-1,11
 828 17 828 17 826 36 c 2,12,-1
 808 155 l 1,13,14
 743 79 743 79 659 32.5 c 128,-1,15
 575 -14 575 -14 466 -14 c 0,16,17
 377 -14 377 -14 305.5 16.5 c 128,-1,18
 234 47 234 47 184 108.5 c 128,-1,19
 134 170 134 170 106.5 261.5 c 128,-1,20
 79 353 79 353 79 475 c 0,21,22
 79 583 79 583 109 674.5 c 128,-1,23
 139 766 139 766 196 832.5 c 128,-1,24
 253 899 253 899 334.5 936.5 c 128,-1,25
 416 974 416 974 519 974 c 0,26,27
 613 974 613 974 680.5 943.5 c 128,-1,28
 748 913 748 913 800 857 c 1,29,-1
 800 1102 l 1,30,-1
 561 1102 l 1,31,-1
 561 1214 l 1,0,-1
522 127 m 0,32,33
 610 127 610 127 676.5 165.5 c 128,-1,34
 743 204 743 204 800 275 c 1,35,-1
 800 723 l 1,36,37
 750 786 750 786 690.5 812 c 128,-1,38
 631 838 631 838 559 838 c 0,39,40
 415 838 415 838 337.5 746.5 c 128,-1,41
 260 655 260 655 260 475 c 0,42,43
 260 380 260 380 277.5 313.5 c 128,-1,44
 295 247 295 247 329 205.5 c 128,-1,45
 363 164 363 164 411.5 145.5 c 128,-1,46
 460 127 460 127 522 127 c 0,32,33
EndSplineSet
Validated: 1
EndChar

StartChar: eth
Encoding: 175 240 58
Width: 1076
GlyphClass: 2
Flags: MW
LayerCount: 2
Fore
SplineSet
402 1028 m 2,0,1
 391 1046 391 1046 395 1062 c 128,-1,2
 399 1078 399 1078 416 1090 c 2,3,-1
 515 1157 l 1,4,5
 472 1177 472 1177 424 1192.5 c 128,-1,6
 376 1208 376 1208 322 1222 c 0,7,8
 299 1227 299 1227 285.5 1248.5 c 128,-1,9
 272 1270 272 1270 284 1305 c 2,10,-1
 305 1366 l 1,11,12
 398 1351 398 1351 485 1322 c 128,-1,13
 572 1293 572 1293 650 1246 c 1,14,-1
 811 1363 l 1,15,-1
 846 1307 l 2,16,17
 857 1290 857 1290 852.5 1274 c 128,-1,18
 848 1258 848 1258 832 1247 c 2,19,-1
 739 1184 l 1,20,21
 797 1137 797 1137 844.5 1076.5 c 128,-1,22
 892 1016 892 1016 926 941.5 c 128,-1,23
 960 867 960 867 978.5 777.5 c 128,-1,24
 997 688 997 688 997 583 c 0,25,26
 997 445 997 445 967 334.5 c 128,-1,27
 937 224 937 224 877.5 147 c 128,-1,28
 818 70 818 70 729.5 28.5 c 128,-1,29
 641 -13 641 -13 525 -13 c 0,30,31
 430 -13 430 -13 348 18.5 c 128,-1,32
 266 50 266 50 205 110 c 128,-1,33
 144 170 144 170 109.5 256 c 128,-1,34
 75 342 75 342 75 450 c 0,35,36
 75 540 75 540 105 621 c 128,-1,37
 135 702 135 702 191 763 c 128,-1,38
 247 824 247 824 327 859.5 c 128,-1,39
 407 895 407 895 507 895 c 0,40,41
 604 895 604 895 688.5 854 c 128,-1,42
 773 813 773 813 835 731 c 1,43,44
 815 861 815 861 760 951 c 128,-1,45
 705 1041 705 1041 613 1103 c 1,46,-1
 436 973 l 1,47,-1
 402 1028 l 2,0,1
529 123 m 0,48,49
 665 123 665 123 745.5 226.5 c 128,-1,50
 826 330 826 330 832 542 c 1,51,52
 817 584 817 584 792 623 c 128,-1,53
 767 662 767 662 731 692.5 c 128,-1,54
 695 723 695 723 648 741 c 128,-1,55
 601 759 601 759 541 759 c 0,56,57
 469 759 469 759 415 735 c 128,-1,58
 361 711 361 711 324 669 c 128,-1,59
 287 627 287 627 268.5 570.5 c 128,-1,60
 250 514 250 514 250 449 c 0,61,62
 250 371 250 371 272 310 c 128,-1,63
 294 249 294 249 332 207.5 c 128,-1,64
 370 166 370 166 421 144.5 c 128,-1,65
 472 123 472 123 529 123 c 0,48,49
EndSplineSet
Validated: 1
EndChar

StartChar: e
Encoding: 71 101 59
Width: 1019
GlyphClass: 2
Flags: MW
LayerCount: 2
Fore
SplineSet
535 993 m 0,0,1
 623 993 623 993 698 964 c 128,-1,2
 773 935 773 935 828 879 c 128,-1,3
 883 823 883 823 914 742 c 128,-1,4
 945 661 945 661 945 556 c 0,5,6
 945 515 945 515 936 501.5 c 128,-1,7
 927 488 927 488 903 488 c 2,8,-1
 249 488 l 1,9,10
 251 396 251 396 274 327.5 c 128,-1,11
 297 259 297 259 337.5 214 c 128,-1,12
 378 169 378 169 434 146.5 c 128,-1,13
 490 124 490 124 559 124 c 0,14,15
 623 124 623 124 670 138.5 c 128,-1,16
 717 153 717 153 750.5 171 c 128,-1,17
 784 189 784 189 807 203.5 c 128,-1,18
 830 218 830 218 847 218 c 0,19,20
 858 218 858 218 866 213.5 c 128,-1,21
 874 209 874 209 880 201 c 2,22,-1
 930 137 l 1,23,24
 897 98 897 98 852.5 69.5 c 128,-1,25
 808 41 808 41 757 22.5 c 128,-1,26
 706 4 706 4 651.5 -5 c 128,-1,27
 597 -14 597 -14 544 -14 c 0,28,29
 442 -14 442 -14 356 20 c 128,-1,30
 270 54 270 54 207.5 120.5 c 128,-1,31
 145 187 145 187 110 284.5 c 128,-1,32
 75 382 75 382 75 509 c 0,33,34
 75 611 75 611 106.5 699.5 c 128,-1,35
 138 788 138 788 197.5 853.5 c 128,-1,36
 257 919 257 919 342.5 956 c 128,-1,37
 428 993 428 993 535 993 c 0,0,1
538 865 m 0,38,39
 415 865 415 865 343.5 793 c 128,-1,40
 272 721 272 721 254 596 c 1,41,-1
 787 596 l 1,42,43
 787 655 787 655 770 704.5 c 128,-1,44
 753 754 753 754 721 789.5 c 128,-1,45
 689 825 689 825 642.5 845 c 128,-1,46
 596 865 596 865 538 865 c 0,38,39
EndSplineSet
Validated: 1
Substitution2: "sous-table 'ordn' Ordinaux dans Latin lookup 39" e.superior
Substitution2: "sous-table 'sups' Exposant lookups25" e.superior
EndChar

StartChar: eogonek
Encoding: 216 281 60
Width: 1019
GlyphClass: 2
Flags: MW
LayerCount: 2
Fore
SplineSet
752 -203 m 0,0,1
 765 -203 765 -203 770 -215 c 2,2,-1
 797 -280 l 1,3,4
 768 -302 768 -302 723.5 -316 c 128,-1,5
 679 -330 679 -330 629 -330 c 0,6,7
 544 -330 544 -330 495.5 -292 c 128,-1,8
 447 -254 447 -254 447 -190 c 0,9,10
 447 -139 447 -139 478 -94 c 128,-1,11
 509 -49 509 -49 560 -14 c 1,12,-1
 544 -14 l 2,13,14
 442 -14 442 -14 356 20 c 128,-1,15
 270 54 270 54 207.5 120.5 c 128,-1,16
 145 187 145 187 110 284.5 c 128,-1,17
 75 382 75 382 75 509 c 0,18,19
 75 611 75 611 106.5 699.5 c 128,-1,20
 138 788 138 788 197.5 853.5 c 128,-1,21
 257 919 257 919 342.5 956 c 128,-1,22
 428 993 428 993 535 993 c 0,23,24
 623 993 623 993 698 964 c 128,-1,25
 773 935 773 935 828 879 c 128,-1,26
 883 823 883 823 914 742 c 128,-1,27
 945 661 945 661 945 556 c 0,28,29
 945 515 945 515 936 501.5 c 128,-1,30
 927 488 927 488 903 488 c 2,31,-1
 249 488 l 1,32,33
 251 396 251 396 274 327.5 c 128,-1,34
 297 259 297 259 337.5 214 c 128,-1,35
 378 169 378 169 434 146.5 c 128,-1,36
 490 124 490 124 559 124 c 0,37,38
 623 124 623 124 670 138.5 c 128,-1,39
 717 153 717 153 750.5 171 c 128,-1,40
 784 189 784 189 807 203.5 c 128,-1,41
 830 218 830 218 847 218 c 0,42,43
 858 218 858 218 866 213.5 c 128,-1,44
 874 209 874 209 880 201 c 2,45,-1
 930 137 l 1,46,47
 885 84 885 84 820 50.5 c 128,-1,48
 755 17 755 17 683 1 c 1,49,-1
 691 0 l 1,50,51
 672 -11 672 -11 652.5 -25.5 c 128,-1,52
 633 -40 633 -40 616.5 -59 c 128,-1,53
 600 -78 600 -78 589.5 -100 c 128,-1,54
 579 -122 579 -122 579 -147 c 0,55,56
 579 -183 579 -183 603 -204 c 128,-1,57
 627 -225 627 -225 665 -225 c 0,58,59
 687 -225 687 -225 701 -221.5 c 128,-1,60
 715 -218 715 -218 725 -214 c 128,-1,61
 735 -210 735 -210 741 -206.5 c 128,-1,62
 747 -203 747 -203 752 -203 c 0,0,1
538 865 m 0,63,64
 415 865 415 865 343.5 793 c 128,-1,65
 272 721 272 721 254 596 c 1,66,-1
 787 596 l 1,67,68
 787 655 787 655 770 704.5 c 128,-1,69
 753 754 753 754 721 789.5 c 128,-1,70
 689 825 689 825 642.5 845 c 128,-1,71
 596 865 596 865 538 865 c 0,63,64
EndSplineSet
Validated: 1
EndChar

StartChar: f
Encoding: 72 102 61
Width: 625
GlyphClass: 2
Flags: MW
LayerCount: 2
Fore
SplineSet
170 0 m 1,0,-1
 170 831 l 1,1,-1
 71 844 l 2,2,3
 50 846 50 846 37 857 c 128,-1,4
 24 868 24 868 24 888 c 2,5,-1
 24 960 l 1,6,-1
 170 960 l 1,7,-1
 170 1053 l 2,8,9
 170 1137 170 1137 192.5 1202.5 c 128,-1,10
 215 1268 215 1268 257 1312.5 c 128,-1,11
 299 1357 299 1357 359 1380.5 c 128,-1,12
 419 1404 419 1404 494 1404 c 0,13,14
 525 1404 525 1404 554.5 1399 c 128,-1,15
 584 1394 584 1394 611 1386 c 1,16,-1
 606 1297 l 2,17,18
 604 1274 604 1274 582 1271.5 c 128,-1,19
 560 1269 560 1269 523 1269 c 0,20,21
 481 1269 481 1269 447.5 1258 c 128,-1,22
 414 1247 414 1247 390 1221 c 128,-1,23
 366 1195 366 1195 353 1152.5 c 128,-1,24
 340 1110 340 1110 340 1048 c 2,25,-1
 340 960 l 1,26,-1
 603 960 l 1,27,-1
 603 832 l 1,28,-1
 346 832 l 1,29,-1
 346 0 l 1,30,-1
 170 0 l 1,0,-1
EndSplineSet
Validated: 1
Substitution2: "sous-table 'ordn' Ordinaux dans Latin lookup 39" f.superior
Substitution2: "sous-table 'sups' Exposant lookups25" f.superior
EndChar

StartChar: f_b.liga
Encoding: 2127 -1 62
Width: 1690
GlyphClass: 3
Flags: MW
LayerCount: 2
Fore
SplineSet
771 0 m 1,0,-1
 771 1301 l 1,1,2
 733 1312 733 1312 691 1319 c 128,-1,3
 649 1326 649 1326 612 1326 c 0,4,5
 543 1326 543 1326 492.5 1304.5 c 128,-1,6
 442 1283 442 1283 409 1244.5 c 128,-1,7
 376 1206 376 1206 360 1153.5 c 128,-1,8
 344 1101 344 1101 344 1038 c 2,9,-1
 344 960 l 1,10,-1
 614 960 l 1,11,-1
 614 832 l 1,12,-1
 350 832 l 1,13,-1
 350 0 l 1,14,-1
 174 0 l 1,15,-1
 174 831 l 1,16,-1
 72 844 l 2,17,18
 51 846 51 846 38 857 c 128,-1,19
 25 868 25 868 25 888 c 2,20,-1
 25 960 l 1,21,-1
 174 960 l 1,22,-1
 174 1038 l 2,23,24
 174 1126 174 1126 198.5 1200 c 128,-1,25
 223 1274 223 1274 277 1328 c 128,-1,26
 331 1382 331 1382 416 1412 c 128,-1,27
 501 1442 501 1442 622 1442 c 0,28,29
 661 1442 661 1442 697 1439 c 128,-1,30
 733 1436 733 1436 769.5 1432.5 c 128,-1,31
 806 1429 806 1429 845.5 1426 c 128,-1,32
 885 1423 885 1423 932 1422 c 2,33,-1
 947 1422 l 1,34,-1
 952 1422 l 1,35,-1
 947 1418 l 1,36,-1
 947 839 l 1,37,38
 1007 910 1007 910 1084 951.5 c 128,-1,39
 1161 993 1161 993 1261 993 c 0,40,41
 1346 993 1346 993 1414 960 c 128,-1,42
 1482 927 1482 927 1530 865 c 128,-1,43
 1578 803 1578 803 1603.5 714.5 c 128,-1,44
 1629 626 1629 626 1629 514 c 0,45,46
 1629 395 1629 395 1600 298 c 128,-1,47
 1571 201 1571 201 1517 131.5 c 128,-1,48
 1463 62 1463 62 1386 24 c 128,-1,49
 1309 -14 1309 -14 1213 -14 c 256,50,51
 1117 -14 1117 -14 1052.5 22.5 c 128,-1,52
 988 59 988 59 938 124 c 1,53,-1
 928 37 l 2,54,55
 924 0 924 0 885 0 c 2,56,-1
 771 0 l 1,0,-1
1202 854 m 0,57,58
 1121 854 1121 854 1059.5 816 c 128,-1,59
 998 778 998 778 947 708 c 1,60,-1
 947 236 l 1,61,62
 993 173 993 173 1048 147.5 c 128,-1,63
 1103 122 1103 122 1169 122 c 0,64,65
 1304 122 1304 122 1376 219 c 128,-1,66
 1448 316 1448 316 1448 508 c 0,67,68
 1448 686 1448 686 1384 770 c 128,-1,69
 1320 854 1320 854 1202 854 c 0,57,58
EndSplineSet
Validated: 1
Ligature2: "sous-table 'liga' Ligatures standard dans Latin lookup 37" f b
EndChar

StartChar: f_f_b.liga
Encoding: 2128 -1 63
Width: 2261
GlyphClass: 3
Flags: MW
LayerCount: 2
Fore
SplineSet
172 0 m 1,0,-1
 172 831 l 1,1,-1
 71 844 l 2,2,3
 50 846 50 846 37.5 857 c 128,-1,4
 25 868 25 868 25 888 c 2,5,-1
 25 960 l 1,6,-1
 172 960 l 1,7,-1
 172 1038 l 2,8,9
 172 1122 172 1122 195 1187.5 c 128,-1,10
 218 1253 218 1253 260.5 1297.5 c 128,-1,11
 303 1342 303 1342 363.5 1365.5 c 128,-1,12
 424 1389 424 1389 499 1389 c 0,13,14
 531 1389 531 1389 560.5 1384 c 128,-1,15
 590 1379 590 1379 617 1370 c 1,16,-1
 612 1282 l 2,17,18
 610 1259 610 1259 588 1256.5 c 128,-1,19
 566 1254 566 1254 528 1254 c 0,20,21
 486 1254 486 1254 451.5 1243 c 128,-1,22
 417 1232 417 1232 392.5 1206 c 128,-1,23
 368 1180 368 1180 355 1137.5 c 128,-1,24
 342 1095 342 1095 342 1033 c 2,25,-1
 342 960 l 1,26,-1
 758 960 l 1,27,-1
 758 1038 l 2,28,29
 758 1126 758 1126 782.5 1200 c 128,-1,30
 807 1274 807 1274 860.5 1328 c 128,-1,31
 914 1382 914 1382 999 1412 c 128,-1,32
 1084 1442 1084 1442 1204 1442 c 0,33,34
 1245 1442 1245 1442 1282.5 1439 c 128,-1,35
 1320 1436 1320 1436 1358 1432 c 128,-1,36
 1396 1428 1396 1428 1438 1425 c 128,-1,37
 1480 1422 1480 1422 1530 1422 c 1,38,-1
 1522 1415 l 1,39,-1
 1522 839 l 1,40,41
 1582 910 1582 910 1659 951.5 c 128,-1,42
 1736 993 1736 993 1836 993 c 0,43,44
 1921 993 1921 993 1989 960 c 128,-1,45
 2057 927 2057 927 2105 865 c 128,-1,46
 2153 803 2153 803 2178.5 714.5 c 128,-1,47
 2204 626 2204 626 2204 514 c 0,48,49
 2204 395 2204 395 2175 298 c 128,-1,50
 2146 201 2146 201 2092 131.5 c 128,-1,51
 2038 62 2038 62 1961 24 c 128,-1,52
 1884 -14 1884 -14 1788 -14 c 256,53,54
 1692 -14 1692 -14 1627.5 22.5 c 128,-1,55
 1563 59 1563 59 1513 124 c 1,56,-1
 1503 37 l 2,57,58
 1499 0 1499 0 1460 0 c 2,59,-1
 1346 0 l 1,60,-1
 1346 1303 l 1,61,62
 1309 1313 1309 1313 1269 1319.5 c 128,-1,63
 1229 1326 1229 1326 1194 1326 c 0,64,65
 1125 1326 1125 1326 1075 1304.5 c 128,-1,66
 1025 1283 1025 1283 992.5 1244.5 c 128,-1,67
 960 1206 960 1206 944 1153.5 c 128,-1,68
 928 1101 928 1101 928 1038 c 2,69,-1
 928 960 l 1,70,-1
 1194 960 l 1,71,-1
 1194 832 l 1,72,-1
 934 832 l 1,73,-1
 934 0 l 1,74,-1
 758 0 l 1,75,-1
 758 832 l 1,76,-1
 348 832 l 1,77,-1
 348 0 l 1,78,-1
 172 0 l 1,0,-1
1777 854 m 0,79,80
 1696 854 1696 854 1634.5 816 c 128,-1,81
 1573 778 1573 778 1522 708 c 1,82,-1
 1522 236 l 1,83,84
 1568 173 1568 173 1623 147.5 c 128,-1,85
 1678 122 1678 122 1744 122 c 0,86,87
 1879 122 1879 122 1951 219 c 128,-1,88
 2023 316 2023 316 2023 508 c 0,89,90
 2023 686 2023 686 1959 770 c 128,-1,91
 1895 854 1895 854 1777 854 c 0,79,80
EndSplineSet
Validated: 1
Ligature2: "sous-table 'liga' Ligatures standard dans Latin lookup 37" f f b
EndChar

StartChar: uniFB00
Encoding: 2111 64256 64
Width: 1195
GlyphClass: 3
Flags: MW
LayerCount: 2
Fore
SplineSet
168 0 m 1,0,-1
 168 831 l 1,1,-1
 71 844 l 2,2,3
 50 846 50 846 37 857 c 128,-1,4
 24 868 24 868 24 888 c 2,5,-1
 24 960 l 1,6,-1
 168 960 l 1,7,-1
 168 1038 l 2,8,9
 168 1122 168 1122 190.5 1187.5 c 128,-1,10
 213 1253 213 1253 255 1297.5 c 128,-1,11
 297 1342 297 1342 356.5 1365.5 c 128,-1,12
 416 1389 416 1389 490 1389 c 0,13,14
 521 1389 521 1389 550 1384 c 128,-1,15
 579 1379 579 1379 606 1370 c 1,16,-1
 601 1282 l 2,17,18
 599 1259 599 1259 577.5 1256.5 c 128,-1,19
 556 1254 556 1254 520 1254 c 0,20,21
 479 1254 479 1254 445.5 1243 c 128,-1,22
 412 1232 412 1232 388 1206 c 128,-1,23
 364 1180 364 1180 351 1137.5 c 128,-1,24
 338 1095 338 1095 338 1033 c 2,25,-1
 338 960 l 1,26,-1
 744 960 l 1,27,-1
 744 1064 l 2,28,29
 744 1148 744 1148 766.5 1213 c 128,-1,30
 789 1278 789 1278 831 1323 c 128,-1,31
 873 1368 873 1368 932.5 1391.5 c 128,-1,32
 992 1415 992 1415 1066 1415 c 0,33,34
 1127 1415 1127 1415 1182 1395 c 1,35,-1
 1177 1308 l 2,36,37
 1175 1285 1175 1285 1153 1282.5 c 128,-1,38
 1131 1280 1131 1280 1095 1280 c 0,39,40
 1054 1280 1054 1280 1020.5 1269 c 128,-1,41
 987 1258 987 1258 963.5 1232 c 128,-1,42
 940 1206 940 1206 927 1163.5 c 128,-1,43
 914 1121 914 1121 914 1058 c 2,44,-1
 914 960 l 1,45,-1
 1173 960 l 1,46,-1
 1173 832 l 1,47,-1
 920 832 l 1,48,-1
 920 0 l 1,49,-1
 744 0 l 1,50,-1
 744 832 l 1,51,-1
 344 832 l 1,52,-1
 344 0 l 1,53,-1
 168 0 l 1,0,-1
EndSplineSet
Validated: 1
Ligature2: "sous-table 'liga' Ligatures standard dans Latin lookup 37" f f
EndChar

StartChar: f_h.liga
Encoding: 2129 -1 65
Width: 1691
GlyphClass: 3
Flags: MW
LayerCount: 2
Fore
SplineSet
758 0 m 1,0,-1
 758 1305 l 1,1,2
 722 1314 722 1314 684.5 1320 c 128,-1,3
 647 1326 647 1326 612 1326 c 0,4,5
 543 1326 543 1326 492 1304.5 c 128,-1,6
 441 1283 441 1283 408 1244.5 c 128,-1,7
 375 1206 375 1206 359 1153.5 c 128,-1,8
 343 1101 343 1101 343 1038 c 2,9,-1
 343 960 l 1,10,-1
 613 960 l 1,11,-1
 613 832 l 1,12,-1
 349 832 l 1,13,-1
 349 0 l 1,14,-1
 173 0 l 1,15,-1
 173 831 l 1,16,-1
 72 844 l 2,17,18
 51 846 51 846 38 857 c 128,-1,19
 25 868 25 868 25 888 c 2,20,-1
 25 960 l 1,21,-1
 173 960 l 1,22,-1
 173 1038 l 2,23,24
 173 1126 173 1126 197.5 1200 c 128,-1,25
 222 1274 222 1274 276 1328 c 128,-1,26
 330 1382 330 1382 415.5 1412 c 128,-1,27
 501 1442 501 1442 622 1442 c 0,28,29
 661 1442 661 1442 697 1439 c 128,-1,30
 733 1436 733 1436 769 1432.5 c 128,-1,31
 805 1429 805 1429 844.5 1426 c 128,-1,32
 884 1423 884 1423 931 1422 c 2,33,-1
 934 1422 l 1,34,-1
 951 1422 l 1,35,-1
 934 1409 l 1,36,-1
 934 849 l 1,37,38
 995 915 995 915 1069.5 954 c 128,-1,39
 1144 993 1144 993 1242 993 c 0,40,41
 1322 993 1322 993 1382.5 966.5 c 128,-1,42
 1443 940 1443 940 1484 891.5 c 128,-1,43
 1525 843 1525 843 1545.5 774.5 c 128,-1,44
 1566 706 1566 706 1566 623 c 2,45,-1
 1566 0 l 1,46,-1
 1390 0 l 1,47,-1
 1390 623 l 2,48,49
 1390 732 1390 732 1341 793 c 128,-1,50
 1292 854 1292 854 1191 854 c 0,51,52
 1116 854 1116 854 1052 818 c 128,-1,53
 988 782 988 782 934 719 c 1,54,-1
 934 0 l 1,55,-1
 758 0 l 1,0,-1
EndSplineSet
Validated: 1
Ligature2: "sous-table 'liga' Ligatures standard dans Latin lookup 37" f h
EndChar

StartChar: f_f_h.liga
Encoding: 2130 -1 66
Width: 2261
GlyphClass: 3
Flags: MW
LayerCount: 2
Fore
SplineSet
172 0 m 1,0,-1
 172 831 l 1,1,-1
 71 844 l 2,2,3
 50 846 50 846 37.5 857 c 128,-1,4
 25 868 25 868 25 888 c 2,5,-1
 25 960 l 1,6,-1
 172 960 l 1,7,-1
 172 1038 l 2,8,9
 172 1122 172 1122 195 1187.5 c 128,-1,10
 218 1253 218 1253 260.5 1297.5 c 128,-1,11
 303 1342 303 1342 363.5 1365.5 c 128,-1,12
 424 1389 424 1389 499 1389 c 0,13,14
 531 1389 531 1389 560.5 1384 c 128,-1,15
 590 1379 590 1379 617 1370 c 1,16,-1
 612 1282 l 2,17,18
 610 1259 610 1259 588 1256.5 c 128,-1,19
 566 1254 566 1254 528 1254 c 0,20,21
 486 1254 486 1254 451.5 1243 c 128,-1,22
 417 1232 417 1232 392.5 1206 c 128,-1,23
 368 1180 368 1180 355 1137.5 c 128,-1,24
 342 1095 342 1095 342 1033 c 2,25,-1
 342 960 l 1,26,-1
 758 960 l 1,27,-1
 758 1038 l 2,28,29
 758 1126 758 1126 782.5 1200 c 128,-1,30
 807 1274 807 1274 860.5 1328 c 128,-1,31
 914 1382 914 1382 999 1412 c 128,-1,32
 1084 1442 1084 1442 1204 1442 c 0,33,34
 1245 1442 1245 1442 1282.5 1439 c 128,-1,35
 1320 1436 1320 1436 1358 1432 c 128,-1,36
 1396 1428 1396 1428 1438 1425 c 128,-1,37
 1480 1422 1480 1422 1530 1422 c 1,38,-1
 1522 1415 l 1,39,-1
 1522 849 l 1,40,41
 1583 915 1583 915 1657.5 954 c 128,-1,42
 1732 993 1732 993 1830 993 c 0,43,44
 1910 993 1910 993 1970.5 966.5 c 128,-1,45
 2031 940 2031 940 2072 891.5 c 128,-1,46
 2113 843 2113 843 2133.5 774.5 c 128,-1,47
 2154 706 2154 706 2154 623 c 2,48,-1
 2154 0 l 1,49,-1
 1978 0 l 1,50,-1
 1978 623 l 2,51,52
 1978 732 1978 732 1929 793 c 128,-1,53
 1880 854 1880 854 1779 854 c 0,54,55
 1704 854 1704 854 1640 818 c 128,-1,56
 1576 782 1576 782 1522 719 c 1,57,-1
 1522 0 l 1,58,-1
 1346 0 l 1,59,-1
 1346 1303 l 1,60,61
 1309 1313 1309 1313 1269 1319.5 c 128,-1,62
 1229 1326 1229 1326 1194 1326 c 0,63,64
 1125 1326 1125 1326 1075 1304.5 c 128,-1,65
 1025 1283 1025 1283 992.5 1244.5 c 128,-1,66
 960 1206 960 1206 944 1153.5 c 128,-1,67
 928 1101 928 1101 928 1038 c 2,68,-1
 928 960 l 1,69,-1
 1194 960 l 1,70,-1
 1194 832 l 1,71,-1
 934 832 l 1,72,-1
 934 0 l 1,73,-1
 758 0 l 1,74,-1
 758 832 l 1,75,-1
 348 832 l 1,76,-1
 348 0 l 1,77,-1
 172 0 l 1,0,-1
EndSplineSet
Validated: 1
Ligature2: "sous-table 'liga' Ligatures standard dans Latin lookup 37" f f h
EndChar

StartChar: f_igrave.liga
Encoding: 2131 -1 68
Width: 1084
GlyphClass: 3
Flags: MW
LayerCount: 2
Fore
SplineSet
526 1306 m 2,0,1
 526 1291 526 1291 512 1287 c 128,-1,2
 498 1283 498 1283 474 1283 c 0,3,4
 408 1283 408 1283 376.5 1237.5 c 128,-1,5
 345 1192 345 1192 345 1088 c 2,6,-1
 345 960 l 1,7,-1
 926 960 l 1,8,-1
 926 0 l 1,9,-1
 750 0 l 1,10,-1
 750 832 l 1,11,-1
 351 832 l 1,12,-1
 351 0 l 1,13,-1
 175 0 l 1,14,-1
 175 831 l 1,15,-1
 71 844 l 2,16,17
 49 847 49 847 37 857 c 0,18,19
 24 868 24 868 24 888 c 2,20,-1
 24 960 l 1,21,-1
 175 960 l 1,22,-1
 175 1087 l 2,23,24
 175 1247 175 1247 247 1329.5 c 128,-1,25
 319 1412 319 1412 449 1412 c 0,26,27
 472 1412 472 1412 490.5 1410 c 128,-1,28
 509 1408 509 1408 526 1402 c 1,29,-1
 526 1400 l 1,30,-1
 692 1399 l 2,31,32
 724 1399 724 1399 740 1388 c 0,33,34
 755 1379 755 1379 769 1356 c 2,35,-1
 912 1123 l 1,36,-1
 812 1123 l 2,37,38
 792 1123 792 1123 779 1129 c 128,-1,39
 766 1135 766 1135 752 1150 c 2,40,-1
 526 1399 l 1,41,-1
 526 1306 l 2,0,1
EndSplineSet
Validated: 1
LCarets2: 1 0
Ligature2: "sous-table 'liga' Ligatures standard dans Latin lookup 37" f igrave
EndChar

StartChar: f_icircumflex.liga
Encoding: 2132 -1 69
Width: 1084
GlyphClass: 3
Flags: MW
LayerCount: 2
Fore
SplineSet
175 0 m 1,0,-1
 175 831 l 1,1,-1
 71 844 l 2,2,3
 50 846 50 846 37 857 c 128,-1,4
 24 868 24 868 24 888 c 2,5,-1
 24 960 l 1,6,-1
 175 960 l 1,7,-1
 175 1087 l 2,8,9
 175 1247 175 1247 247 1329.5 c 128,-1,10
 319 1412 319 1412 449 1412 c 0,11,12
 472 1412 472 1412 490.5 1410 c 128,-1,13
 509 1408 509 1408 526 1402 c 1,14,-1
 526 1306 l 2,15,16
 526 1291 526 1291 512 1287 c 128,-1,17
 498 1283 498 1283 474 1283 c 0,18,19
 408 1283 408 1283 376.5 1237.5 c 128,-1,20
 345 1192 345 1192 345 1088 c 2,21,-1
 345 960 l 1,22,-1
 926 960 l 1,23,-1
 926 0 l 1,24,-1
 750 0 l 1,25,-1
 750 832 l 1,26,-1
 351 832 l 1,27,-1
 351 0 l 1,28,-1
 175 0 l 1,0,-1
1142 1128 m 1,29,-1
 1024 1128 l 2,30,31
 1013 1128 1013 1128 1002 1132 c 128,-1,32
 991 1136 991 1136 980 1147 c 2,33,-1
 862 1272 l 2,34,35
 857 1276 857 1276 853.5 1281 c 128,-1,36
 850 1286 850 1286 845 1291 c 1,37,38
 837 1280 837 1280 830 1273 c 2,39,-1
 711 1147 l 2,40,41
 693 1128 693 1128 667 1128 c 2,42,-1
 545 1128 l 1,43,-1
 762 1383 l 1,44,-1
 924 1383 l 1,45,-1
 1142 1128 l 1,29,-1
EndSplineSet
Validated: 1
Ligature2: "sous-table 'liga' Ligatures standard dans Latin lookup 37" f icircumflex
EndChar

StartChar: f_imacron.liga
Encoding: 2135 -1 72
Width: 1103
GlyphClass: 3
Flags: MW
LayerCount: 2
Fore
SplineSet
155 0 m 1,0,-1
 155 831 l 1,1,-1
 51 844 l 2,2,3
 30 846 30 846 17 857 c 128,-1,4
 4 868 4 868 4 888 c 2,5,-1
 4 960 l 1,6,-1
 155 960 l 1,7,-1
 155 1087 l 2,8,9
 155 1247 155 1247 227 1329.5 c 128,-1,10
 299 1412 299 1412 429 1412 c 0,11,12
 452 1412 452 1412 470.5 1410 c 128,-1,13
 489 1408 489 1408 506 1402 c 1,14,-1
 506 1306 l 2,15,16
 506 1291 506 1291 492 1287 c 128,-1,17
 478 1283 478 1283 454 1283 c 0,18,19
 388 1283 388 1283 356.5 1237.5 c 128,-1,20
 325 1192 325 1192 325 1088 c 2,21,-1
 325 960 l 1,22,-1
 906 960 l 1,23,-1
 906 0 l 1,24,-1
 730 0 l 1,25,-1
 730 832 l 1,26,-1
 331 832 l 1,27,-1
 331 0 l 1,28,-1
 155 0 l 1,0,-1
536 1301 m 1,29,-1
 1091 1301 l 1,30,-1
 1091 1187 l 1,31,-1
 536 1187 l 1,32,-1
 536 1301 l 1,29,-1
EndSplineSet
Validated: 1
Ligature2: "sous-table 'liga' Ligatures standard dans Latin lookup 37" f imacron
EndChar

StartChar: f_dotlessi.liga
Encoding: 2138 -1 75
Width: 1084
GlyphClass: 3
Flags: MW
LayerCount: 2
Fore
SplineSet
175 0 m 1,0,-1
 175 831 l 1,1,-1
 71 844 l 2,2,3
 50 846 50 846 37 857 c 128,-1,4
 24 868 24 868 24 888 c 2,5,-1
 24 960 l 1,6,-1
 175 960 l 1,7,-1
 175 1087 l 2,8,9
 175 1247 175 1247 247 1329.5 c 128,-1,10
 319 1412 319 1412 449 1412 c 0,11,12
 472 1412 472 1412 490.5 1410 c 128,-1,13
 509 1408 509 1408 526 1402 c 1,14,-1
 526 1306 l 2,15,16
 526 1291 526 1291 512 1287 c 128,-1,17
 498 1283 498 1283 474 1283 c 0,18,19
 408 1283 408 1283 376.5 1237.5 c 128,-1,20
 345 1192 345 1192 345 1088 c 2,21,-1
 345 960 l 1,22,-1
 926 960 l 1,23,-1
 926 0 l 1,24,-1
 750 0 l 1,25,-1
 750 832 l 1,26,-1
 351 832 l 1,27,-1
 351 0 l 1,28,-1
 175 0 l 1,0,-1
EndSplineSet
Validated: 1
Ligature2: "sous-table 'liga' Ligatures standard dans Latin lookup 37" f dotlessi
EndChar

StartChar: f_f_igrave.liga
Encoding: 2139 -1 77
Width: 1654
GlyphClass: 3
Flags: MW
LayerCount: 2
Fore
SplineSet
171 0 m 1,0,-1
 171 831 l 1,1,-1
 71 844 l 2,2,3
 50 846 50 846 37 857 c 128,-1,4
 24 868 24 868 24 888 c 2,5,-1
 24 960 l 1,6,-1
 171 960 l 1,7,-1
 171 1038 l 2,8,9
 171 1122 171 1122 194 1187.5 c 128,-1,10
 217 1253 217 1253 259.5 1297.5 c 128,-1,11
 302 1342 302 1342 363 1365.5 c 128,-1,12
 424 1389 424 1389 499 1389 c 0,13,14
 530 1389 530 1389 560 1384 c 128,-1,15
 590 1379 590 1379 617 1370 c 1,16,-1
 612 1282 l 2,17,18
 610 1259 610 1259 588 1256.5 c 128,-1,19
 566 1254 566 1254 528 1254 c 0,20,21
 486 1254 486 1254 451.5 1243 c 128,-1,22
 417 1232 417 1232 392.5 1206 c 128,-1,23
 368 1180 368 1180 354.5 1137.5 c 128,-1,24
 341 1095 341 1095 341 1033 c 2,25,-1
 341 960 l 1,26,-1
 758 960 l 1,27,-1
 758 1087 l 2,28,29
 758 1247 758 1247 829.5 1329.5 c 128,-1,30
 901 1412 901 1412 1029 1412 c 0,31,32
 1052 1412 1052 1412 1070 1410 c 128,-1,33
 1088 1408 1088 1408 1104 1402 c 1,34,-1
 1104 1399 l 1,35,-1
 1232 1399 l 2,36,37
 1264 1399 1264 1399 1280 1388.5 c 128,-1,38
 1296 1378 1296 1378 1309 1356 c 2,39,-1
 1452 1123 l 1,40,-1
 1352 1123 l 2,41,42
 1332 1123 1332 1123 1319 1129 c 128,-1,43
 1306 1135 1306 1135 1292 1150 c 2,44,-1
 1104 1357 l 1,45,-1
 1104 1306 l 2,46,47
 1104 1291 1104 1291 1090.5 1287 c 128,-1,48
 1077 1283 1077 1283 1053 1283 c 0,49,50
 989 1283 989 1283 959 1237.5 c 128,-1,51
 929 1192 929 1192 929 1088 c 2,52,-1
 929 960 l 1,53,-1
 1500 960 l 1,54,-1
 1500 0 l 1,55,-1
 1324 0 l 1,56,-1
 1324 832 l 1,57,-1
 934 832 l 1,58,-1
 934 0 l 1,59,-1
 758 0 l 1,60,-1
 758 832 l 1,61,-1
 347 832 l 1,62,-1
 347 0 l 1,63,-1
 171 0 l 1,0,-1
EndSplineSet
Validated: 1
Ligature2: "sous-table 'liga' Ligatures standard dans Latin lookup 37" f f igrave
EndChar

StartChar: f_f_icircumflex.liga
Encoding: 2140 -1 78
Width: 1654
GlyphClass: 3
Flags: MW
LayerCount: 2
Fore
SplineSet
1324 0 m 1,0,-1
 1324 832 l 1,1,-1
 934 832 l 1,2,-1
 934 0 l 1,3,-1
 758 0 l 1,4,-1
 758 832 l 1,5,-1
 347 832 l 1,6,-1
 347 0 l 1,7,-1
 171 0 l 1,8,-1
 171 831 l 1,9,-1
 71 844 l 2,10,11
 50 846 50 846 37 857 c 128,-1,12
 24 868 24 868 24 888 c 2,13,-1
 24 960 l 1,14,-1
 171 960 l 1,15,-1
 171 1038 l 2,16,17
 171 1122 171 1122 194 1187.5 c 128,-1,18
 217 1253 217 1253 259.5 1297.5 c 128,-1,19
 302 1342 302 1342 363 1365.5 c 128,-1,20
 424 1389 424 1389 499 1389 c 0,21,22
 530 1389 530 1389 560 1384 c 128,-1,23
 590 1379 590 1379 617 1370 c 1,24,-1
 612 1282 l 2,25,26
 610 1259 610 1259 588 1256.5 c 128,-1,27
 566 1254 566 1254 528 1254 c 0,28,29
 486 1254 486 1254 451.5 1243 c 128,-1,30
 417 1232 417 1232 392.5 1206 c 128,-1,31
 368 1180 368 1180 354.5 1137.5 c 128,-1,32
 341 1095 341 1095 341 1033 c 2,33,-1
 341 960 l 1,34,-1
 758 960 l 1,35,-1
 758 1087 l 2,36,37
 758 1247 758 1247 829.5 1329.5 c 128,-1,38
 901 1412 901 1412 1029 1412 c 0,39,40
 1052 1412 1052 1412 1070 1410 c 128,-1,41
 1088 1408 1088 1408 1104 1402 c 1,42,-1
 1104 1306 l 2,43,44
 1104 1291 1104 1291 1090.5 1287 c 128,-1,45
 1077 1283 1077 1283 1053 1283 c 0,46,47
 989 1283 989 1283 959 1237.5 c 128,-1,48
 929 1192 929 1192 929 1088 c 2,49,-1
 929 960 l 1,50,-1
 1500 960 l 1,51,-1
 1500 0 l 1,52,-1
 1324 0 l 1,0,-1
1682 1128 m 1,53,-1
 1564 1128 l 2,54,55
 1553 1128 1553 1128 1542 1132 c 128,-1,56
 1531 1136 1531 1136 1520 1147 c 2,57,-1
 1402 1272 l 2,58,59
 1397 1276 1397 1276 1393.5 1281 c 128,-1,60
 1390 1286 1390 1286 1385 1291 c 1,61,62
 1377 1280 1377 1280 1370 1273 c 2,63,-1
 1251 1147 l 2,64,65
 1233 1128 1233 1128 1207 1128 c 2,66,-1
 1085 1128 l 1,67,-1
 1302 1383 l 1,68,-1
 1464 1383 l 1,69,-1
 1682 1128 l 1,53,-1
EndSplineSet
Validated: 1
Ligature2: "sous-table 'liga' Ligatures standard dans Latin lookup 37" f f icircumflex
EndChar

StartChar: f_f_imacron.liga
Encoding: 2143 -1 81
Width: 1673
GlyphClass: 3
Flags: MW
LayerCount: 2
Fore
SplineSet
1306 0 m 1,0,-1
 1306 832 l 1,1,-1
 916 832 l 1,2,-1
 916 0 l 1,3,-1
 740 0 l 1,4,-1
 740 832 l 1,5,-1
 329 832 l 1,6,-1
 329 0 l 1,7,-1
 153 0 l 1,8,-1
 153 831 l 1,9,-1
 53 844 l 2,10,11
 32 846 32 846 19 857 c 128,-1,12
 6 868 6 868 6 888 c 2,13,-1
 6 960 l 1,14,-1
 153 960 l 1,15,-1
 153 1038 l 2,16,17
 153 1122 153 1122 176 1187.5 c 128,-1,18
 199 1253 199 1253 241.5 1297.5 c 128,-1,19
 284 1342 284 1342 345 1365.5 c 128,-1,20
 406 1389 406 1389 481 1389 c 0,21,22
 512 1389 512 1389 542 1384 c 128,-1,23
 572 1379 572 1379 599 1370 c 1,24,-1
 594 1282 l 2,25,26
 592 1259 592 1259 570 1256.5 c 128,-1,27
 548 1254 548 1254 510 1254 c 0,28,29
 468 1254 468 1254 433.5 1243 c 128,-1,30
 399 1232 399 1232 374.5 1206 c 128,-1,31
 350 1180 350 1180 336.5 1137.5 c 128,-1,32
 323 1095 323 1095 323 1033 c 2,33,-1
 323 960 l 1,34,-1
 740 960 l 1,35,-1
 740 1087 l 2,36,37
 740 1247 740 1247 811.5 1329.5 c 128,-1,38
 883 1412 883 1412 1011 1412 c 0,39,40
 1034 1412 1034 1412 1052 1410 c 128,-1,41
 1070 1408 1070 1408 1086 1402 c 1,42,-1
 1086 1306 l 2,43,44
 1086 1291 1086 1291 1072.5 1287 c 128,-1,45
 1059 1283 1059 1283 1035 1283 c 0,46,47
 971 1283 971 1283 941 1237.5 c 128,-1,48
 911 1192 911 1192 911 1088 c 2,49,-1
 911 960 l 1,50,-1
 1482 960 l 1,51,-1
 1482 0 l 1,52,-1
 1306 0 l 1,0,-1
1123 1301 m 1,53,-1
 1678 1301 l 1,54,-1
 1678 1187 l 1,55,-1
 1123 1187 l 1,56,-1
 1123 1301 l 1,53,-1
EndSplineSet
Validated: 1
Ligature2: "sous-table 'liga' Ligatures standard dans Latin lookup 37" f f imacron
EndChar

StartChar: f_f_iogonek.liga
Encoding: 2145 -1 83
Width: 1654
GlyphClass: 3
Flags: MW
LayerCount: 2
Fore
SplineSet
171 0 m 1,0,-1
 171 831 l 1,1,-1
 71 844 l 2,2,3
 50 846 50 846 37 857 c 128,-1,4
 24 868 24 868 24 888 c 2,5,-1
 24 960 l 1,6,-1
 171 960 l 1,7,-1
 171 1038 l 2,8,9
 171 1122 171 1122 194 1187.5 c 128,-1,10
 217 1253 217 1253 259.5 1297.5 c 128,-1,11
 302 1342 302 1342 363 1365.5 c 128,-1,12
 424 1389 424 1389 499 1389 c 0,13,14
 530 1389 530 1389 560 1384 c 128,-1,15
 590 1379 590 1379 617 1370 c 1,16,-1
 612 1282 l 2,17,18
 610 1259 610 1259 588 1256.5 c 128,-1,19
 566 1254 566 1254 528 1254 c 0,20,21
 486 1254 486 1254 451.5 1243 c 128,-1,22
 417 1232 417 1232 392.5 1206 c 128,-1,23
 368 1180 368 1180 354.5 1137.5 c 128,-1,24
 341 1095 341 1095 341 1033 c 2,25,-1
 341 960 l 1,26,-1
 758 960 l 1,27,-1
 758 1087 l 2,28,29
 758 1247 758 1247 829.5 1329.5 c 128,-1,30
 901 1412 901 1412 1029 1412 c 0,31,32
 1052 1412 1052 1412 1070 1410 c 128,-1,33
 1088 1408 1088 1408 1104 1402 c 1,34,-1
 1104 1306 l 2,35,36
 1104 1291 1104 1291 1090.5 1287 c 128,-1,37
 1077 1283 1077 1283 1053 1283 c 0,38,39
 989 1283 989 1283 959 1237.5 c 128,-1,40
 929 1192 929 1192 929 1088 c 2,41,-1
 929 960 l 1,42,-1
 1500 960 l 1,43,-1
 1500 0 l 1,44,-1
 1472 0 l 1,45,46
 1453 -11 1453 -11 1433.5 -25.5 c 128,-1,47
 1414 -40 1414 -40 1397.5 -59 c 128,-1,48
 1381 -78 1381 -78 1370.5 -100 c 128,-1,49
 1360 -122 1360 -122 1360 -147 c 0,50,51
 1360 -183 1360 -183 1384 -204 c 128,-1,52
 1408 -225 1408 -225 1446 -225 c 0,53,54
 1468 -225 1468 -225 1482 -221.5 c 128,-1,55
 1496 -218 1496 -218 1506 -214 c 128,-1,56
 1516 -210 1516 -210 1522 -206.5 c 128,-1,57
 1528 -203 1528 -203 1533 -203 c 0,58,59
 1546 -203 1546 -203 1551 -215 c 2,60,-1
 1578 -280 l 1,61,62
 1549 -302 1549 -302 1504.5 -316 c 128,-1,63
 1460 -330 1460 -330 1410 -330 c 0,64,65
 1325 -330 1325 -330 1276.5 -292 c 128,-1,66
 1228 -254 1228 -254 1228 -190 c 0,67,68
 1228 -134 1228 -134 1265.5 -85 c 128,-1,69
 1303 -36 1303 -36 1361 0 c 1,70,-1
 1324 0 l 1,71,-1
 1324 832 l 1,72,-1
 934 832 l 1,73,-1
 934 0 l 1,74,-1
 758 0 l 1,75,-1
 758 832 l 1,76,-1
 347 832 l 1,77,-1
 347 0 l 1,78,-1
 171 0 l 1,0,-1
1538 1291 m 0,79,80
 1538 1266 1538 1266 1528 1243.5 c 128,-1,81
 1518 1221 1518 1221 1500.5 1204.5 c 128,-1,82
 1483 1188 1483 1188 1460.5 1178 c 128,-1,83
 1438 1168 1438 1168 1413 1168 c 256,84,85
 1388 1168 1388 1168 1366 1178 c 128,-1,86
 1344 1188 1344 1188 1327.5 1204.5 c 128,-1,87
 1311 1221 1311 1221 1301 1243.5 c 128,-1,88
 1291 1266 1291 1266 1291 1291 c 0,89,90
 1291 1317 1291 1317 1301 1339.5 c 128,-1,91
 1311 1362 1311 1362 1327.5 1379 c 128,-1,92
 1344 1396 1344 1396 1366 1406 c 128,-1,93
 1388 1416 1388 1416 1413 1416 c 256,94,95
 1438 1416 1438 1416 1460.5 1406 c 128,-1,96
 1483 1396 1483 1396 1500.5 1379 c 128,-1,97
 1518 1362 1518 1362 1528 1339.5 c 128,-1,98
 1538 1317 1538 1317 1538 1291 c 0,79,80
EndSplineSet
Validated: 1
Ligature2: "sous-table 'liga' Ligatures standard dans Latin lookup 37" f f iogonek
EndChar

StartChar: f_f_dotlessi.liga
Encoding: 2146 -1 84
Width: 1654
GlyphClass: 3
Flags: MW
LayerCount: 2
Fore
SplineSet
171 0 m 1,0,-1
 171 831 l 1,1,-1
 71 844 l 2,2,3
 50 846 50 846 37 857 c 128,-1,4
 24 868 24 868 24 888 c 2,5,-1
 24 960 l 1,6,-1
 171 960 l 1,7,-1
 171 1038 l 2,8,9
 171 1122 171 1122 194 1187.5 c 128,-1,10
 217 1253 217 1253 259.5 1297.5 c 128,-1,11
 302 1342 302 1342 363 1365.5 c 128,-1,12
 424 1389 424 1389 499 1389 c 0,13,14
 530 1389 530 1389 560 1384 c 128,-1,15
 590 1379 590 1379 617 1370 c 1,16,-1
 612 1282 l 2,17,18
 610 1259 610 1259 588 1256.5 c 128,-1,19
 566 1254 566 1254 528 1254 c 0,20,21
 486 1254 486 1254 451.5 1243 c 128,-1,22
 417 1232 417 1232 392.5 1206 c 128,-1,23
 368 1180 368 1180 354.5 1137.5 c 128,-1,24
 341 1095 341 1095 341 1033 c 2,25,-1
 341 960 l 1,26,-1
 758 960 l 1,27,-1
 758 1087 l 2,28,29
 758 1247 758 1247 829.5 1329.5 c 128,-1,30
 901 1412 901 1412 1029 1412 c 0,31,32
 1052 1412 1052 1412 1070 1410 c 128,-1,33
 1088 1408 1088 1408 1104 1402 c 1,34,-1
 1104 1306 l 2,35,36
 1104 1291 1104 1291 1090.5 1287 c 128,-1,37
 1077 1283 1077 1283 1053 1283 c 0,38,39
 989 1283 989 1283 959 1237.5 c 128,-1,40
 929 1192 929 1192 929 1088 c 2,41,-1
 929 960 l 1,42,-1
 1500 960 l 1,43,-1
 1500 0 l 1,44,-1
 1324 0 l 1,45,-1
 1324 832 l 1,46,-1
 934 832 l 1,47,-1
 934 0 l 1,48,-1
 758 0 l 1,49,-1
 758 832 l 1,50,-1
 347 832 l 1,51,-1
 347 0 l 1,52,-1
 171 0 l 1,0,-1
EndSplineSet
Validated: 1
Ligature2: "sous-table 'liga' Ligatures standard dans Latin lookup 37" f f dotlessi
EndChar

StartChar: f_k.liga
Encoding: 2149 -1 87
Width: 1545
GlyphClass: 3
Flags: MW
LayerCount: 2
Fore
SplineSet
163 0 m 1,0,-1
 163 831 l 1,1,-1
 70 844 l 2,2,3
 49 846 49 846 36 857 c 128,-1,4
 23 868 23 868 23 888 c 2,5,-1
 23 960 l 1,6,-1
 163 960 l 1,7,-1
 163 1038 l 2,8,9
 163 1126 163 1126 186.5 1200 c 128,-1,10
 210 1274 210 1274 261.5 1328 c 128,-1,11
 313 1382 313 1382 394.5 1412 c 128,-1,12
 476 1442 476 1442 592 1442 c 0,13,14
 632 1442 632 1442 668 1439 c 128,-1,15
 704 1436 704 1436 741 1432 c 128,-1,16
 778 1428 778 1428 819 1425 c 128,-1,17
 860 1422 860 1422 910 1422 c 2,18,-1
 934 1422 l 1,19,-1
 934 586 l 1,20,-1
 974 586 l 2,21,22
 993 586 993 586 1004.5 591 c 128,-1,23
 1016 596 1016 596 1029 613 c 2,24,-1
 1289 944 l 2,25,26
 1303 960 1303 960 1318 969 c 128,-1,27
 1333 978 1333 978 1356 978 c 2,28,-1
 1516 978 l 1,29,-1
 1209 593 l 2,30,31
 1195 578 1195 578 1181 565.5 c 128,-1,32
 1167 553 1167 553 1151 543 c 1,33,34
 1168 532 1168 532 1181.5 516.5 c 128,-1,35
 1195 501 1195 501 1209 484 c 2,36,-1
 1536 0 l 1,37,-1
 1378 0 l 2,38,39
 1357 0 1357 0 1341 7.5 c 128,-1,40
 1325 15 1325 15 1312 33 c 2,41,-1
 1045 434 l 2,42,43
 1031 454 1031 454 1018.5 460.5 c 128,-1,44
 1006 467 1006 467 979 467 c 2,45,-1
 934 467 l 1,46,-1
 934 0 l 1,47,-1
 758 0 l 1,48,-1
 758 1296 l 1,49,50
 739 1302 739 1302 716.5 1307.5 c 128,-1,51
 694 1313 694 1313 670.5 1317 c 128,-1,52
 647 1321 647 1321 624.5 1323.5 c 128,-1,53
 602 1326 602 1326 582 1326 c 0,54,55
 518 1326 518 1326 471 1304.5 c 128,-1,56
 424 1283 424 1283 393.5 1244.5 c 128,-1,57
 363 1206 363 1206 348 1153.5 c 128,-1,58
 333 1101 333 1101 333 1038 c 2,59,-1
 333 960 l 1,60,-1
 584 960 l 1,61,-1
 584 832 l 1,62,-1
 339 832 l 1,63,-1
 339 0 l 1,64,-1
 163 0 l 1,0,-1
EndSplineSet
Validated: 1
Ligature2: "sous-table 'liga' Ligatures standard dans Latin lookup 37" f k
EndChar

StartChar: f_f_k.liga
Encoding: 2150 -1 88
Width: 2115
GlyphClass: 3
Flags: MW
LayerCount: 2
Fore
SplineSet
163 0 m 1,0,-1
 163 831 l 1,1,-1
 69 844 l 2,2,3
 48 846 48 846 35 857 c 128,-1,4
 22 868 22 868 22 888 c 2,5,-1
 22 960 l 1,6,-1
 163 960 l 1,7,-1
 163 1038 l 2,8,9
 163 1122 163 1122 185 1187.5 c 128,-1,10
 207 1253 207 1253 248.5 1297.5 c 128,-1,11
 290 1342 290 1342 348.5 1365.5 c 128,-1,12
 407 1389 407 1389 480 1389 c 0,13,14
 539 1389 539 1389 594 1370 c 1,15,-1
 589 1282 l 2,16,17
 587 1259 587 1259 566 1256.5 c 128,-1,18
 545 1254 545 1254 510 1254 c 0,19,20
 469 1254 469 1254 436.5 1243 c 128,-1,21
 404 1232 404 1232 381 1206 c 128,-1,22
 358 1180 358 1180 345.5 1137.5 c 128,-1,23
 333 1095 333 1095 333 1033 c 2,24,-1
 333 960 l 1,25,-1
 727 960 l 1,26,-1
 727 1038 l 2,27,28
 727 1126 727 1126 750.5 1200 c 128,-1,29
 774 1274 774 1274 826 1328 c 128,-1,30
 878 1382 878 1382 960 1412 c 128,-1,31
 1042 1442 1042 1442 1158 1442 c 0,32,33
 1196 1442 1196 1442 1230.5 1439 c 128,-1,34
 1265 1436 1265 1436 1300 1432.5 c 128,-1,35
 1335 1429 1335 1429 1373.5 1426 c 128,-1,36
 1412 1423 1412 1423 1457 1422 c 2,37,-1
 1507 1422 l 1,38,-1
 1507 586 l 1,39,-1
 1547 586 l 2,40,41
 1566 586 1566 586 1577.5 591 c 128,-1,42
 1589 596 1589 596 1602 613 c 2,43,-1
 1862 944 l 2,44,45
 1876 960 1876 960 1891 969 c 128,-1,46
 1906 978 1906 978 1929 978 c 2,47,-1
 2089 978 l 1,48,-1
 1782 593 l 2,49,50
 1768 578 1768 578 1754 565.5 c 128,-1,51
 1740 553 1740 553 1724 543 c 1,52,53
 1741 532 1741 532 1754.5 516.5 c 128,-1,54
 1768 501 1768 501 1782 484 c 2,55,-1
 2109 0 l 1,56,-1
 1951 0 l 2,57,58
 1930 0 1930 0 1914 7.5 c 128,-1,59
 1898 15 1898 15 1885 33 c 2,60,-1
 1618 434 l 2,61,62
 1604 454 1604 454 1591.5 460.5 c 128,-1,63
 1579 467 1579 467 1552 467 c 2,64,-1
 1507 467 l 1,65,-1
 1507 0 l 1,66,-1
 1331 0 l 1,67,-1
 1331 1296 l 1,68,69
 1312 1302 1312 1302 1288.5 1307.5 c 128,-1,70
 1265 1313 1265 1313 1240.5 1317 c 128,-1,71
 1216 1321 1216 1321 1192 1323.5 c 128,-1,72
 1168 1326 1168 1326 1148 1326 c 0,73,74
 1083 1326 1083 1326 1036 1304.5 c 128,-1,75
 989 1283 989 1283 958 1244.5 c 128,-1,76
 927 1206 927 1206 912 1153.5 c 128,-1,77
 897 1101 897 1101 897 1038 c 2,78,-1
 897 960 l 1,79,-1
 1150 960 l 1,80,-1
 1150 832 l 1,81,-1
 903 832 l 1,82,-1
 903 0 l 1,83,-1
 727 0 l 1,84,-1
 727 832 l 1,85,-1
 339 832 l 1,86,-1
 339 0 l 1,87,-1
 163 0 l 1,0,-1
EndSplineSet
Validated: 1
Ligature2: "sous-table 'liga' Ligatures standard dans Latin lookup 37" f f k
EndChar

StartChar: uniFB02
Encoding: 2113 64258 89
Width: 1084
GlyphClass: 3
Flags: MW
LayerCount: 2
Fore
SplineSet
166 0 m 1,0,-1
 166 831 l 1,1,-1
 70 844 l 2,2,3
 49 846 49 846 36 857 c 128,-1,4
 23 868 23 868 23 888 c 2,5,-1
 23 960 l 1,6,-1
 166 960 l 1,7,-1
 166 1011 l 2,8,9
 166 1092 166 1092 189.5 1164.5 c 128,-1,10
 213 1237 213 1237 260.5 1291.5 c 128,-1,11
 308 1346 308 1346 379 1378 c 128,-1,12
 450 1410 450 1410 546 1410 c 0,13,14
 617 1410 617 1410 682 1404 c 128,-1,15
 747 1398 747 1398 810 1397 c 2,16,-1
 928 1397 l 1,17,-1
 928 0 l 1,18,-1
 753 0 l 1,19,-1
 753 1274 l 1,20,21
 705 1276 705 1276 656 1279 c 128,-1,22
 607 1282 607 1282 572 1282 c 0,23,24
 459 1282 459 1282 397.5 1210.5 c 128,-1,25
 336 1139 336 1139 336 1011 c 2,26,-1
 336 960 l 1,27,-1
 571 960 l 1,28,-1
 571 832 l 1,29,-1
 342 832 l 1,30,-1
 342 0 l 1,31,-1
 166 0 l 1,0,-1
EndSplineSet
Validated: 1
Ligature2: "sous-table 'liga' Ligatures standard dans Latin lookup 37" f l
EndChar

StartChar: uniFB04
Encoding: 2115 64260 90
Width: 1654
GlyphClass: 3
Flags: MW
LayerCount: 2
Fore
SplineSet
167 0 m 1,0,-1
 167 831 l 1,1,-1
 70 844 l 2,2,3
 50 846 50 846 37 857 c 128,-1,4
 24 868 24 868 24 888 c 2,5,-1
 24 960 l 1,6,-1
 167 960 l 1,7,-1
 167 1038 l 2,8,9
 167 1122 167 1122 189.5 1187.5 c 128,-1,10
 212 1253 212 1253 253.5 1297.5 c 128,-1,11
 295 1342 295 1342 354.5 1365.5 c 128,-1,12
 414 1389 414 1389 488 1389 c 0,13,14
 547 1389 547 1389 602 1370 c 1,15,-1
 598 1282 l 2,16,17
 597 1270 597 1270 591 1264.5 c 128,-1,18
 585 1259 585 1259 574.5 1256.5 c 128,-1,19
 564 1254 564 1254 549.5 1254 c 128,-1,20
 535 1254 535 1254 517 1254 c 0,21,22
 476 1254 476 1254 443 1243 c 128,-1,23
 410 1232 410 1232 386.5 1206 c 128,-1,24
 363 1180 363 1180 350 1137.5 c 128,-1,25
 337 1095 337 1095 337 1033 c 2,26,-1
 337 960 l 1,27,-1
 739 960 l 1,28,-1
 739 1011 l 2,29,30
 739 1092 739 1092 762 1164.5 c 128,-1,31
 785 1237 785 1237 832 1291.5 c 128,-1,32
 879 1346 879 1346 950 1378 c 128,-1,33
 1021 1410 1021 1410 1116 1410 c 0,34,35
 1188 1410 1188 1410 1252.5 1404 c 128,-1,36
 1317 1398 1317 1398 1380 1397 c 2,37,-1
 1499 1397 l 1,38,-1
 1499 0 l 1,39,-1
 1324 0 l 1,40,-1
 1324 1274 l 1,41,42
 1276 1276 1276 1276 1227 1279 c 128,-1,43
 1178 1282 1178 1282 1143 1282 c 0,44,45
 1031 1282 1031 1282 970 1210.5 c 128,-1,46
 909 1139 909 1139 909 1011 c 2,47,-1
 909 960 l 1,48,-1
 1166 960 l 1,49,-1
 1166 832 l 1,50,-1
 915 832 l 1,51,-1
 915 0 l 1,52,-1
 739 0 l 1,53,-1
 739 832 l 1,54,-1
 343 832 l 1,55,-1
 343 0 l 1,56,-1
 167 0 l 1,0,-1
EndSplineSet
Validated: 1
Ligature2: "sous-table 'liga' Ligatures standard dans Latin lookup 37" f f l
EndChar

StartChar: f_t.liga
Encoding: 2151 -1 91
Width: 1261
GlyphClass: 3
Flags: MW
LayerCount: 2
Fore
SplineSet
939 832 m 1,0,-1
 939 248 l 2,1,2
 939 188 939 188 966 158 c 128,-1,3
 993 128 993 128 1037 128 c 0,4,5
 1062 128 1062 128 1079.5 135 c 128,-1,6
 1097 142 1097 142 1110 151 c 128,-1,7
 1123 160 1123 160 1132 167 c 128,-1,8
 1141 174 1141 174 1149 174 c 0,9,10
 1164 174 1164 174 1174 157 c 2,11,-1
 1226 73 l 1,12,13
 1182 31 1182 31 1121.5 8 c 128,-1,14
 1061 -15 1061 -15 996 -15 c 0,15,16
 884 -15 884 -15 823.5 50 c 128,-1,17
 763 115 763 115 763 236 c 2,18,-1
 763 832 l 1,19,-1
 345 832 l 1,20,-1
 345 0 l 1,21,-1
 169 0 l 1,22,-1
 169 831 l 1,23,-1
 71 844 l 2,24,25
 50 846 50 846 37 857 c 128,-1,26
 24 868 24 868 24 888 c 2,27,-1
 24 960 l 1,28,-1
 169 960 l 1,29,-1
 169 1053 l 2,30,31
 169 1137 169 1137 192 1202.5 c 128,-1,32
 215 1268 215 1268 257 1312.5 c 128,-1,33
 299 1357 299 1357 359 1380.5 c 128,-1,34
 419 1404 419 1404 493 1404 c 0,35,36
 554 1404 554 1404 609 1385 c 1,37,-1
 605 1297 l 2,38,39
 603 1274 603 1274 581 1271.5 c 128,-1,40
 559 1269 559 1269 522 1269 c 0,41,42
 480 1269 480 1269 446.5 1258 c 128,-1,43
 413 1247 413 1247 389 1221 c 128,-1,44
 365 1195 365 1195 352 1152.5 c 128,-1,45
 339 1110 339 1110 339 1048 c 2,46,-1
 339 960 l 1,47,-1
 769 960 l 1,48,-1
 810 1262 l 2,49,50
 812 1277 812 1277 822.5 1286 c 128,-1,51
 833 1295 833 1295 850 1295 c 2,52,-1
 939 1295 l 1,53,-1
 939 960 l 1,54,-1
 1203 960 l 1,55,-1
 1203 832 l 1,56,-1
 939 832 l 1,0,-1
EndSplineSet
Validated: 1
Ligature2: "sous-table 'liga' Ligatures standard dans Latin lookup 37" f t
EndChar

StartChar: f_f_t.liga
Encoding: 2152 -1 92
Width: 1832
GlyphClass: 3
Flags: MW
LayerCount: 2
Fore
SplineSet
167 0 m 1,0,-1
 167 831 l 1,1,-1
 70 844 l 2,2,3
 49 846 49 846 36 857 c 128,-1,4
 23 868 23 868 23 888 c 2,5,-1
 23 960 l 1,6,-1
 167 960 l 1,7,-1
 167 1038 l 2,8,9
 167 1122 167 1122 190 1187.5 c 128,-1,10
 213 1253 213 1253 255 1297.5 c 128,-1,11
 297 1342 297 1342 357 1365.5 c 128,-1,12
 417 1389 417 1389 491 1389 c 0,13,14
 551 1389 551 1389 606 1370 c 1,15,-1
 602 1282 l 2,16,17
 600 1259 600 1259 578 1256.5 c 128,-1,18
 556 1254 556 1254 520 1254 c 0,19,20
 478 1254 478 1254 444.5 1243 c 128,-1,21
 411 1232 411 1232 387.5 1206 c 128,-1,22
 364 1180 364 1180 351 1137.5 c 128,-1,23
 338 1095 338 1095 338 1033 c 2,24,-1
 338 960 l 1,25,-1
 745 960 l 1,26,-1
 745 1053 l 2,27,28
 745 1137 745 1137 767.5 1202.5 c 128,-1,29
 790 1268 790 1268 832 1312.5 c 128,-1,30
 874 1357 874 1357 934 1380.5 c 128,-1,31
 994 1404 994 1404 1068 1404 c 0,32,33
 1099 1404 1099 1404 1128 1399 c 128,-1,34
 1157 1394 1157 1394 1184 1385 c 1,35,-1
 1179 1297 l 2,36,37
 1178 1285 1178 1285 1172 1279.5 c 128,-1,38
 1166 1274 1166 1274 1155 1271.5 c 128,-1,39
 1144 1269 1144 1269 1129.5 1269 c 128,-1,40
 1115 1269 1115 1269 1097 1269 c 0,41,42
 1056 1269 1056 1269 1022.5 1258 c 128,-1,43
 989 1247 989 1247 965 1221 c 128,-1,44
 941 1195 941 1195 928 1152.5 c 128,-1,45
 915 1110 915 1110 915 1048 c 2,46,-1
 915 960 l 1,47,-1
 1343 960 l 1,48,-1
 1383 1262 l 2,49,50
 1386 1277 1386 1277 1396 1286 c 128,-1,51
 1406 1295 1406 1295 1423 1295 c 2,52,-1
 1513 1295 l 1,53,-1
 1513 960 l 1,54,-1
 1775 960 l 1,55,-1
 1775 832 l 1,56,-1
 1513 832 l 1,57,-1
 1513 248 l 2,58,59
 1513 188 1513 188 1539.5 158 c 128,-1,60
 1566 128 1566 128 1608 128 c 0,61,62
 1633 128 1633 128 1651 135 c 128,-1,63
 1669 142 1669 142 1682 151 c 128,-1,64
 1695 160 1695 160 1704 167 c 128,-1,65
 1713 174 1713 174 1721 174 c 0,66,67
 1735 174 1735 174 1745 157 c 2,68,-1
 1797 73 l 1,69,70
 1753 31 1753 31 1693 8 c 128,-1,71
 1633 -15 1633 -15 1569 -15 c 0,72,73
 1457 -15 1457 -15 1397 50 c 128,-1,74
 1337 115 1337 115 1337 236 c 2,75,-1
 1337 832 l 1,76,-1
 921 832 l 1,77,-1
 921 0 l 1,78,-1
 745 0 l 1,79,-1
 745 832 l 1,80,-1
 343 832 l 1,81,-1
 343 0 l 1,82,-1
 167 0 l 1,0,-1
EndSplineSet
Validated: 1
Ligature2: "sous-table 'liga' Ligatures standard dans Latin lookup 37" f f t
EndChar

StartChar: g
Encoding: 73 103 93
Width: 1076
GlyphClass: 2
Flags: MW
LayerCount: 2
Fore
SplineSet
935 978 m 1,0,-1
 935 55 l 2,1,2
 935 -33 935 -33 904.5 -107 c 128,-1,3
 874 -181 874 -181 816 -235 c 128,-1,4
 758 -289 758 -289 673.5 -319 c 128,-1,5
 589 -349 589 -349 481 -349 c 0,6,7
 361 -349 361 -349 275 -314 c 128,-1,8
 189 -279 189 -279 131 -227 c 1,9,-1
 172 -160 l 2,10,11
 187 -134 187 -134 219 -134 c 0,12,13
 237 -134 237 -134 256.5 -147.5 c 128,-1,14
 276 -161 276 -161 304.5 -177.5 c 128,-1,15
 333 -194 333 -194 374.5 -207.5 c 128,-1,16
 416 -221 416 -221 477 -221 c 0,17,18
 547 -221 547 -221 600 -200.5 c 128,-1,19
 653 -180 653 -180 688 -144 c 128,-1,20
 723 -108 723 -108 741 -59 c 128,-1,21
 759 -10 759 -10 759 47 c 2,22,-1
 759 157 l 1,23,24
 727 121 727 121 694.5 93.5 c 128,-1,25
 662 66 662 66 625.5 47.5 c 128,-1,26
 589 29 589 29 547 20 c 128,-1,27
 505 11 505 11 455 11 c 0,28,29
 366 11 366 11 295.5 43.5 c 128,-1,30
 225 76 225 76 176 138.5 c 128,-1,31
 127 201 127 201 100.5 292 c 128,-1,32
 74 383 74 383 74 501 c 0,33,34
 74 605 74 605 103 695.5 c 128,-1,35
 132 786 132 786 186 852.5 c 128,-1,36
 240 919 240 919 318 957 c 128,-1,37
 396 995 396 995 494 995 c 0,38,39
 589 995 589 995 654.5 961.5 c 128,-1,40
 720 928 720 928 771 867 c 1,41,-1
 784 942 l 2,42,43
 791 978 791 978 830 978 c 2,44,-1
 935 978 l 1,0,-1
501 152 m 0,45,46
 582 152 582 152 644 190 c 128,-1,47
 706 228 706 228 759 298 c 1,48,-1
 759 746 l 1,49,50
 714 807 714 807 657.5 833.5 c 128,-1,51
 601 860 601 860 534 860 c 0,52,53
 400 860 400 860 327.5 766.5 c 128,-1,54
 255 673 255 673 255 501 c 0,55,56
 255 410 255 410 271.5 344 c 128,-1,57
 288 278 288 278 319.5 235.5 c 128,-1,58
 351 193 351 193 397 172.5 c 128,-1,59
 443 152 443 152 501 152 c 0,45,46
EndSplineSet
Validated: 1
Substitution2: "sous-table 'sups' Exposant lookups25" g.superior
Substitution2: "sous-table 'salt' Alternatives stylistiques lookups28" g.salt
Substitution2: "sous-table 'ss04' Style 4 lookups34" g.salt
Substitution2: "sous-table 'ordn' Ordinaux dans Latin lookup 39" g.superior
EndChar

StartChar: g.salt
Encoding: 2153 -1 94
Width: 964
GlyphClass: 2
Flags: MW
LayerCount: 2
Fore
SplineSet
462 994 m 0,0,1
 523 994 523 994 576 980 c 128,-1,2
 629 966 629 966 672 940 c 1,3,-1
 928 940 l 1,4,-1
 928 875 l 2,5,6
 928 840 928 840 888 834 c 2,7,-1
 784 819 l 1,8,9
 815 755 815 755 815 679 c 0,10,11
 815 607 815 607 788.5 549 c 128,-1,12
 762 491 762 491 715 450 c 128,-1,13
 668 409 668 409 603.5 386.5 c 128,-1,14
 539 364 539 364 462 364 c 0,15,16
 398 364 398 364 344 379 c 1,17,18
 315 360 315 360 301 338.5 c 128,-1,19
 287 317 287 317 287 296 c 0,20,21
 287 261 287 261 314 244 c 128,-1,22
 341 227 341 227 385 219 c 128,-1,23
 429 211 429 211 485 209 c 128,-1,24
 541 207 541 207 599.5 202.5 c 128,-1,25
 658 198 658 198 714 188 c 128,-1,26
 770 178 770 178 814 153.5 c 128,-1,27
 858 129 858 129 885 86.5 c 128,-1,28
 912 44 912 44 912 -24 c 0,29,30
 912 -87 912 -87 882 -146 c 128,-1,31
 852 -205 852 -205 795.5 -251 c 128,-1,32
 739 -297 739 -297 657.5 -324.5 c 128,-1,33
 576 -352 576 -352 473 -352 c 256,34,35
 370 -352 370 -352 293 -331 c 128,-1,36
 216 -310 216 -310 165 -274 c 128,-1,37
 114 -238 114 -238 89 -191 c 128,-1,38
 64 -144 64 -144 64 -93 c 0,39,40
 64 -21 64 -21 106.5 29 c 128,-1,41
 149 79 149 79 224 108 c 1,42,43
 183 127 183 127 159 160 c 128,-1,44
 135 193 135 193 135 248 c 0,45,46
 135 290 135 290 165 337 c 128,-1,47
 195 384 195 384 255 415 c 1,48,49
 186 456 186 456 146.5 523 c 128,-1,50
 107 590 107 590 107 679 c 0,51,52
 107 751 107 751 133.5 809 c 128,-1,53
 160 867 160 867 207 908.5 c 128,-1,54
 254 950 254 950 319 972 c 128,-1,55
 384 994 384 994 462 994 c 0,0,1
750 -53 m 0,56,57
 750 -18 750 -18 731.5 4 c 128,-1,58
 713 26 713 26 681 38.5 c 128,-1,59
 649 51 649 51 607 56.5 c 128,-1,60
 565 62 565 62 518 65 c 128,-1,61
 471 68 471 68 422.5 70 c 128,-1,62
 374 72 374 72 329 79 c 1,63,64
 280 53 280 53 249 16.5 c 128,-1,65
 218 -20 218 -20 218 -71 c 0,66,67
 218 -104 218 -104 233 -132 c 128,-1,68
 248 -160 248 -160 279.5 -180.5 c 128,-1,69
 311 -201 311 -201 360 -213 c 128,-1,70
 409 -225 409 -225 476 -225 c 0,71,72
 542 -225 542 -225 593 -212 c 128,-1,73
 644 -199 644 -199 679 -176.5 c 128,-1,74
 714 -154 714 -154 732 -122.5 c 128,-1,75
 750 -91 750 -91 750 -53 c 0,56,57
462 480 m 0,76,77
 559 480 559 480 608.5 534 c 128,-1,78
 658 588 658 588 658 675 c 0,79,80
 658 764 658 764 608.5 816.5 c 128,-1,81
 559 869 559 869 462 869 c 0,82,83
 367 869 367 869 317.5 816.5 c 128,-1,84
 268 764 268 764 268 675 c 0,85,86
 268 632 268 632 280.5 596.5 c 128,-1,87
 293 561 293 561 317.5 535 c 128,-1,88
 342 509 342 509 378.5 494.5 c 128,-1,89
 415 480 415 480 462 480 c 0,76,77
EndSplineSet
Validated: 1
Substitution2: "sous-table 'sups' Exposant lookups25" g.superior.salt
Substitution2: "sous-table 'ordn' Ordinaux dans Latin lookup 39" g.superior.salt
EndChar

StartChar: h
Encoding: 74 104 95
Width: 1076
GlyphClass: 2
Flags: MW
LayerCount: 2
Fore
SplineSet
143 0 m 1,0,-1
 143 1422 l 1,1,-1
 319 1422 l 1,2,-1
 319 849 l 1,3,4
 380 915 380 915 454.5 954 c 128,-1,5
 529 993 529 993 627 993 c 0,6,7
 707 993 707 993 767.5 966.5 c 128,-1,8
 828 940 828 940 869 891.5 c 128,-1,9
 910 843 910 843 930.5 774.5 c 128,-1,10
 951 706 951 706 951 623 c 2,11,-1
 951 0 l 1,12,-1
 775 0 l 1,13,-1
 775 623 l 2,14,15
 775 732 775 732 726 793 c 128,-1,16
 677 854 677 854 576 854 c 0,17,18
 501 854 501 854 437 818 c 128,-1,19
 373 782 373 782 319 719 c 1,20,-1
 319 0 l 1,21,-1
 143 0 l 1,0,-1
EndSplineSet
Validated: 1
Substitution2: "sous-table 'ordn' Ordinaux dans Latin lookup 39" h.superior
Substitution2: "sous-table 'sups' Exposant lookups25" h.superior
EndChar

StartChar: hbar
Encoding: 230 295 97
Width: 1091
GlyphClass: 2
Flags: MW
LayerCount: 2
Fore
SplineSet
4 1226 m 1,0,-1
 150 1226 l 1,1,-1
 150 1422 l 1,2,-1
 326 1422 l 1,3,-1
 326 1226 l 1,4,-1
 607 1226 l 1,5,-1
 607 1115 l 1,6,-1
 326 1115 l 1,7,-1
 326 826 l 1,8,9
 387 891 387 891 463.5 931.5 c 128,-1,10
 540 972 540 972 638 972 c 0,11,12
 718 972 718 972 779 945.5 c 128,-1,13
 840 919 840 919 881.5 870 c 128,-1,14
 923 821 923 821 944 753 c 128,-1,15
 965 685 965 685 965 602 c 2,16,-1
 965 0 l 1,17,-1
 789 0 l 1,18,-1
 789 602 l 2,19,20
 789 711 789 711 739 772 c 128,-1,21
 689 833 689 833 587 833 c 0,22,23
 512 833 512 833 446.5 797 c 128,-1,24
 381 761 381 761 326 698 c 1,25,-1
 326 0 l 1,26,-1
 150 0 l 1,27,-1
 150 1115 l 1,28,-1
 4 1115 l 1,29,-1
 4 1226 l 1,0,-1
EndSplineSet
Validated: 1
EndChar

StartChar: dotlessi
Encoding: 240 305 100
Width: 470
GlyphClass: 2
Flags: MW
LayerCount: 2
Fore
SplineSet
323 978 m 1,0,-1
 323 0 l 1,1,-1
 147 0 l 1,2,-1
 147 978 l 1,3,-1
 323 978 l 1,0,-1
EndSplineSet
Validated: 1
EndChar

StartChar: ij.salt
Encoding: 2154 -1 101
Width: 1054
GlyphClass: 2
Flags: MW
LayerCount: 2
Fore
SplineSet
308 978 m 1,0,-1
 308 355 l 2,1,2
 308 245 308 245 358 184.5 c 128,-1,3
 408 124 408 124 515 124 c 0,4,5
 552 124 552 124 581 130 c 128,-1,6
 610 136 610 136 634 149.5 c 128,-1,7
 658 163 658 163 679.5 184.5 c 128,-1,8
 701 206 701 206 724 238 c 1,9,-1
 724 978 l 1,10,-1
 900 978 l 1,11,-1
 900 4 l 2,12,13
 900 -75 900 -75 878 -140.5 c 128,-1,14
 856 -206 856 -206 810 -252.5 c 128,-1,15
 764 -299 764 -299 694 -324.5 c 128,-1,16
 624 -350 624 -350 528 -350 c 0,17,18
 496 -350 496 -350 462 -345 c 128,-1,19
 428 -340 428 -340 402 -331 c 1,20,-1
 416 -237 l 2,21,22
 417 -228 417 -228 421.5 -223.5 c 128,-1,23
 426 -219 426 -219 434.5 -217.5 c 128,-1,24
 443 -216 443 -216 457 -216.5 c 128,-1,25
 471 -217 471 -217 493 -217 c 0,26,27
 609 -217 609 -217 666.5 -165 c 128,-1,28
 724 -113 724 -113 724 4 c 2,29,-1
 724 103 l 1,30,31
 698 74 698 74 670 52 c 128,-1,32
 642 30 642 30 610.5 15.5 c 128,-1,33
 579 1 579 1 542.5 -6.5 c 128,-1,34
 506 -14 506 -14 462 -14 c 0,35,36
 378 -14 378 -14 316 12.5 c 128,-1,37
 254 39 254 39 213 87.5 c 128,-1,38
 172 136 172 136 152 204 c 128,-1,39
 132 272 132 272 132 355 c 2,40,-1
 132 978 l 1,41,-1
 308 978 l 1,0,-1
940 1284 m 0,42,43
 940 1259 940 1259 929.5 1237 c 128,-1,44
 919 1215 919 1215 902 1198 c 128,-1,45
 885 1181 885 1181 862 1171 c 128,-1,46
 839 1161 839 1161 814 1161 c 0,47,48
 788 1161 788 1161 765.5 1171 c 128,-1,49
 743 1181 743 1181 726 1198 c 128,-1,50
 709 1215 709 1215 699 1237 c 128,-1,51
 689 1259 689 1259 689 1284 c 0,52,53
 689 1310 689 1310 699 1332.5 c 128,-1,54
 709 1355 709 1355 726 1372 c 128,-1,55
 743 1389 743 1389 765.5 1399 c 128,-1,56
 788 1409 788 1409 814 1409 c 0,57,58
 839 1409 839 1409 862 1399 c 128,-1,59
 885 1389 885 1389 902 1372 c 128,-1,60
 919 1355 919 1355 929.5 1332.5 c 128,-1,61
 940 1310 940 1310 940 1284 c 0,42,43
350 1284 m 0,62,63
 350 1259 350 1259 339.5 1237 c 128,-1,64
 329 1215 329 1215 312 1198 c 128,-1,65
 295 1181 295 1181 271.5 1171 c 128,-1,66
 248 1161 248 1161 223 1161 c 256,67,68
 198 1161 198 1161 175.5 1171 c 128,-1,69
 153 1181 153 1181 136.5 1198 c 128,-1,70
 120 1215 120 1215 110 1237 c 128,-1,71
 100 1259 100 1259 100 1284 c 0,72,73
 100 1310 100 1310 110 1332.5 c 128,-1,74
 120 1355 120 1355 136.5 1372 c 128,-1,75
 153 1389 153 1389 175.5 1399 c 128,-1,76
 198 1409 198 1409 223 1409 c 256,77,78
 248 1409 248 1409 271.5 1399 c 128,-1,79
 295 1389 295 1389 312 1372 c 128,-1,80
 329 1355 329 1355 339.5 1332.5 c 128,-1,81
 350 1310 350 1310 350 1284 c 0,62,63
EndSplineSet
Validated: 1
Ligature2: "sous-table 'dlig' Ligatures facultatives  dans Latin lookup 36" i j
EndChar

StartChar: uni0237
Encoding: 502 567 103
Width: 490
GlyphClass: 2
Flags: MW
LayerCount: 2
Fore
SplineSet
340 978 m 5,0,-1
 340 -71 l 6,1,2
 340 -130 340 -130 324 -181 c 132,-1,3
 308 -232 308 -232 273.5 -269.5 c 132,-1,4
 239 -307 239 -307 185.5 -329 c 132,-1,5
 132 -351 132 -351 57 -351 c 4,6,7
 25 -351 25 -351 -1.5 -346.5 c 132,-1,8
 -28 -342 -28 -342 -55 -332 c 5,9,-1
 -45 -238 l 6,10,11
 -44 -229 -44 -229 -40.5 -224.5 c 132,-1,12
 -37 -220 -37 -220 -29.5 -219 c 132,-1,13
 -22 -218 -22 -218 -9.5 -218.5 c 132,-1,14
 3 -219 3 -219 22 -219 c 4,15,16
 98 -219 98 -219 131 -184 c 132,-1,17
 164 -149 164 -149 164 -71 c 6,18,-1
 164 978 l 5,19,-1
 340 978 l 5,0,-1
EndSplineSet
Validated: 1
EndChar

StartChar: k
Encoding: 77 107 104
Width: 931
GlyphClass: 2
Flags: MW
LayerCount: 2
Fore
SplineSet
304 1422 m 1,0,-1
 304 586 l 1,1,-1
 344 586 l 2,2,3
 363 586 363 586 374.5 591 c 128,-1,4
 386 596 386 596 399 613 c 2,5,-1
 659 944 l 2,6,7
 673 960 673 960 688 969 c 128,-1,8
 703 978 703 978 726 978 c 2,9,-1
 886 978 l 1,10,-1
 579 593 l 2,11,12
 565 578 565 578 551 565.5 c 128,-1,13
 537 553 537 553 521 543 c 1,14,15
 538 532 538 532 551.5 516.5 c 128,-1,16
 565 501 565 501 579 484 c 2,17,-1
 906 0 l 1,18,-1
 748 0 l 2,19,20
 727 0 727 0 711 7.5 c 128,-1,21
 695 15 695 15 682 33 c 2,22,-1
 415 434 l 2,23,24
 401 454 401 454 388.5 460.5 c 128,-1,25
 376 467 376 467 349 467 c 2,26,-1
 304 467 l 1,27,-1
 304 0 l 1,28,-1
 128 0 l 1,29,-1
 128 1422 l 1,30,-1
 304 1422 l 1,0,-1
EndSplineSet
Validated: 1
Substitution2: "sous-table 'ordn' Ordinaux dans Latin lookup 39" k.superior
Substitution2: "sous-table 'sups' Exposant lookups25" k.superior
EndChar

StartChar: kgreenlandic
Encoding: 247 312 105
Width: 931
GlyphClass: 2
Flags: MW
LayerCount: 2
Fore
SplineSet
301 978 m 1,0,-1
 301 586 l 1,1,-1
 341 586 l 2,2,3
 360 586 360 586 372 591 c 128,-1,4
 384 596 384 596 397 613 c 2,5,-1
 659 944 l 2,6,7
 673 960 673 960 687.5 969 c 128,-1,8
 702 978 702 978 726 978 c 2,9,-1
 885 978 l 1,10,-1
 577 593 l 2,11,12
 563 578 563 578 549 565.5 c 128,-1,13
 535 553 535 553 519 543 c 1,14,15
 536 532 536 532 549.5 516.5 c 128,-1,16
 563 501 563 501 577 484 c 2,17,-1
 905 0 l 1,18,-1
 748 0 l 2,19,20
 727 0 727 0 711 7.5 c 128,-1,21
 695 15 695 15 682 33 c 2,22,-1
 413 434 l 2,23,24
 399 454 399 454 386 460.5 c 128,-1,25
 373 467 373 467 347 467 c 2,26,-1
 301 467 l 1,27,-1
 301 0 l 1,28,-1
 125 0 l 1,29,-1
 125 978 l 1,30,-1
 301 978 l 1,0,-1
EndSplineSet
Validated: 1
EndChar

StartChar: lslash
Encoding: 257 322 106
Width: 507
GlyphClass: 2
Flags: MW
LayerCount: 2
Fore
SplineSet
359 1422 m 1,0,-1
 359 909 l 1,1,-1
 487 974 l 1,2,-1
 487 874 l 2,3,4
 487 842 487 842 463 831 c 2,5,-1
 359 775 l 1,6,-1
 359 0 l 1,7,-1
 183 0 l 1,8,-1
 183 695 l 1,9,-1
 46 624 l 1,10,-1
 46 727 l 2,11,12
 46 754 46 754 68 766 c 2,13,-1
 183 828 l 1,14,-1
 183 1422 l 1,15,-1
 359 1422 l 1,0,-1
EndSplineSet
Validated: 1
EndChar

StartChar: m
Encoding: 79 109 108
Width: 1636
GlyphClass: 2
Flags: MW
LayerCount: 2
Fore
SplineSet
147 0 m 1,0,-1
 147 978 l 1,1,-1
 251 978 l 2,2,3
 271 978 271 978 282.5 969.5 c 128,-1,4
 294 961 294 961 296 942 c 2,5,-1
 311 842 l 1,6,7
 339 875 339 875 369.5 902.5 c 128,-1,8
 400 930 400 930 435 950.5 c 128,-1,9
 470 971 470 971 510 982 c 128,-1,10
 550 993 550 993 595 993 c 0,11,12
 696 993 696 993 759.5 938 c 128,-1,13
 823 883 823 883 850 790 c 1,14,15
 871 844 871 844 905.5 882 c 128,-1,16
 940 920 940 920 982 945 c 128,-1,17
 1024 970 1024 970 1072 981.5 c 128,-1,18
 1120 993 1120 993 1170 993 c 0,19,20
 1330 993 1330 993 1417.5 897 c 128,-1,21
 1505 801 1505 801 1505 623 c 2,22,-1
 1505 0 l 1,23,-1
 1329 0 l 1,24,-1
 1329 623 l 2,25,26
 1329 737 1329 737 1277 795.5 c 128,-1,27
 1225 854 1225 854 1128 854 c 0,28,29
 1084 854 1084 854 1045 839.5 c 128,-1,30
 1006 825 1006 825 976.5 795.5 c 128,-1,31
 947 766 947 766 929.5 723 c 128,-1,32
 912 680 912 680 912 623 c 2,33,-1
 912 0 l 1,34,-1
 736 0 l 1,35,-1
 736 623 l 2,36,37
 736 740 736 740 687.5 797 c 128,-1,38
 639 854 639 854 545 854 c 0,39,40
 481 854 481 854 425 820.5 c 128,-1,41
 369 787 369 787 323 728 c 1,42,-1
 323 0 l 1,43,-1
 147 0 l 1,0,-1
EndSplineSet
Validated: 1
Substitution2: "sous-table 'ordn' Ordinaux dans Latin lookup 39" m.superior
Substitution2: "sous-table 'sups' Exposant lookups25" m.superior
EndChar

StartChar: n
Encoding: 80 110 109
Width: 1076
GlyphClass: 2
Flags: MW
LayerCount: 2
Fore
SplineSet
140 0 m 1,0,-1
 140 978 l 1,1,-1
 245 978 l 2,2,3
 264 978 264 978 276 969.5 c 128,-1,4
 288 961 288 961 290 942 c 2,5,-1
 305 838 l 1,6,7
 368 908 368 908 446 950.5 c 128,-1,8
 524 993 524 993 626 993 c 0,9,10
 706 993 706 993 766.5 966.5 c 128,-1,11
 827 940 827 940 868 891.5 c 128,-1,12
 909 843 909 843 930 774.5 c 128,-1,13
 951 706 951 706 951 623 c 2,14,-1
 951 0 l 1,15,-1
 775 0 l 1,16,-1
 775 623 l 2,17,18
 775 732 775 732 725.5 793 c 128,-1,19
 676 854 676 854 575 854 c 0,20,21
 500 854 500 854 435 818.5 c 128,-1,22
 370 783 370 783 316 720 c 1,23,-1
 316 0 l 1,24,-1
 140 0 l 1,0,-1
EndSplineSet
Validated: 1
Substitution2: "sous-table 'ordn' Ordinaux dans Latin lookup 39" uni207F
Substitution2: "sous-table 'sups' Exposant lookups25" uni207F
EndChar

StartChar: eng
Encoding: 266 331 110
Width: 1076
GlyphClass: 2
Flags: MW
LayerCount: 2
Fore
SplineSet
140 0 m 1,0,-1
 140 978 l 1,1,-1
 245 978 l 2,2,3
 264 978 264 978 276 969.5 c 128,-1,4
 288 961 288 961 290 942 c 2,5,-1
 305 838 l 1,6,7
 368 908 368 908 446 950.5 c 128,-1,8
 524 993 524 993 626 993 c 0,9,10
 706 993 706 993 766.5 966.5 c 128,-1,11
 827 940 827 940 868 891.5 c 128,-1,12
 909 843 909 843 930 774.5 c 128,-1,13
 951 706 951 706 951 623 c 2,14,-1
 951 1 l 2,15,16
 951 -78 951 -78 931.5 -143 c 128,-1,17
 912 -208 912 -208 872.5 -254.5 c 128,-1,18
 833 -301 833 -301 772 -326.5 c 128,-1,19
 711 -352 711 -352 628 -352 c 0,20,21
 582 -352 582 -352 544.5 -343.5 c 128,-1,22
 507 -335 507 -335 465 -317 c 1,23,-1
 484 -241 l 2,24,25
 489 -219 489 -219 500 -212.5 c 128,-1,26
 511 -206 511 -206 524 -206 c 0,27,28
 536 -206 536 -206 556 -213 c 128,-1,29
 576 -220 576 -220 612 -220 c 0,30,31
 691 -220 691 -220 733 -170.5 c 128,-1,32
 775 -121 775 -121 775 -18 c 2,33,-1
 775 623 l 2,34,35
 775 732 775 732 725.5 793 c 128,-1,36
 676 854 676 854 575 854 c 0,37,38
 500 854 500 854 435 818.5 c 128,-1,39
 370 783 370 783 316 720 c 1,40,-1
 316 0 l 1,41,-1
 140 0 l 1,0,-1
EndSplineSet
Validated: 1
EndChar

StartChar: o
Encoding: 81 111 111
Width: 1080
GlyphClass: 2
Flags: MW
LayerCount: 2
Fore
SplineSet
541 993 m 256,0,1
 648 993 648 993 734 957.5 c 128,-1,2
 820 922 820 922 880 856.5 c 128,-1,3
 940 791 940 791 972.5 698 c 128,-1,4
 1005 605 1005 605 1005 490 c 0,5,6
 1005 374 1005 374 972.5 281 c 128,-1,7
 940 188 940 188 880 122.5 c 128,-1,8
 820 57 820 57 734 21.5 c 128,-1,9
 648 -14 648 -14 541 -14 c 256,10,11
 434 -14 434 -14 347.5 21.5 c 128,-1,12
 261 57 261 57 200.5 122.5 c 128,-1,13
 140 188 140 188 107.5 281 c 128,-1,14
 75 374 75 374 75 490 c 0,15,16
 75 605 75 605 107.5 698 c 128,-1,17
 140 791 140 791 200.5 856.5 c 128,-1,18
 261 922 261 922 347.5 957.5 c 128,-1,19
 434 993 434 993 541 993 c 256,0,1
541 123 m 0,20,21
 612 123 612 123 665 147.5 c 128,-1,22
 718 172 718 172 753.5 219 c 128,-1,23
 789 266 789 266 806.5 334 c 128,-1,24
 824 402 824 402 824 489 c 256,25,26
 824 576 824 576 806.5 644 c 128,-1,27
 789 712 789 712 753.5 759 c 128,-1,28
 718 806 718 806 665 831 c 128,-1,29
 612 856 612 856 541 856 c 0,30,31
 469 856 469 856 415.5 831 c 128,-1,32
 362 806 362 806 326.5 759 c 128,-1,33
 291 712 291 712 273.5 644 c 128,-1,34
 256 576 256 576 256 489 c 256,35,36
 256 402 256 402 273.5 334 c 128,-1,37
 291 266 291 266 326.5 219 c 128,-1,38
 362 172 362 172 415.5 147.5 c 128,-1,39
 469 123 469 123 541 123 c 0,20,21
EndSplineSet
Validated: 1
Substitution2: "sous-table 'ordn' Ordinaux dans Latin lookup 39" o.superior
Substitution2: "sous-table 'sups' Exposant lookups25" o.superior
EndChar

StartChar: oslash
Encoding: 183 248 112
Width: 1084
GlyphClass: 2
Flags: MW
LayerCount: 2
Fore
SplineSet
885 854 m 1,0,1
 945 788 945 788 977 696.5 c 128,-1,2
 1009 605 1009 605 1009 490 c 0,3,4
 1009 374 1009 374 976.5 281 c 128,-1,5
 944 188 944 188 883.5 122.5 c 128,-1,6
 823 57 823 57 736.5 21.5 c 128,-1,7
 650 -14 650 -14 543 -14 c 0,8,9
 470 -14 470 -14 407.5 2 c 128,-1,10
 345 18 345 18 292 49 c 1,11,-1
 241 -21 l 2,12,13
 220 -50 220 -50 190.5 -62 c 128,-1,14
 161 -74 161 -74 132 -74 c 2,15,-1
 66 -74 l 1,16,-1
 206 117 l 1,17,18
 143 183 143 183 109 277.5 c 128,-1,19
 75 372 75 372 75 490 c 0,20,21
 75 605 75 605 108 698 c 128,-1,22
 141 791 141 791 201.5 856.5 c 128,-1,23
 262 922 262 922 348.5 957.5 c 128,-1,24
 435 993 435 993 543 993 c 0,25,26
 618 993 618 993 682.5 975.5 c 128,-1,27
 747 958 747 958 801 924 c 1,28,-1
 866 1012 l 2,29,30
 885 1038 885 1038 901.5 1049 c 128,-1,31
 918 1060 918 1060 950 1060 c 2,32,-1
 1037 1060 l 1,33,-1
 885 854 l 1,0,1
245 489 m 0,34,35
 245 336 245 336 300 244 c 1,36,-1
 717 810 l 1,37,38
 647 862 647 862 543 862 c 0,39,40
 471 862 471 862 415 836 c 128,-1,41
 359 810 359 810 321.5 762 c 128,-1,42
 284 714 284 714 264.5 645 c 128,-1,43
 245 576 245 576 245 489 c 0,34,35
543 118 m 0,44,45
 615 118 615 118 670 143.5 c 128,-1,46
 725 169 725 169 762.5 217 c 128,-1,47
 800 265 800 265 819 333.5 c 128,-1,48
 838 402 838 402 838 489 c 0,49,50
 838 631 838 631 789 723 c 1,51,-1
 376 163 l 1,52,53
 443 118 443 118 543 118 c 0,44,45
EndSplineSet
Validated: 1
EndChar

StartChar: oe
Encoding: 274 339 113
Width: 1740
GlyphClass: 2
Flags: MW
LayerCount: 2
Fore
SplineSet
1277 993 m 0,0,1
 1359 993 1359 993 1429.5 962 c 128,-1,2
 1500 931 1500 931 1551.5 872.5 c 128,-1,3
 1603 814 1603 814 1632.5 729.5 c 128,-1,4
 1662 645 1662 645 1662 537 c 0,5,6
 1662 496 1662 496 1654 482 c 128,-1,7
 1646 468 1646 468 1621 468 c 2,8,-1
 992 468 l 1,9,10
 996 381 996 381 1019.5 316.5 c 128,-1,11
 1043 252 1043 252 1081.5 209 c 128,-1,12
 1120 166 1120 166 1173 145 c 128,-1,13
 1226 124 1226 124 1291 124 c 0,14,15
 1352 124 1352 124 1396.5 138.5 c 128,-1,16
 1441 153 1441 153 1473.5 171 c 128,-1,17
 1506 189 1506 189 1528.5 203.5 c 128,-1,18
 1551 218 1551 218 1568 218 c 0,19,20
 1587 218 1587 218 1602 201 c 2,21,-1
 1651 137 l 1,22,23
 1619 98 1619 98 1575.5 69.5 c 128,-1,24
 1532 41 1532 41 1482.5 22.5 c 128,-1,25
 1433 4 1433 4 1380 -5 c 128,-1,26
 1327 -14 1327 -14 1275 -14 c 0,27,28
 1155 -14 1155 -14 1059 42.5 c 128,-1,29
 963 99 963 99 908 215 c 1,30,31
 855 106 855 106 758.5 46 c 128,-1,32
 662 -14 662 -14 525 -14 c 0,33,34
 424 -14 424 -14 342 21.5 c 128,-1,35
 260 57 260 57 201.5 122.5 c 128,-1,36
 143 188 143 188 111 281 c 128,-1,37
 79 374 79 374 79 490 c 0,38,39
 79 605 79 605 111 698 c 128,-1,40
 143 791 143 791 202 856.5 c 128,-1,41
 261 922 261 922 344.5 957.5 c 128,-1,42
 428 993 428 993 530 993 c 0,43,44
 663 993 663 993 758 934 c 128,-1,45
 853 875 853 875 906 768 c 1,46,47
 931 819 931 819 967 860.5 c 128,-1,48
 1003 902 1003 902 1049.5 931.5 c 128,-1,49
 1096 961 1096 961 1153 977 c 128,-1,50
 1210 993 1210 993 1277 993 c 0,0,1
540 123 m 0,51,52
 610 123 610 123 662.5 147.5 c 128,-1,53
 715 172 715 172 749.5 219 c 128,-1,54
 784 266 784 266 801.5 334 c 128,-1,55
 819 402 819 402 819 489 c 256,56,57
 819 576 819 576 801.5 644 c 128,-1,58
 784 712 784 712 749.5 759 c 128,-1,59
 715 806 715 806 662.5 831 c 128,-1,60
 610 856 610 856 540 856 c 0,61,62
 469 856 469 856 416.5 831 c 128,-1,63
 364 806 364 806 329.5 759 c 128,-1,64
 295 712 295 712 277.5 644 c 128,-1,65
 260 576 260 576 260 489 c 0,66,67
 260 316 260 316 329.5 219.5 c 128,-1,68
 399 123 399 123 540 123 c 0,51,52
1271 865 m 0,69,70
 1209 865 1209 865 1161 845 c 128,-1,71
 1113 825 1113 825 1078 787.5 c 128,-1,72
 1043 750 1043 750 1022 697 c 128,-1,73
 1001 644 1001 644 994 577 c 1,74,-1
 1506 577 l 1,75,76
 1506 639 1506 639 1490 692 c 128,-1,77
 1474 745 1474 745 1444 783.5 c 128,-1,78
 1414 822 1414 822 1370.5 843.5 c 128,-1,79
 1327 865 1327 865 1271 865 c 0,69,70
EndSplineSet
Validated: 1
EndChar

StartChar: p
Encoding: 82 112 114
Width: 1076
GlyphClass: 2
Flags: MW
LayerCount: 2
Fore
SplineSet
141 -330 m 1,0,-1
 141 978 l 1,1,-1
 246 978 l 2,2,3
 265 978 265 978 277 969.5 c 128,-1,4
 289 961 289 961 291 942 c 2,5,-1
 308 828 l 1,6,7
 370 903 370 903 450 949 c 128,-1,8
 530 995 530 995 634 995 c 0,9,10
 718 995 718 995 786 962.5 c 128,-1,11
 854 930 854 930 902 867 c 128,-1,12
 950 804 950 804 976 711 c 128,-1,13
 1002 618 1002 618 1002 496 c 0,14,15
 1002 388 1002 388 973 294.5 c 128,-1,16
 944 201 944 201 889.5 132.5 c 128,-1,17
 835 64 835 64 757 25 c 128,-1,18
 679 -14 679 -14 581 -14 c 0,19,20
 492 -14 492 -14 429 16 c 128,-1,21
 366 46 366 46 317 100 c 1,22,-1
 317 -330 l 1,23,-1
 141 -330 l 1,0,-1
576 854 m 0,24,25
 494 854 494 854 431.5 816 c 128,-1,26
 369 778 369 778 317 708 c 1,27,-1
 317 236 l 1,28,29
 363 173 363 173 418.5 147.5 c 128,-1,30
 474 122 474 122 542 122 c 0,31,32
 676 122 676 122 748.5 219 c 128,-1,33
 821 316 821 316 821 496 c 0,34,35
 821 591 821 591 804.5 659 c 128,-1,36
 788 727 788 727 756.5 770.5 c 128,-1,37
 725 814 725 814 679.5 834 c 128,-1,38
 634 854 634 854 576 854 c 0,24,25
EndSplineSet
Validated: 1
Substitution2: "sous-table 'ordn' Ordinaux dans Latin lookup 39" p.superior
Substitution2: "sous-table 'sups' Exposant lookups25" p.superior
EndChar

StartChar: thorn
Encoding: 189 254 115
Width: 1076
GlyphClass: 2
Flags: MW
LayerCount: 2
Fore
SplineSet
144 -330 m 1,0,-1
 144 1422 l 1,1,-1
 320 1422 l 1,2,-1
 320 839 l 1,3,4
 380 910 380 910 458 951.5 c 128,-1,5
 536 993 536 993 636 993 c 0,6,7
 719 993 719 993 786.5 961 c 128,-1,8
 854 929 854 929 902 866.5 c 128,-1,9
 950 804 950 804 976 711 c 128,-1,10
 1002 618 1002 618 1002 496 c 0,11,12
 1002 388 1002 388 973 294.5 c 128,-1,13
 944 201 944 201 890 132.5 c 128,-1,14
 836 64 836 64 758.5 25 c 128,-1,15
 681 -14 681 -14 583 -14 c 0,16,17
 493 -14 493 -14 431 19.5 c 128,-1,18
 369 53 369 53 320 113 c 1,19,-1
 320 -330 l 1,20,-1
 144 -330 l 1,0,-1
578 854 m 0,21,22
 496 854 496 854 434 816 c 128,-1,23
 372 778 372 778 320 708 c 1,24,-1
 320 236 l 1,25,26
 366 173 366 173 421 147.5 c 128,-1,27
 476 122 476 122 544 122 c 0,28,29
 677 122 677 122 749 219 c 128,-1,30
 821 316 821 316 821 496 c 0,31,32
 821 591 821 591 804.5 659 c 128,-1,33
 788 727 788 727 757 770.5 c 128,-1,34
 726 814 726 814 680.5 834 c 128,-1,35
 635 854 635 854 578 854 c 0,21,22
EndSplineSet
Validated: 1
EndChar

StartChar: q
Encoding: 83 113 116
Width: 1076
GlyphClass: 2
Flags: MW
LayerCount: 2
Fore
SplineSet
935 978 m 1,0,-1
 935 -330 l 1,1,-1
 759 -330 l 1,2,-1
 759 143 l 1,3,4
 698 71 698 71 620 28.5 c 128,-1,5
 542 -14 542 -14 442 -14 c 0,6,7
 358 -14 358 -14 290 18.5 c 128,-1,8
 222 51 222 51 174 114 c 128,-1,9
 126 177 126 177 100 270.5 c 128,-1,10
 74 364 74 364 74 486 c 0,11,12
 74 594 74 594 103 687.5 c 128,-1,13
 132 781 132 781 186 849 c 128,-1,14
 240 917 240 917 318 956 c 128,-1,15
 396 995 396 995 494 995 c 0,16,17
 589 995 589 995 654.5 961.5 c 128,-1,18
 720 928 720 928 771 867 c 1,19,-1
 784 942 l 2,20,21
 791 978 791 978 830 978 c 2,22,-1
 935 978 l 1,0,-1
499 127 m 0,23,24
 582 127 582 127 644 165.5 c 128,-1,25
 706 204 706 204 759 273 c 1,26,-1
 759 746 l 1,27,28
 714 807 714 807 657.5 833.5 c 128,-1,29
 601 860 601 860 534 860 c 0,30,31
 400 860 400 860 327.5 763 c 128,-1,32
 255 666 255 666 255 486 c 0,33,34
 255 391 255 391 271.5 323 c 128,-1,35
 288 255 288 255 319.5 211.5 c 128,-1,36
 351 168 351 168 396.5 147.5 c 128,-1,37
 442 127 442 127 499 127 c 0,23,24
EndSplineSet
Validated: 1
Substitution2: "sous-table 'ordn' Ordinaux dans Latin lookup 39" q.superior
Substitution2: "sous-table 'sups' Exposant lookups25" q.superior
EndChar

StartChar: r
Encoding: 84 114 117
Width: 714
GlyphClass: 2
Flags: MW
LayerCount: 2
Fore
SplineSet
131 0 m 1,0,-1
 131 978 l 1,1,-1
 232 978 l 2,2,3
 260 978 260 978 271.5 967 c 128,-1,4
 283 956 283 956 285 930 c 2,5,-1
 297 786 l 1,6,7
 342 883 342 883 408 939 c 128,-1,8
 474 995 474 995 567 995 c 0,9,10
 598 995 598 995 625 988.5 c 128,-1,11
 652 982 652 982 674 967 c 1,12,-1
 660 837 l 2,13,14
 657 812 657 812 632 812 c 0,15,16
 618 812 618 812 592.5 817.5 c 128,-1,17
 567 823 567 823 536 823 c 0,18,19
 491 823 491 823 456.5 809.5 c 128,-1,20
 422 796 422 796 394.5 769.5 c 128,-1,21
 367 743 367 743 346 705 c 128,-1,22
 325 667 325 667 307 618 c 1,23,-1
 307 0 l 1,24,-1
 131 0 l 1,0,-1
EndSplineSet
Validated: 1
Substitution2: "sous-table 'ordn' Ordinaux dans Latin lookup 39" r.superior
Substitution2: "sous-table 'sups' Exposant lookups25" r.superior
EndChar

StartChar: s
Encoding: 85 115 118
Width: 801
GlyphClass: 2
Flags: MW
LayerCount: 2
Fore
SplineSet
679 816 m 2,0,1
 667 794 667 794 643 794 c 0,2,3
 628 794 628 794 610.5 805 c 128,-1,4
 593 816 593 816 568.5 828.5 c 128,-1,5
 544 841 544 841 510.5 852 c 128,-1,6
 477 863 477 863 431 863 c 0,7,8
 392 863 392 863 361 852 c 128,-1,9
 330 841 330 841 308 822 c 128,-1,10
 286 803 286 803 274 777.5 c 128,-1,11
 262 752 262 752 262 723 c 0,12,13
 262 685 262 685 282 660 c 128,-1,14
 302 635 302 635 335 617 c 128,-1,15
 368 599 368 599 410.5 584.5 c 128,-1,16
 453 570 453 570 497 555 c 128,-1,17
 541 540 541 540 583.5 520 c 128,-1,18
 626 500 626 500 659 471 c 128,-1,19
 692 442 692 442 712 400.5 c 128,-1,20
 732 359 732 359 732 300 c 0,21,22
 732 232 732 232 709 174.5 c 128,-1,23
 686 117 686 117 641.5 75 c 128,-1,24
 597 33 597 33 531.5 9 c 128,-1,25
 466 -15 466 -15 381 -15 c 0,26,27
 284 -15 284 -15 204.5 18 c 128,-1,28
 125 51 125 51 70 104 c 1,29,-1
 111 170 l 2,30,31
 119 183 119 183 130 190 c 128,-1,32
 141 197 141 197 158 197 c 0,33,34
 176 197 176 197 194 183.5 c 128,-1,35
 212 170 212 170 237.5 153.5 c 128,-1,36
 263 137 263 137 299 123.5 c 128,-1,37
 335 110 335 110 389 110 c 0,38,39
 435 110 435 110 468.5 123 c 128,-1,40
 502 136 502 136 524 157.5 c 128,-1,41
 546 179 546 179 557 208 c 128,-1,42
 568 237 568 237 568 269 c 0,43,44
 568 309 568 309 547.5 335.5 c 128,-1,45
 527 362 527 362 494 380.5 c 128,-1,46
 461 399 461 399 418.5 413 c 128,-1,47
 376 427 376 427 331.5 442.5 c 128,-1,48
 287 458 287 458 244.5 477.5 c 128,-1,49
 202 497 202 497 169 527.5 c 128,-1,50
 136 558 136 558 115.5 602 c 128,-1,51
 95 646 95 646 95 709 c 0,52,53
 95 766 95 766 117 817.5 c 128,-1,54
 139 869 139 869 181 908 c 128,-1,55
 223 947 223 947 285 970 c 128,-1,56
 347 993 347 993 427 993 c 0,57,58
 518 993 518 993 592 963 c 128,-1,59
 666 933 666 933 718 879 c 1,60,-1
 679 816 l 2,0,1
EndSplineSet
Validated: 1
Substitution2: "sous-table 'ordn' Ordinaux dans Latin lookup 39" s.superior
Substitution2: "sous-table 'sups' Exposant lookups25" s.superior
EndChar

StartChar: scedilla
Encoding: 286 351 119
Width: 801
GlyphClass: 2
Flags: MW
LayerCount: 2
Fore
SplineSet
265 -243 m 0,0,1
 271 -243 271 -243 278.5 -246.5 c 128,-1,2
 286 -250 286 -250 297 -254 c 128,-1,3
 308 -258 308 -258 322.5 -261.5 c 128,-1,4
 337 -265 337 -265 358 -265 c 0,5,6
 398 -265 398 -265 418.5 -249 c 128,-1,7
 439 -233 439 -233 439 -208 c 0,8,9
 439 -171 439 -171 398.5 -156.5 c 128,-1,10
 358 -142 358 -142 284 -132 c 1,11,-1
 324 -12 l 1,12,13
 246 -3 246 -3 181.5 28 c 128,-1,14
 117 59 117 59 70 104 c 1,15,-1
 111 170 l 2,16,17
 119 183 119 183 130 190 c 128,-1,18
 141 197 141 197 158 197 c 0,19,20
 176 197 176 197 194 183.5 c 128,-1,21
 212 170 212 170 237.5 153.5 c 128,-1,22
 263 137 263 137 299 123.5 c 128,-1,23
 335 110 335 110 389 110 c 0,24,25
 435 110 435 110 468.5 123 c 128,-1,26
 502 136 502 136 524 157.5 c 128,-1,27
 546 179 546 179 557 208 c 128,-1,28
 568 237 568 237 568 269 c 0,29,30
 568 309 568 309 547.5 335.5 c 128,-1,31
 527 362 527 362 494 380.5 c 128,-1,32
 461 399 461 399 418.5 413 c 128,-1,33
 376 427 376 427 331.5 442.5 c 128,-1,34
 287 458 287 458 244.5 477.5 c 128,-1,35
 202 497 202 497 169 527.5 c 128,-1,36
 136 558 136 558 115.5 602 c 128,-1,37
 95 646 95 646 95 709 c 0,38,39
 95 766 95 766 117 817.5 c 128,-1,40
 139 869 139 869 181 908 c 128,-1,41
 223 947 223 947 285 970 c 128,-1,42
 347 993 347 993 427 993 c 0,43,44
 518 993 518 993 592 963 c 128,-1,45
 666 933 666 933 718 879 c 1,46,-1
 679 816 l 2,47,48
 667 794 667 794 643 794 c 0,49,50
 628 794 628 794 610.5 805 c 128,-1,51
 593 816 593 816 568.5 828.5 c 128,-1,52
 544 841 544 841 510.5 852 c 128,-1,53
 477 863 477 863 431 863 c 0,54,55
 392 863 392 863 361 852 c 128,-1,56
 330 841 330 841 308 822 c 128,-1,57
 286 803 286 803 274 777.5 c 128,-1,58
 262 752 262 752 262 723 c 0,59,60
 262 685 262 685 282 660 c 128,-1,61
 302 635 302 635 335 617 c 128,-1,62
 368 599 368 599 410.5 584.5 c 128,-1,63
 453 570 453 570 497 555 c 128,-1,64
 541 540 541 540 583.5 520 c 128,-1,65
 626 500 626 500 659 471 c 128,-1,66
 692 442 692 442 712 400.5 c 128,-1,67
 732 359 732 359 732 300 c 0,68,69
 732 237 732 237 712 182.5 c 128,-1,70
 692 128 692 128 653 86.5 c 128,-1,71
 614 45 614 45 556.5 19 c 128,-1,72
 499 -7 499 -7 425 -13 c 1,73,-1
 408 -72 l 1,74,75
 498 -90 498 -90 537.5 -124 c 128,-1,76
 577 -158 577 -158 577 -210 c 0,77,78
 577 -241 577 -241 561.5 -266 c 128,-1,79
 546 -291 546 -291 518.5 -308 c 128,-1,80
 491 -325 491 -325 452 -334.5 c 128,-1,81
 413 -344 413 -344 367 -344 c 0,82,83
 328 -344 328 -344 292 -336 c 128,-1,84
 256 -328 256 -328 226 -314 c 1,85,-1
 243 -260 l 2,86,87
 249 -243 249 -243 265 -243 c 0,0,1
EndSplineSet
Validated: 1
Substitution2: "sous-table 'salt' Alternatives stylistiques dans Latin lookup 8" uni0219
EndChar

StartChar: s_t.dlig
Encoding: 2155 -1 120
Width: 1454
GlyphClass: 3
Flags: MW
LayerCount: 2
Fore
SplineSet
998 832 m 1,0,-1
 895 832 l 2,1,2
 880 832 880 832 869 842 c 128,-1,3
 858 852 858 852 858 871 c 2,4,-1
 858 941 l 1,5,-1
 1011 962 l 1,6,7
 1018 990 1018 990 1025.5 1021.5 c 128,-1,8
 1033 1053 1033 1053 1039 1085.5 c 128,-1,9
 1045 1118 1045 1118 1049 1150.5 c 128,-1,10
 1053 1183 1053 1183 1053 1213 c 0,11,12
 1053 1260 1053 1260 1041.5 1300.5 c 128,-1,13
 1030 1341 1030 1341 1005 1370.5 c 128,-1,14
 980 1400 980 1400 941 1416.5 c 128,-1,15
 902 1433 902 1433 847 1433 c 0,16,17
 783 1433 783 1433 735 1411.5 c 128,-1,18
 687 1390 687 1390 655.5 1353.5 c 128,-1,19
 624 1317 624 1317 608.5 1268.5 c 128,-1,20
 593 1220 593 1220 593 1166 c 0,21,22
 593 1087 593 1087 629.5 1013 c 128,-1,23
 666 939 666 939 735 879 c 1,24,-1
 719 866 l 1,25,-1
 688 816 l 2,26,27
 676 794 676 794 652 794 c 0,28,29
 637 794 637 794 619.5 805 c 128,-1,30
 602 816 602 816 577.5 828.5 c 128,-1,31
 553 841 553 841 519.5 852 c 128,-1,32
 486 863 486 863 440 863 c 0,33,34
 401 863 401 863 370 852 c 128,-1,35
 339 841 339 841 317 822 c 128,-1,36
 295 803 295 803 283 777.5 c 128,-1,37
 271 752 271 752 271 723 c 0,38,39
 271 685 271 685 291 660 c 128,-1,40
 311 635 311 635 344 617 c 128,-1,41
 377 599 377 599 419.5 584.5 c 128,-1,42
 462 570 462 570 506 555 c 128,-1,43
 550 540 550 540 592.5 520 c 128,-1,44
 635 500 635 500 668 471 c 128,-1,45
 701 442 701 442 721 400.5 c 128,-1,46
 741 359 741 359 741 300 c 0,47,48
 741 232 741 232 718 174.5 c 128,-1,49
 695 117 695 117 650.5 75 c 128,-1,50
 606 33 606 33 540.5 9 c 128,-1,51
 475 -15 475 -15 390 -15 c 0,52,53
 293 -15 293 -15 213.5 18 c 128,-1,54
 134 51 134 51 79 104 c 1,55,-1
 120 170 l 2,56,57
 128 183 128 183 139 190 c 128,-1,58
 150 197 150 197 167 197 c 0,59,60
 185 197 185 197 203 183.5 c 128,-1,61
 221 170 221 170 246.5 153.5 c 128,-1,62
 272 137 272 137 308 123.5 c 128,-1,63
 344 110 344 110 398 110 c 0,64,65
 444 110 444 110 477.5 123 c 128,-1,66
 511 136 511 136 533 157.5 c 128,-1,67
 555 179 555 179 566 208 c 128,-1,68
 577 237 577 237 577 269 c 0,69,70
 577 309 577 309 556.5 335.5 c 128,-1,71
 536 362 536 362 503 380.5 c 128,-1,72
 470 399 470 399 427.5 413 c 128,-1,73
 385 427 385 427 340.5 442.5 c 128,-1,74
 296 458 296 458 253.5 477.5 c 128,-1,75
 211 497 211 497 178 527.5 c 128,-1,76
 145 558 145 558 124.5 602 c 128,-1,77
 104 646 104 646 104 709 c 0,78,79
 104 766 104 766 126 817.5 c 128,-1,80
 148 869 148 869 190 908 c 128,-1,81
 232 947 232 947 294 970 c 128,-1,82
 356 993 356 993 436 993 c 0,83,84
 496 993 496 993 550 979 c 1,85,86
 529 1022 529 1022 518.5 1069 c 128,-1,87
 508 1116 508 1116 508 1165 c 0,88,89
 508 1235 508 1235 528.5 1297 c 128,-1,90
 549 1359 549 1359 591 1406 c 128,-1,91
 633 1453 633 1453 696.5 1480.5 c 128,-1,92
 760 1508 760 1508 847 1508 c 0,93,94
 932 1508 932 1508 993.5 1481 c 128,-1,95
 1055 1454 1055 1454 1095 1409 c 128,-1,96
 1135 1364 1135 1364 1154.5 1307 c 128,-1,97
 1174 1250 1174 1250 1174 1190 c 2,98,-1
 1174 960 l 1,99,-1
 1428 960 l 1,100,-1
 1428 832 l 1,101,-1
 1174 832 l 1,102,-1
 1174 248 l 2,103,104
 1174 188 1174 188 1199.5 158 c 128,-1,105
 1225 128 1225 128 1267 128 c 0,106,107
 1291 128 1291 128 1307.5 135 c 128,-1,108
 1324 142 1324 142 1336.5 151 c 128,-1,109
 1349 160 1349 160 1357.5 167 c 128,-1,110
 1366 174 1366 174 1374 174 c 0,111,112
 1388 174 1388 174 1398 157 c 2,113,-1
 1451 73 l 1,114,115
 1408 31 1408 31 1348.5 8 c 128,-1,116
 1289 -15 1289 -15 1226 -15 c 0,117,118
 1117 -15 1117 -15 1057.5 50 c 128,-1,119
 998 115 998 115 998 236 c 2,120,-1
 998 832 l 1,0,-1
EndSplineSet
Validated: 1
Ligature2: "sous-table 'dlig' Ligatures facultatives  dans Latin lookup 36" s t
EndChar

StartChar: glyph121
Encoding: 2156 -1 121
Width: 1454
GlyphClass: 3
Flags: MW
LayerCount: 2
Fore
SplineSet
272 -243 m 0,0,1
 278 -243 278 -243 285.5 -246.5 c 128,-1,2
 293 -250 293 -250 304 -254 c 128,-1,3
 315 -258 315 -258 329.5 -261.5 c 128,-1,4
 344 -265 344 -265 365 -265 c 0,5,6
 405 -265 405 -265 425.5 -249 c 128,-1,7
 446 -233 446 -233 446 -208 c 0,8,9
 446 -171 446 -171 405.5 -156.5 c 128,-1,10
 365 -142 365 -142 291 -132 c 1,11,-1
 331 -11 l 1,12,13
 253 -2 253 -2 189 28.5 c 128,-1,14
 125 59 125 59 79 104 c 1,15,-1
 120 170 l 2,16,17
 128 183 128 183 139 190 c 128,-1,18
 150 197 150 197 167 197 c 0,19,20
 185 197 185 197 203 183.5 c 128,-1,21
 221 170 221 170 246.5 153.5 c 128,-1,22
 272 137 272 137 308 123.5 c 128,-1,23
 344 110 344 110 398 110 c 0,24,25
 444 110 444 110 477.5 123 c 128,-1,26
 511 136 511 136 533 157.5 c 128,-1,27
 555 179 555 179 566 208 c 128,-1,28
 577 237 577 237 577 269 c 0,29,30
 577 309 577 309 556.5 335.5 c 128,-1,31
 536 362 536 362 503 380.5 c 128,-1,32
 470 399 470 399 427.5 413 c 128,-1,33
 385 427 385 427 340.5 442.5 c 128,-1,34
 296 458 296 458 253.5 477.5 c 128,-1,35
 211 497 211 497 178 527.5 c 128,-1,36
 145 558 145 558 124.5 602 c 128,-1,37
 104 646 104 646 104 709 c 0,38,39
 104 766 104 766 126 817.5 c 128,-1,40
 148 869 148 869 190 908 c 128,-1,41
 232 947 232 947 294 970 c 128,-1,42
 356 993 356 993 436 993 c 0,43,44
 496 993 496 993 550 979 c 1,45,46
 529 1022 529 1022 518.5 1069 c 128,-1,47
 508 1116 508 1116 508 1165 c 0,48,49
 508 1235 508 1235 528.5 1297 c 128,-1,50
 549 1359 549 1359 591 1406 c 128,-1,51
 633 1453 633 1453 696.5 1480.5 c 128,-1,52
 760 1508 760 1508 847 1508 c 0,53,54
 932 1508 932 1508 993.5 1481 c 128,-1,55
 1055 1454 1055 1454 1095 1409 c 128,-1,56
 1135 1364 1135 1364 1154.5 1307 c 128,-1,57
 1174 1250 1174 1250 1174 1190 c 2,58,-1
 1174 960 l 1,59,-1
 1428 960 l 1,60,-1
 1428 832 l 1,61,-1
 1174 832 l 1,62,-1
 1174 248 l 2,63,64
 1174 188 1174 188 1199.5 158 c 128,-1,65
 1225 128 1225 128 1267 128 c 0,66,67
 1291 128 1291 128 1307.5 135 c 128,-1,68
 1324 142 1324 142 1336.5 151 c 128,-1,69
 1349 160 1349 160 1357.5 167 c 128,-1,70
 1366 174 1366 174 1374 174 c 0,71,72
 1388 174 1388 174 1398 157 c 2,73,-1
 1451 73 l 1,74,75
 1408 31 1408 31 1348.5 8 c 128,-1,76
 1289 -15 1289 -15 1226 -15 c 0,77,78
 1117 -15 1117 -15 1057.5 50 c 128,-1,79
 998 115 998 115 998 236 c 2,80,-1
 998 832 l 1,81,-1
 895 832 l 2,82,83
 880 832 880 832 869 842 c 128,-1,84
 858 852 858 852 858 871 c 2,85,-1
 858 941 l 1,86,-1
 1011 962 l 1,87,88
 1018 990 1018 990 1025.5 1021.5 c 128,-1,89
 1033 1053 1033 1053 1039 1085.5 c 128,-1,90
 1045 1118 1045 1118 1049 1150.5 c 128,-1,91
 1053 1183 1053 1183 1053 1213 c 0,92,93
 1053 1260 1053 1260 1041.5 1300.5 c 128,-1,94
 1030 1341 1030 1341 1005 1370.5 c 128,-1,95
 980 1400 980 1400 941 1416.5 c 128,-1,96
 902 1433 902 1433 847 1433 c 0,97,98
 783 1433 783 1433 735 1411.5 c 128,-1,99
 687 1390 687 1390 655.5 1353.5 c 128,-1,100
 624 1317 624 1317 608.5 1268.5 c 128,-1,101
 593 1220 593 1220 593 1166 c 0,102,103
 593 1087 593 1087 629.5 1013 c 128,-1,104
 666 939 666 939 735 879 c 1,105,-1
 719 866 l 1,106,-1
 688 816 l 2,107,108
 676 794 676 794 652 794 c 0,109,110
 637 794 637 794 619.5 805 c 128,-1,111
 602 816 602 816 577.5 828.5 c 128,-1,112
 553 841 553 841 519.5 852 c 128,-1,113
 486 863 486 863 440 863 c 0,114,115
 401 863 401 863 370 852 c 128,-1,116
 339 841 339 841 317 822 c 128,-1,117
 295 803 295 803 283 777.5 c 128,-1,118
 271 752 271 752 271 723 c 0,119,120
 271 685 271 685 291 660 c 128,-1,121
 311 635 311 635 344 617 c 128,-1,122
 377 599 377 599 419.5 584.5 c 128,-1,123
 462 570 462 570 506 555 c 128,-1,124
 550 540 550 540 592.5 520 c 128,-1,125
 635 500 635 500 668 471 c 128,-1,126
 701 442 701 442 721 400.5 c 128,-1,127
 741 359 741 359 741 300 c 0,128,129
 741 237 741 237 720.5 182 c 128,-1,130
 700 127 700 127 661 85.5 c 128,-1,131
 622 44 622 44 564.5 18.5 c 128,-1,132
 507 -7 507 -7 432 -13 c 1,133,-1
 415 -72 l 1,134,135
 505 -90 505 -90 544.5 -124 c 128,-1,136
 584 -158 584 -158 584 -210 c 0,137,138
 584 -241 584 -241 568.5 -266 c 128,-1,139
 553 -291 553 -291 525.5 -308 c 128,-1,140
 498 -325 498 -325 459 -334.5 c 128,-1,141
 420 -344 420 -344 374 -344 c 0,142,143
 335 -344 335 -344 299 -336 c 128,-1,144
 263 -328 263 -328 233 -314 c 1,145,-1
 250 -260 l 2,146,147
 256 -243 256 -243 272 -243 c 0,0,1
EndSplineSet
Validated: 1
EndChar

StartChar: germandbls
Encoding: 158 223 122
Width: 1080
GlyphClass: 2
Flags: MW
LayerCount: 2
Fore
SplineSet
580 1404 m 0,0,1
 676 1404 676 1404 746 1375 c 128,-1,2
 816 1346 816 1346 861 1301 c 128,-1,3
 906 1256 906 1256 927.5 1202.5 c 128,-1,4
 949 1149 949 1149 949 1100 c 0,5,6
 949 1043 949 1043 930 1001 c 128,-1,7
 911 959 911 959 882.5 927.5 c 128,-1,8
 854 896 854 896 820.5 871.5 c 128,-1,9
 787 847 787 847 758.5 824.5 c 128,-1,10
 730 802 730 802 711 777.5 c 128,-1,11
 692 753 692 753 692 722 c 0,12,13
 692 684 692 684 716 659 c 128,-1,14
 740 634 740 634 775.5 612.5 c 128,-1,15
 811 591 811 591 852.5 568 c 128,-1,16
 894 545 894 545 929.5 511.5 c 128,-1,17
 965 478 965 478 989 428.5 c 128,-1,18
 1013 379 1013 379 1013 304 c 256,19,20
 1013 229 1013 229 986.5 170 c 128,-1,21
 960 111 960 111 914 69.5 c 128,-1,22
 868 28 868 28 806 6.5 c 128,-1,23
 744 -15 744 -15 672 -15 c 0,24,25
 585 -15 585 -15 512 18 c 128,-1,26
 439 51 439 51 385 103 c 1,27,-1
 426 170 l 2,28,29
 434 183 434 183 444.5 190 c 128,-1,30
 455 197 455 197 472 197 c 0,31,32
 490 197 490 197 508 183.5 c 128,-1,33
 526 170 526 170 550.5 153.5 c 128,-1,34
 575 137 575 137 607.5 123.5 c 128,-1,35
 640 110 640 110 687 110 c 0,36,37
 724 110 724 110 754 122.5 c 128,-1,38
 784 135 784 135 805 157.5 c 128,-1,39
 826 180 826 180 837 210.5 c 128,-1,40
 848 241 848 241 848 276 c 0,41,42
 848 330 848 330 823 363.5 c 128,-1,43
 798 397 798 397 760 421.5 c 128,-1,44
 722 446 722 446 678 467 c 128,-1,45
 634 488 634 488 596 515.5 c 128,-1,46
 558 543 558 543 533 583.5 c 128,-1,47
 508 624 508 624 508 688 c 0,48,49
 508 740 508 740 528 777.5 c 128,-1,50
 548 815 548 815 578 845.5 c 128,-1,51
 608 876 608 876 643.5 902 c 128,-1,52
 679 928 679 928 709 956.5 c 128,-1,53
 739 985 739 985 759 1019 c 128,-1,54
 779 1053 779 1053 779 1100 c 0,55,56
 779 1131 779 1131 768 1162 c 128,-1,57
 757 1193 757 1193 732 1218 c 128,-1,58
 707 1243 707 1243 668 1259 c 128,-1,59
 629 1275 629 1275 573 1275 c 0,60,61
 512 1275 512 1275 463 1254.5 c 128,-1,62
 414 1234 414 1234 379.5 1193.5 c 128,-1,63
 345 1153 345 1153 326 1092.5 c 128,-1,64
 307 1032 307 1032 307 951 c 2,65,-1
 307 0 l 1,66,-1
 131 0 l 1,67,-1
 131 956 l 2,68,69
 131 1056 131 1056 163 1139 c 128,-1,70
 195 1222 195 1222 253.5 1280.5 c 128,-1,71
 312 1339 312 1339 395 1371.5 c 128,-1,72
 478 1404 478 1404 580 1404 c 0,0,1
EndSplineSet
Validated: 1
EndChar

StartChar: longs
Encoding: 318 383 123
Width: 497
GlyphClass: 2
Flags: MW
LayerCount: 2
Fore
SplineSet
165 0 m 1,0,-1
 165 831 l 1,1,-1
 69 844 l 2,2,3
 49 846 49 846 36 857 c 128,-1,4
 23 868 23 868 23 888 c 2,5,-1
 23 960 l 1,6,-1
 165 960 l 1,7,-1
 165 1053 l 2,8,9
 165 1137 165 1137 187.5 1202.5 c 128,-1,10
 210 1268 210 1268 252 1312.5 c 128,-1,11
 294 1357 294 1357 353.5 1380.5 c 128,-1,12
 413 1404 413 1404 487 1404 c 0,13,14
 547 1404 547 1404 602 1385 c 1,15,-1
 595 1294 l 2,16,17
 594 1284 594 1284 588 1280 c 128,-1,18
 582 1276 582 1276 571.5 1275 c 128,-1,19
 561 1274 561 1274 546.5 1274.5 c 128,-1,20
 532 1275 532 1275 515 1275 c 0,21,22
 474 1275 474 1275 442 1263 c 128,-1,23
 410 1251 410 1251 387.5 1224 c 128,-1,24
 365 1197 365 1197 353 1153.5 c 128,-1,25
 341 1110 341 1110 341 1048 c 2,26,-1
 341 0 l 1,27,-1
 165 0 l 1,0,-1
EndSplineSet
Validated: 1
EndChar

StartChar: t
Encoding: 86 116 124
Width: 686
GlyphClass: 2
Flags: MW
LayerCount: 2
Fore
SplineSet
417 -15 m 0,0,1
 304 -15 304 -15 243 50 c 128,-1,2
 182 115 182 115 182 236 c 2,3,-1
 182 832 l 1,4,-1
 70 832 l 2,5,6
 55 832 55 832 44.5 842 c 128,-1,7
 34 852 34 852 34 871 c 2,8,-1
 34 941 l 1,9,-1
 188 961 l 1,10,-1
 229 1262 l 2,11,12
 231 1277 231 1277 241.5 1286 c 128,-1,13
 252 1295 252 1295 268 1295 c 2,14,-1
 358 1295 l 1,15,-1
 358 960 l 1,16,-1
 627 960 l 1,17,-1
 627 832 l 1,18,-1
 358 832 l 1,19,-1
 358 248 l 2,20,21
 358 188 358 188 385.5 158 c 128,-1,22
 413 128 413 128 457 128 c 0,23,24
 483 128 483 128 501.5 135 c 128,-1,25
 520 142 520 142 533 151 c 128,-1,26
 546 160 546 160 555.5 167 c 128,-1,27
 565 174 565 174 573 174 c 0,28,29
 582 174 582 174 587.5 170 c 128,-1,30
 593 166 593 166 598 157 c 2,31,-1
 650 73 l 1,32,33
 605 31 605 31 544 8 c 128,-1,34
 483 -15 483 -15 417 -15 c 0,0,1
EndSplineSet
Validated: 1
Substitution2: "sous-table 'ordn' Ordinaux dans Latin lookup 39" t.superior
Substitution2: "sous-table 'sups' Exposant lookups25" t.superior
EndChar

StartChar: tbar
Encoding: 294 359 126
Width: 700
GlyphClass: 2
Flags: MW
LayerCount: 2
Fore
SplineSet
42 668 m 1,0,-1
 182 668 l 1,1,-1
 182 832 l 1,2,-1
 70 832 l 2,3,4
 55 832 55 832 44.5 842 c 128,-1,5
 34 852 34 852 34 871 c 2,6,-1
 34 941 l 1,7,-1
 188 961 l 1,8,-1
 229 1262 l 2,9,10
 231 1277 231 1277 241.5 1286 c 128,-1,11
 252 1295 252 1295 268 1295 c 2,12,-1
 358 1295 l 1,13,-1
 358 960 l 1,14,-1
 627 960 l 1,15,-1
 627 832 l 1,16,-1
 358 832 l 1,17,-1
 358 668 l 1,18,-1
 632 668 l 1,19,-1
 632 557 l 1,20,-1
 358 557 l 1,21,-1
 358 248 l 2,22,23
 358 188 358 188 385.5 158 c 128,-1,24
 413 128 413 128 457 128 c 0,25,26
 483 128 483 128 501.5 135 c 128,-1,27
 520 142 520 142 533 151 c 128,-1,28
 546 160 546 160 555.5 167 c 128,-1,29
 565 174 565 174 573 174 c 0,30,31
 582 174 582 174 587.5 170 c 128,-1,32
 593 166 593 166 598 157 c 2,33,-1
 650 73 l 1,34,35
 605 31 605 31 544 8 c 128,-1,36
 483 -15 483 -15 417 -15 c 0,37,38
 304 -15 304 -15 243 50 c 128,-1,39
 182 115 182 115 182 236 c 2,40,-1
 182 557 l 1,41,-1
 42 557 l 1,42,-1
 42 668 l 1,0,-1
EndSplineSet
Validated: 1
EndChar

StartChar: t_f.liga
Encoding: 2157 -1 127
Width: 1254
GlyphClass: 3
Flags: MW
LayerCount: 2
Fore
SplineSet
799 0 m 1,0,-1
 799 832 l 1,1,-1
 353 832 l 1,2,-1
 353 248 l 2,3,4
 353 188 353 188 380 158 c 128,-1,5
 407 128 407 128 450 128 c 0,6,7
 475 128 475 128 493 135 c 128,-1,8
 511 142 511 142 523.5 151 c 128,-1,9
 536 160 536 160 545 167 c 128,-1,10
 554 174 554 174 562 174 c 0,11,12
 571 174 571 174 576.5 170 c 128,-1,13
 582 166 582 166 587 157 c 2,14,-1
 639 73 l 1,15,16
 595 31 595 31 535 8 c 128,-1,17
 475 -15 475 -15 410 -15 c 0,18,19
 298 -15 298 -15 237.5 50 c 128,-1,20
 177 115 177 115 177 236 c 2,21,-1
 177 832 l 1,22,-1
 69 832 l 2,23,24
 53 832 53 832 42.5 842 c 128,-1,25
 32 852 32 852 32 871 c 2,26,-1
 32 941 l 1,27,-1
 183 961 l 1,28,-1
 224 1262 l 2,29,30
 226 1277 226 1277 236.5 1286 c 128,-1,31
 247 1295 247 1295 264 1295 c 2,32,-1
 353 1295 l 1,33,-1
 353 960 l 1,34,-1
 799 960 l 1,35,-1
 799 1053 l 2,36,37
 799 1137 799 1137 822 1202.5 c 128,-1,38
 845 1268 845 1268 887.5 1312.5 c 128,-1,39
 930 1357 930 1357 990 1380.5 c 128,-1,40
 1050 1404 1050 1404 1124 1404 c 0,41,42
 1155 1404 1155 1404 1184 1399 c 128,-1,43
 1213 1394 1213 1394 1241 1385 c 1,44,-1
 1236 1297 l 2,45,46
 1234 1274 1234 1274 1211.5 1271.5 c 128,-1,47
 1189 1269 1189 1269 1153 1269 c 0,48,49
 1111 1269 1111 1269 1077.5 1258 c 128,-1,50
 1044 1247 1044 1247 1020 1221 c 128,-1,51
 996 1195 996 1195 983 1152.5 c 128,-1,52
 970 1110 970 1110 970 1048 c 2,53,-1
 970 960 l 1,54,-1
 1232 960 l 1,55,-1
 1232 832 l 1,56,-1
 975 832 l 1,57,-1
 975 0 l 1,58,-1
 799 0 l 1,0,-1
EndSplineSet
Validated: 1
Ligature2: "sous-table 'liga' Ligatures standard dans Latin lookup 37" t f
EndChar

StartChar: t_iogonek.liga
Encoding: 2158 -1 128
Width: 1141
GlyphClass: 3
Flags: MW
LayerCount: 2
Fore
SplineSet
1033 -203 m 0,0,1
 1046 -203 1046 -203 1051 -215 c 2,2,-1
 1078 -280 l 1,3,4
 1050 -302 1050 -302 1007.5 -316 c 128,-1,5
 965 -330 965 -330 917 -330 c 0,6,7
 835 -330 835 -330 788.5 -292 c 128,-1,8
 742 -254 742 -254 742 -190 c 0,9,10
 742 -134 742 -134 777 -85 c 128,-1,11
 812 -36 812 -36 869 0 c 1,12,-1
 818 0 l 1,13,-1
 818 832 l 1,14,-1
 353 832 l 1,15,-1
 353 248 l 2,16,17
 353 188 353 188 379.5 158 c 128,-1,18
 406 128 406 128 449 128 c 0,19,20
 474 128 474 128 491.5 135 c 128,-1,21
 509 142 509 142 521.5 151 c 128,-1,22
 534 160 534 160 543 167 c 128,-1,23
 552 174 552 174 560 174 c 0,24,25
 569 174 569 174 574.5 170 c 128,-1,26
 580 166 580 166 585 157 c 2,27,-1
 637 73 l 1,28,29
 593 31 593 31 533 8 c 128,-1,30
 473 -15 473 -15 408 -15 c 0,31,32
 297 -15 297 -15 237 50 c 128,-1,33
 177 115 177 115 177 236 c 2,34,-1
 177 832 l 1,35,-1
 69 832 l 2,36,37
 53 832 53 832 42.5 842 c 128,-1,38
 32 852 32 852 32 871 c 2,39,-1
 32 941 l 1,40,-1
 183 961 l 1,41,-1
 223 1262 l 2,42,43
 226 1277 226 1277 236 1286 c 128,-1,44
 246 1295 246 1295 263 1295 c 2,45,-1
 353 1295 l 1,46,-1
 353 960 l 1,47,-1
 994 960 l 1,48,-1
 994 0 l 1,49,-1
 979 0 l 1,50,51
 961 -11 961 -11 942.5 -25.5 c 128,-1,52
 924 -40 924 -40 908.5 -59 c 128,-1,53
 893 -78 893 -78 883.5 -100 c 128,-1,54
 874 -122 874 -122 874 -147 c 0,55,56
 874 -183 874 -183 896 -204 c 128,-1,57
 918 -225 918 -225 954 -225 c 0,58,59
 974 -225 974 -225 987 -221.5 c 128,-1,60
 1000 -218 1000 -218 1008.5 -214 c 128,-1,61
 1017 -210 1017 -210 1022.5 -206.5 c 128,-1,62
 1028 -203 1028 -203 1033 -203 c 0,0,1
1028 1284 m 0,63,64
 1028 1259 1028 1259 1018 1237 c 128,-1,65
 1008 1215 1008 1215 991 1198 c 128,-1,66
 974 1181 974 1181 952 1171 c 128,-1,67
 930 1161 930 1161 905 1161 c 0,68,69
 881 1161 881 1161 859 1171 c 128,-1,70
 837 1181 837 1181 820.5 1198 c 128,-1,71
 804 1215 804 1215 794.5 1237 c 128,-1,72
 785 1259 785 1259 785 1284 c 0,73,74
 785 1310 785 1310 794.5 1332.5 c 128,-1,75
 804 1355 804 1355 820.5 1372 c 128,-1,76
 837 1389 837 1389 859 1399 c 128,-1,77
 881 1409 881 1409 905 1409 c 0,78,79
 930 1409 930 1409 952 1399 c 128,-1,80
 974 1389 974 1389 991 1372 c 128,-1,81
 1008 1355 1008 1355 1018 1332.5 c 128,-1,82
 1028 1310 1028 1310 1028 1284 c 0,63,64
EndSplineSet
Validated: 1
Ligature2: "sous-table 'liga' Ligatures standard dans Latin lookup 37" t iogonek
EndChar

StartChar: t_dotlessi.liga
Encoding: 2159 -1 129
Width: 1141
GlyphClass: 3
Flags: MW
LayerCount: 2
Fore
SplineSet
994 960 m 1,0,-1
 994 0 l 1,1,-1
 818 0 l 1,2,-1
 818 832 l 1,3,-1
 353 832 l 1,4,-1
 353 248 l 2,5,6
 353 188 353 188 379.5 158 c 128,-1,7
 406 128 406 128 449 128 c 0,8,9
 474 128 474 128 491.5 135 c 128,-1,10
 509 142 509 142 521.5 151 c 128,-1,11
 534 160 534 160 543 167 c 128,-1,12
 552 174 552 174 560 174 c 0,13,14
 569 174 569 174 574.5 170 c 128,-1,15
 580 166 580 166 585 157 c 2,16,-1
 637 73 l 1,17,18
 593 31 593 31 533 8 c 128,-1,19
 473 -15 473 -15 408 -15 c 0,20,21
 297 -15 297 -15 237 50 c 128,-1,22
 177 115 177 115 177 236 c 2,23,-1
 177 832 l 1,24,-1
 69 832 l 2,25,26
 53 832 53 832 42.5 842 c 128,-1,27
 32 852 32 852 32 871 c 2,28,-1
 32 941 l 1,29,-1
 183 961 l 1,30,-1
 223 1262 l 2,31,32
 226 1277 226 1277 236 1286 c 128,-1,33
 246 1295 246 1295 263 1295 c 2,34,-1
 353 1295 l 1,35,-1
 353 960 l 1,36,-1
 994 960 l 1,0,-1
EndSplineSet
Validated: 1
Ligature2: "sous-table 'liga' Ligatures standard dans Latin lookup 37" t dotlessi
EndChar

StartChar: t_t.liga
Encoding: 2160 -1 130
Width: 1299
GlyphClass: 3
Flags: MW
LayerCount: 2
Fore
SplineSet
419 -15 m 0,0,1
 306 -15 306 -15 244.5 50 c 128,-1,2
 183 115 183 115 183 236 c 2,3,-1
 183 832 l 1,4,-1
 71 832 l 2,5,6
 55 832 55 832 44.5 842 c 128,-1,7
 34 852 34 852 34 871 c 2,8,-1
 34 941 l 1,9,-1
 189 961 l 1,10,-1
 230 1262 l 2,11,12
 232 1277 232 1277 242.5 1286 c 128,-1,13
 253 1295 253 1295 270 1295 c 2,14,-1
 359 1295 l 1,15,-1
 359 960 l 1,16,-1
 799 960 l 1,17,-1
 840 1262 l 2,18,19
 842 1277 842 1277 852.5 1286 c 128,-1,20
 863 1295 863 1295 879 1295 c 2,21,-1
 969 1295 l 1,22,-1
 969 960 l 1,23,-1
 1240 960 l 1,24,-1
 1240 832 l 1,25,-1
 969 832 l 1,26,-1
 969 248 l 2,27,28
 969 188 969 188 997 158 c 128,-1,29
 1025 128 1025 128 1069 128 c 0,30,31
 1095 128 1095 128 1114 135 c 128,-1,32
 1133 142 1133 142 1146.5 151 c 128,-1,33
 1160 160 1160 160 1169 167 c 128,-1,34
 1178 174 1178 174 1186 174 c 0,35,36
 1200 174 1200 174 1210 157 c 2,37,-1
 1263 73 l 1,38,39
 1218 31 1218 31 1157 8 c 128,-1,40
 1096 -15 1096 -15 1030 -15 c 0,41,42
 916 -15 916 -15 854.5 50 c 128,-1,43
 793 115 793 115 793 236 c 2,44,-1
 793 832 l 1,45,-1
 359 832 l 1,46,-1
 359 248 l 2,47,48
 359 188 359 188 387 158 c 128,-1,49
 415 128 415 128 459 128 c 0,50,51
 485 128 485 128 503.5 135 c 128,-1,52
 522 142 522 142 535.5 151 c 128,-1,53
 549 160 549 160 558.5 167 c 128,-1,54
 568 174 568 174 576 174 c 0,55,56
 585 174 585 174 590.5 170 c 128,-1,57
 596 166 596 166 601 157 c 2,58,-1
 653 73 l 1,59,60
 608 31 608 31 546.5 8 c 128,-1,61
 485 -15 485 -15 419 -15 c 0,0,1
EndSplineSet
Validated: 1
Ligature2: "sous-table 'liga' Ligatures standard dans Latin lookup 37" t t
EndChar

StartChar: t_t_f.liga
Encoding: 2161 -1 131
Width: 1867
GlyphClass: 3
Flags: MW
LayerCount: 2
Fore
SplineSet
1410 0 m 1,0,-1
 1410 832 l 1,1,-1
 957 832 l 1,2,-1
 957 248 l 2,3,4
 957 188 957 188 984.5 158 c 128,-1,5
 1012 128 1012 128 1055 128 c 0,6,7
 1080 128 1080 128 1098.5 135 c 128,-1,8
 1117 142 1117 142 1130.5 151 c 128,-1,9
 1144 160 1144 160 1153 167 c 128,-1,10
 1162 174 1162 174 1169 174 c 0,11,12
 1178 174 1178 174 1183.5 170 c 128,-1,13
 1189 166 1189 166 1194 157 c 2,14,-1
 1246 73 l 1,15,16
 1201 31 1201 31 1141 8 c 128,-1,17
 1081 -15 1081 -15 1016 -15 c 0,18,19
 903 -15 903 -15 842 50 c 128,-1,20
 781 115 781 115 781 236 c 2,21,-1
 781 832 l 1,22,-1
 356 832 l 1,23,-1
 356 248 l 2,24,25
 356 188 356 188 383 158 c 128,-1,26
 410 128 410 128 454 128 c 0,27,28
 479 128 479 128 497.5 135 c 128,-1,29
 516 142 516 142 529 151 c 128,-1,30
 542 160 542 160 551 167 c 128,-1,31
 560 174 560 174 568 174 c 0,32,33
 577 174 577 174 582 170 c 128,-1,34
 587 166 587 166 592 157 c 2,35,-1
 645 73 l 1,36,37
 600 31 600 31 539.5 8 c 128,-1,38
 479 -15 479 -15 413 -15 c 0,39,40
 301 -15 301 -15 240.5 50 c 128,-1,41
 180 115 180 115 180 236 c 2,42,-1
 180 832 l 1,43,-1
 70 832 l 2,44,45
 54 832 54 832 43.5 842 c 128,-1,46
 33 852 33 852 33 871 c 2,47,-1
 33 941 l 1,48,-1
 186 961 l 1,49,-1
 226 1262 l 2,50,51
 229 1277 229 1277 239 1286 c 128,-1,52
 249 1295 249 1295 266 1295 c 2,53,-1
 356 1295 l 1,54,-1
 356 960 l 1,55,-1
 787 960 l 1,56,-1
 828 1262 l 2,57,58
 830 1277 830 1277 840.5 1286 c 128,-1,59
 851 1295 851 1295 868 1295 c 2,60,-1
 957 1295 l 1,61,-1
 957 960 l 1,62,-1
 1410 960 l 1,63,-1
 1410 1053 l 2,64,65
 1410 1137 1410 1137 1433 1202.5 c 128,-1,66
 1456 1268 1456 1268 1498 1312.5 c 128,-1,67
 1540 1357 1540 1357 1600.5 1380.5 c 128,-1,68
 1661 1404 1661 1404 1736 1404 c 0,69,70
 1767 1404 1767 1404 1796.5 1399 c 128,-1,71
 1826 1394 1826 1394 1853 1385 c 1,72,-1
 1848 1297 l 2,73,74
 1847 1274 1847 1274 1824.5 1271.5 c 128,-1,75
 1802 1269 1802 1269 1765 1269 c 0,76,77
 1723 1269 1723 1269 1689 1258 c 128,-1,78
 1655 1247 1655 1247 1630.5 1221 c 128,-1,79
 1606 1195 1606 1195 1593 1152.5 c 128,-1,80
 1580 1110 1580 1110 1580 1048 c 2,81,-1
 1580 960 l 1,82,-1
 1845 960 l 1,83,-1
 1845 832 l 1,84,-1
 1586 832 l 1,85,-1
 1586 0 l 1,86,-1
 1410 0 l 1,0,-1
EndSplineSet
Validated: 1
Ligature2: "sous-table 'liga' Ligatures standard dans Latin lookup 37" t t f
EndChar

StartChar: t_t_dotlessi.liga
Encoding: 2163 -1 133
Width: 1753
GlyphClass: 3
Flags: MW
LayerCount: 2
Fore
SplineSet
1601 960 m 1,0,-1
 1601 0 l 1,1,-1
 1425 0 l 1,2,-1
 1425 832 l 1,3,-1
 965 832 l 1,4,-1
 965 248 l 2,5,6
 965 188 965 188 992.5 158 c 128,-1,7
 1020 128 1020 128 1064 128 c 0,8,9
 1090 128 1090 128 1108.5 135 c 128,-1,10
 1127 142 1127 142 1140.5 151 c 128,-1,11
 1154 160 1154 160 1163 167 c 128,-1,12
 1172 174 1172 174 1180 174 c 0,13,14
 1189 174 1189 174 1194.5 170 c 128,-1,15
 1200 166 1200 166 1205 157 c 2,16,-1
 1257 73 l 1,17,18
 1212 31 1212 31 1151.5 8 c 128,-1,19
 1091 -15 1091 -15 1025 -15 c 0,20,21
 911 -15 911 -15 850 50 c 128,-1,22
 789 115 789 115 789 236 c 2,23,-1
 789 832 l 1,24,-1
 358 832 l 1,25,-1
 358 248 l 2,26,27
 358 188 358 188 385.5 158 c 128,-1,28
 413 128 413 128 457 128 c 0,29,30
 483 128 483 128 501.5 135 c 128,-1,31
 520 142 520 142 533.5 151 c 128,-1,32
 547 160 547 160 556 167 c 128,-1,33
 565 174 565 174 573 174 c 0,34,35
 582 174 582 174 587.5 170 c 128,-1,36
 593 166 593 166 598 157 c 2,37,-1
 650 73 l 1,38,39
 605 31 605 31 544 8 c 128,-1,40
 483 -15 483 -15 417 -15 c 0,41,42
 305 -15 305 -15 243.5 50 c 128,-1,43
 182 115 182 115 182 236 c 2,44,-1
 182 832 l 1,45,-1
 70 832 l 2,46,47
 55 832 55 832 44.5 842 c 128,-1,48
 34 852 34 852 34 871 c 2,49,-1
 34 941 l 1,50,-1
 188 961 l 1,51,-1
 229 1262 l 2,52,53
 231 1277 231 1277 241.5 1286 c 128,-1,54
 252 1295 252 1295 269 1295 c 2,55,-1
 358 1295 l 1,56,-1
 358 960 l 1,57,-1
 795 960 l 1,58,-1
 836 1262 l 2,59,60
 838 1277 838 1277 848.5 1286 c 128,-1,61
 859 1295 859 1295 875 1295 c 2,62,-1
 965 1295 l 1,63,-1
 965 960 l 1,64,-1
 1601 960 l 1,0,-1
EndSplineSet
Validated: 1
Ligature2: "sous-table 'liga' Ligatures standard dans Latin lookup 37" t t dotlessi
EndChar

StartChar: u
Encoding: 87 117 134
Width: 1076
GlyphClass: 2
Flags: MW
LayerCount: 2
Fore
SplineSet
301 978 m 1,0,-1
 301 355 l 2,1,2
 301 245 301 245 350.5 184.5 c 128,-1,3
 400 124 400 124 501 124 c 0,4,5
 576 124 576 124 640.5 159.5 c 128,-1,6
 705 195 705 195 760 257 c 1,7,-1
 760 978 l 1,8,-1
 936 978 l 1,9,-1
 936 0 l 1,10,-1
 830 0 l 2,11,12
 812 0 812 0 800 8.5 c 128,-1,13
 788 17 788 17 786 36 c 2,14,-1
 770 140 l 1,15,16
 707 70 707 70 629.5 27.5 c 128,-1,17
 552 -15 552 -15 450 -15 c 0,18,19
 370 -15 370 -15 309.5 11.5 c 128,-1,20
 249 38 249 38 208 86.5 c 128,-1,21
 167 135 167 135 146 203.5 c 128,-1,22
 125 272 125 272 125 355 c 2,23,-1
 125 978 l 1,24,-1
 301 978 l 1,0,-1
EndSplineSet
Validated: 1
Substitution2: "sous-table 'ordn' Ordinaux dans Latin lookup 39" u.superior
Substitution2: "sous-table 'sups' Exposant lookups25" u.superior
EndChar

StartChar: uogonek
Encoding: 306 371 135
Width: 1076
GlyphClass: 2
Flags: MW
LayerCount: 2
Fore
SplineSet
301 978 m 1,0,-1
 301 355 l 2,1,2
 301 245 301 245 350.5 184.5 c 128,-1,3
 400 124 400 124 501 124 c 0,4,5
 576 124 576 124 640.5 159.5 c 128,-1,6
 705 195 705 195 760 257 c 1,7,-1
 760 978 l 1,8,-1
 936 978 l 1,9,-1
 936 1 l 1,10,-1
 948 0 l 1,11,12
 929 -11 929 -11 909.5 -25.5 c 128,-1,13
 890 -40 890 -40 873.5 -59 c 128,-1,14
 857 -78 857 -78 846.5 -100 c 128,-1,15
 836 -122 836 -122 836 -147 c 0,16,17
 836 -183 836 -183 860 -204 c 128,-1,18
 884 -225 884 -225 922 -225 c 0,19,20
 944 -225 944 -225 958 -221.5 c 128,-1,21
 972 -218 972 -218 982 -214 c 128,-1,22
 992 -210 992 -210 998 -206.5 c 128,-1,23
 1004 -203 1004 -203 1009 -203 c 0,24,25
 1022 -203 1022 -203 1027 -215 c 2,26,-1
 1054 -280 l 1,27,28
 1025 -302 1025 -302 980.5 -316 c 128,-1,29
 936 -330 936 -330 886 -330 c 0,30,31
 801 -330 801 -330 752.5 -292 c 128,-1,32
 704 -254 704 -254 704 -190 c 0,33,34
 704 -134 704 -134 741.5 -85 c 128,-1,35
 779 -36 779 -36 837 0 c 1,36,-1
 830 0 l 2,37,38
 812 0 812 0 800 8.5 c 128,-1,39
 788 17 788 17 786 36 c 2,40,-1
 770 140 l 1,41,42
 707 70 707 70 629.5 27.5 c 128,-1,43
 552 -15 552 -15 450 -15 c 0,44,45
 370 -15 370 -15 309.5 11.5 c 128,-1,46
 249 38 249 38 208 86.5 c 128,-1,47
 167 135 167 135 146 203.5 c 128,-1,48
 125 272 125 272 125 355 c 2,49,-1
 125 978 l 1,50,-1
 301 978 l 1,0,-1
EndSplineSet
Validated: 1
EndChar

StartChar: v
Encoding: 88 118 136
Width: 925
GlyphClass: 2
Flags: MW
LayerCount: 2
Fore
SplineSet
542 0 m 1,0,-1
 383 0 l 1,1,-1
 19 978 l 1,2,-1
 164 978 l 2,3,4
 184 978 184 978 198 967 c 128,-1,5
 212 956 212 956 217 942 c 2,6,-1
 426 316 l 2,7,8
 439 281 439 281 448 248 c 128,-1,9
 457 215 457 215 465 181 c 1,10,11
 472 214 472 214 481.5 247.5 c 128,-1,12
 491 281 491 281 505 316 c 2,13,-1
 717 942 l 2,14,15
 723 957 723 957 736.5 967.5 c 128,-1,16
 750 978 750 978 767 978 c 2,17,-1
 906 978 l 1,18,-1
 542 0 l 1,0,-1
EndSplineSet
Validated: 1
Substitution2: "sous-table 'ordn' Ordinaux dans Latin lookup 39" v.superior
Substitution2: "sous-table 'sups' Exposant lookups25" v.superior
EndChar

StartChar: w
Encoding: 89 119 137
Width: 1464
GlyphClass: 2
Flags: MW
LayerCount: 2
Fore
SplineSet
21 978 m 1,0,-1
 160 978 l 2,1,2
 180 978 180 978 194 967 c 128,-1,3
 208 956 208 956 212 941 c 2,4,-1
 387 317 l 2,5,6
 397 283 397 283 404 250.5 c 128,-1,7
 411 218 411 218 416 186 c 1,8,9
 424 218 424 218 434 250.5 c 128,-1,10
 444 283 444 283 455 318 c 2,11,-1
 649 946 l 2,12,13
 654 961 654 961 667 970.5 c 128,-1,14
 680 980 680 980 698 980 c 2,15,-1
 774 980 l 2,16,17
 794 980 794 980 806.5 970.5 c 128,-1,18
 819 961 819 961 824 946 c 2,19,-1
 1014 318 l 2,20,21
 1025 284 1025 284 1034 251 c 128,-1,22
 1043 218 1043 218 1051 186 c 1,23,24
 1062 251 1062 251 1082 318 c 2,25,-1
 1261 942 l 2,26,27
 1266 958 1266 958 1279 968 c 128,-1,28
 1292 978 1292 978 1311 978 c 2,29,-1
 1443 978 l 1,30,-1
 1136 0 l 1,31,-1
 996 0 l 2,32,33
 971 0 971 0 961 33 c 2,34,-1
 756 692 l 2,35,36
 748 715 748 715 742.5 737.5 c 128,-1,37
 737 760 737 760 732 783 c 1,38,39
 727 760 727 760 722 737 c 128,-1,40
 717 714 717 714 709 691 c 2,41,-1
 501 33 l 2,42,43
 490 0 490 0 462 0 c 2,44,-1
 329 0 l 1,45,-1
 21 978 l 1,0,-1
EndSplineSet
Validated: 1
Substitution2: "sous-table 'ordn' Ordinaux dans Latin lookup 39" w.superior
Substitution2: "sous-table 'sups' Exposant lookups25" w.superior
EndChar

StartChar: x
Encoding: 90 120 138
Width: 887
GlyphClass: 2
Flags: MW
LayerCount: 2
Fore
SplineSet
327 502 m 1,0,-1
 36 978 l 1,1,-1
 204 978 l 2,2,3
 224 978 224 978 233.5 971 c 128,-1,4
 243 964 243 964 251 952 c 2,5,-1
 455 597 l 1,6,7
 459 608 459 608 463.5 618.5 c 128,-1,8
 468 629 468 629 476 640 c 2,9,-1
 647 948 l 2,10,11
 656 962 656 962 666 970 c 128,-1,12
 676 978 676 978 690 978 c 2,13,-1
 851 978 l 1,14,-1
 559 511 l 1,15,-1
 864 0 l 1,16,-1
 695 0 l 2,17,18
 675 0 675 0 662.5 11.5 c 128,-1,19
 650 23 650 23 642 36 c 2,20,-1
 435 406 l 1,21,22
 427 383 427 383 417 367 c 2,23,-1
 230 36 l 2,24,25
 222 22 222 22 210.5 11 c 128,-1,26
 199 0 199 0 180 0 c 2,27,-1
 23 0 l 1,28,-1
 327 502 l 1,0,-1
EndSplineSet
Validated: 1
Substitution2: "sous-table 'ordn' Ordinaux dans Latin lookup 39" x.superior
Substitution2: "sous-table 'sups' Exposant lookups25" x.superior
EndChar

StartChar: y
Encoding: 91 121 139
Width: 927
GlyphClass: 2
Flags: MW
LayerCount: 2
Fore
SplineSet
409 -288 m 2,0,1
 401 -308 401 -308 387.5 -319 c 128,-1,2
 374 -330 374 -330 348 -330 c 2,3,-1
 217 -330 l 1,4,-1
 385 58 l 1,5,-1
 11 978 l 1,6,-1
 163 978 l 2,7,8
 186 978 186 978 198 967 c 128,-1,9
 210 956 210 956 216 942 c 2,10,-1
 444 330 l 2,11,12
 452 309 452 309 459.5 288 c 128,-1,13
 467 267 467 267 472 246 c 1,14,15
 478 268 478 268 485.5 289.5 c 128,-1,16
 493 311 493 311 501 332 c 2,17,-1
 722 942 l 2,18,19
 728 957 728 957 742 967.5 c 128,-1,20
 756 978 756 978 773 978 c 2,21,-1
 913 978 l 1,22,-1
 409 -288 l 2,0,1
EndSplineSet
Validated: 1
Substitution2: "sous-table 'salt' Alternatives stylistiques lookups28" y.salt
Substitution2: "sous-table 'ordn' Ordinaux dans Latin lookup 39" y.superior
Substitution2: "sous-table 'sups' Exposant lookups25" y.superior
Substitution2: "sous-table 'ss04' Style 4 lookups34" y.salt
EndChar

StartChar: z
Encoding: 92 122 140
Width: 809
GlyphClass: 2
Flags: MW
LayerCount: 2
Fore
SplineSet
749 904 m 2,0,1
 749 885 749 885 742.5 867.5 c 128,-1,2
 736 850 736 850 726 836 c 2,3,-1
 263 137 l 1,4,-1
 734 137 l 1,5,-1
 734 0 l 1,6,-1
 60 0 l 1,7,-1
 60 73 l 2,8,9
 60 86 60 86 66.5 103 c 128,-1,10
 73 120 73 120 84 136 c 2,11,-1
 548 841 l 1,12,-1
 87 841 l 1,13,-1
 87 978 l 1,14,-1
 749 978 l 1,15,-1
 749 904 l 2,0,1
EndSplineSet
Validated: 1
Substitution2: "sous-table 'ordn' Ordinaux dans Latin lookup 39" z.superior
Substitution2: "sous-table 'sups' Exposant lookups25" z.superior
EndChar

StartChar: ordfeminine
Encoding: 106 170 141
Width: 824
GlyphClass: 2
Flags: MW
LayerCount: 2
Fore
SplineSet
599 811 m 2,0,1
 581 811 581 811 572 816.5 c 128,-1,2
 563 822 563 822 555 839 c 2,3,-1
 543 886 l 1,4,5
 520 865 520 865 498 849.5 c 128,-1,6
 476 834 476 834 452 823.5 c 128,-1,7
 428 813 428 813 401 807.5 c 128,-1,8
 374 802 374 802 341 802 c 0,9,10
 305 802 305 802 273.5 812 c 128,-1,11
 242 822 242 822 218.5 841.5 c 128,-1,12
 195 861 195 861 182 890 c 128,-1,13
 169 919 169 919 169 958 c 0,14,15
 169 991 169 991 187 1023.5 c 128,-1,16
 205 1056 205 1056 247.5 1081.5 c 128,-1,17
 290 1107 290 1107 360 1124 c 128,-1,18
 430 1141 430 1141 533 1143 c 1,19,-1
 533 1178 l 2,20,21
 533 1239 533 1239 505.5 1267.5 c 128,-1,22
 478 1296 478 1296 424 1296 c 0,23,24
 388 1296 388 1296 363.5 1287.5 c 128,-1,25
 339 1279 339 1279 321 1269.5 c 128,-1,26
 303 1260 303 1260 289 1251.5 c 128,-1,27
 275 1243 275 1243 259 1243 c 0,28,29
 246 1243 246 1243 236.5 1250.5 c 128,-1,30
 227 1258 227 1258 222 1267 c 2,31,-1
 199 1307 l 1,32,33
 250 1355 250 1355 309 1377.5 c 128,-1,34
 368 1400 368 1400 439 1400 c 0,35,36
 491 1400 491 1400 531.5 1383.5 c 128,-1,37
 572 1367 572 1367 600 1337.5 c 128,-1,38
 628 1308 628 1308 643 1267.5 c 128,-1,39
 658 1227 658 1227 658 1178 c 2,40,-1
 658 811 l 1,41,-1
 599 811 l 2,0,1
380 892 m 0,42,43
 428 892 428 892 463 910 c 128,-1,44
 498 928 498 928 533 961 c 1,45,-1
 533 1062 l 1,46,47
 466 1060 466 1060 420 1052 c 128,-1,48
 374 1044 374 1044 345.5 1031.5 c 128,-1,49
 317 1019 317 1019 304.5 1002 c 128,-1,50
 292 985 292 985 292 965 c 0,51,52
 292 925 292 925 317 908.5 c 128,-1,53
 342 892 342 892 380 892 c 0,42,43
EndSplineSet
Validated: 1
Substitution2: "sous-table 'case' Formes sensibles +AOAA la casse lookups14" ordfeminine.case
EndChar

StartChar: ordmasculine
Encoding: 121 186 142
Width: 865
GlyphClass: 2
Flags: MW
LayerCount: 2
Fore
SplineSet
433 1399 m 256,0,1
 501 1399 501 1399 556 1378 c 128,-1,2
 611 1357 611 1357 650 1318.5 c 128,-1,3
 689 1280 689 1280 710.5 1224.5 c 128,-1,4
 732 1169 732 1169 732 1100 c 256,5,6
 732 1031 732 1031 710.5 975 c 128,-1,7
 689 919 689 919 650 880 c 128,-1,8
 611 841 611 841 556 820 c 128,-1,9
 501 799 501 799 433 799 c 256,10,11
 365 799 365 799 309.5 820 c 128,-1,12
 254 841 254 841 215 880 c 128,-1,13
 176 919 176 919 154.5 975 c 128,-1,14
 133 1031 133 1031 133 1100 c 256,15,16
 133 1169 133 1169 154.5 1224.5 c 128,-1,17
 176 1280 176 1280 215 1318.5 c 128,-1,18
 254 1357 254 1357 309.5 1378 c 128,-1,19
 365 1399 365 1399 433 1399 c 256,0,1
433 903 m 0,20,21
 514 903 514 903 554 953 c 128,-1,22
 594 1003 594 1003 594 1099 c 256,23,24
 594 1195 594 1195 554 1245 c 128,-1,25
 514 1295 514 1295 433 1295 c 0,26,27
 350 1295 350 1295 310.5 1245 c 128,-1,28
 271 1195 271 1195 271 1099 c 256,29,30
 271 1003 271 1003 310.5 953 c 128,-1,31
 350 903 350 903 433 903 c 0,20,21
EndSplineSet
Validated: 1
EndChar

StartChar: ordfeminine.case
Encoding: 2164 -1 143
Width: 888
GlyphClass: 2
Flags: MW
LayerCount: 2
Fore
SplineSet
695 811 m 1,0,-1
 596 811 l 2,1,2
 582 811 582 811 572.5 818 c 128,-1,3
 563 825 563 825 559 836 c 2,4,-1
 520 939 l 1,5,-1
 299 939 l 1,6,-1
 261 837 l 2,7,8
 257 827 257 827 248 819 c 128,-1,9
 239 811 239 811 225 811 c 2,10,-1
 125 811 l 1,11,-1
 353 1383 l 1,12,-1
 467 1383 l 1,13,-1
 695 811 l 1,0,-1
334 1031 m 1,14,-1
 486 1031 l 1,15,-1
 424 1199 l 2,16,17
 419 1209 419 1209 416 1220.5 c 128,-1,18
 413 1232 413 1232 410 1244 c 1,19,20
 408 1231 408 1231 404.5 1220 c 128,-1,21
 401 1209 401 1209 397 1198 c 2,22,-1
 334 1031 l 1,14,-1
EndSplineSet
Validated: 1
EndChar

StartChar: a.superior
Encoding: 2165 -1 144
Width: 684
GlyphClass: 2
Flags: MW
LayerCount: 2
Fore
SplineSet
487 883 m 2,0,1
 470 883 470 883 460 888 c 128,-1,2
 450 893 450 893 445 910 c 2,3,-1
 434 943 l 1,4,5
 396 910 396 910 359.5 892.5 c 128,-1,6
 323 875 323 875 269 875 c 0,7,8
 204 875 204 875 163.5 909 c 128,-1,9
 123 943 123 943 123 1011 c 0,10,11
 123 1039 123 1039 137.5 1066.5 c 128,-1,12
 152 1094 152 1094 186.5 1116.5 c 128,-1,13
 221 1139 221 1139 278.5 1154 c 128,-1,14
 336 1169 336 1169 422 1171 c 1,15,-1
 422 1198 l 2,16,17
 422 1247 422 1247 401 1270 c 128,-1,18
 380 1293 380 1293 341 1293 c 0,19,20
 312 1293 312 1293 293 1286.5 c 128,-1,21
 274 1280 274 1280 259.5 1271.5 c 128,-1,22
 245 1263 245 1263 233 1256.5 c 128,-1,23
 221 1250 221 1250 206 1250 c 0,24,25
 193 1250 193 1250 183.5 1256.5 c 128,-1,26
 174 1263 174 1263 169 1273 c 2,27,-1
 146 1313 l 1,28,29
 232 1392 232 1392 357 1392 c 0,30,31
 401 1392 401 1392 436 1377.5 c 128,-1,32
 471 1363 471 1363 495 1337.5 c 128,-1,33
 519 1312 519 1312 531.5 1276.5 c 128,-1,34
 544 1241 544 1241 544 1198 c 2,35,-1
 544 883 l 1,36,-1
 487 883 l 2,0,1
308 961 m 0,37,38
 343 961 343 961 369.5 973.5 c 128,-1,39
 396 986 396 986 422 1012 c 1,40,-1
 422 1094 l 1,41,42
 370 1092 370 1092 335.5 1085.5 c 128,-1,43
 301 1079 301 1079 280 1069 c 128,-1,44
 259 1059 259 1059 250.5 1045.5 c 128,-1,45
 242 1032 242 1032 242 1017 c 0,46,47
 242 987 242 987 260 974 c 128,-1,48
 278 961 278 961 308 961 c 0,37,38
EndSplineSet
Validated: 1
EndChar

StartChar: b.superior
Encoding: 2166 -1 145
Width: 741
GlyphClass: 2
Flags: MW
LayerCount: 2
Fore
SplineSet
280 1324 m 1,0,1
 309 1354 309 1354 346 1372.5 c 128,-1,2
 383 1391 383 1391 433 1391 c 0,3,4
 474 1391 474 1391 508 1374 c 128,-1,5
 542 1357 542 1357 566.5 1325 c 128,-1,6
 591 1293 591 1293 604.5 1245 c 128,-1,7
 618 1197 618 1197 618 1136 c 0,8,9
 618 1080 618 1080 602.5 1032.5 c 128,-1,10
 587 985 587 985 559 950 c 128,-1,11
 531 915 531 915 491.5 895 c 128,-1,12
 452 875 452 875 403 875 c 0,13,14
 355 875 355 875 325 893 c 128,-1,15
 295 911 295 911 270 941 c 1,16,-1
 267 907 l 2,17,18
 265 893 265 893 257.5 888 c 128,-1,19
 250 883 250 883 237 883 c 2,20,-1
 155 883 l 1,21,-1
 155 1607 l 1,22,-1
 280 1607 l 1,23,-1
 280 1324 l 1,0,1
387 1293 m 0,24,25
 355 1293 355 1293 329.5 1278.5 c 128,-1,26
 304 1264 304 1264 280 1236 c 1,27,-1
 280 1012 l 1,28,29
 300 989 300 989 323.5 980 c 128,-1,30
 347 971 347 971 374 971 c 0,31,32
 426 971 426 971 457.5 1010.5 c 128,-1,33
 489 1050 489 1050 489 1136 c 256,34,35
 489 1222 489 1222 462 1257.5 c 128,-1,36
 435 1293 435 1293 387 1293 c 0,24,25
EndSplineSet
Validated: 1
EndChar

StartChar: c.superior
Encoding: 2167 -1 146
Width: 590
GlyphClass: 2
Flags: MW
LayerCount: 2
Fore
SplineSet
478 1274 m 2,0,1
 473 1266 473 1266 467.5 1262.5 c 128,-1,2
 462 1259 462 1259 452 1259 c 0,3,4
 443 1259 443 1259 434 1264.5 c 128,-1,5
 425 1270 425 1270 413 1277 c 128,-1,6
 401 1284 401 1284 384.5 1289.5 c 128,-1,7
 368 1295 368 1295 344 1295 c 0,8,9
 280 1295 280 1295 249 1252 c 128,-1,10
 218 1209 218 1209 218 1133 c 0,11,12
 218 1055 218 1055 251 1013 c 128,-1,13
 284 971 284 971 341 971 c 0,14,15
 369 971 369 971 386.5 978 c 128,-1,16
 404 985 404 985 415.5 993 c 128,-1,17
 427 1001 427 1001 436 1008 c 128,-1,18
 445 1015 445 1015 457 1015 c 0,19,20
 472 1015 472 1015 480 1004 c 2,21,-1
 515 958 l 1,22,23
 474 909 474 909 422 892 c 128,-1,24
 370 875 370 875 318 875 c 0,25,26
 271 875 271 875 229.5 892.5 c 128,-1,27
 188 910 188 910 157.5 943 c 128,-1,28
 127 976 127 976 109 1024 c 128,-1,29
 91 1072 91 1072 91 1133 c 0,30,31
 91 1188 91 1188 107 1235.5 c 128,-1,32
 123 1283 123 1283 153.5 1317.5 c 128,-1,33
 184 1352 184 1352 230 1371.5 c 128,-1,34
 276 1391 276 1391 336 1391 c 0,35,36
 393 1391 393 1391 435 1373 c 128,-1,37
 477 1355 477 1355 511 1320 c 1,38,-1
 478 1274 l 2,0,1
EndSplineSet
Validated: 1
EndChar

StartChar: d.superior
Encoding: 2168 -1 147
Width: 741
GlyphClass: 2
Flags: MW
LayerCount: 2
Fore
SplineSet
510 883 m 2,0,1
 498 883 498 883 489.5 888 c 128,-1,2
 481 893 481 893 479 905 c 2,3,-1
 471 955 l 1,4,5
 440 920 440 920 400.5 897.5 c 128,-1,6
 361 875 361 875 307 875 c 0,7,8
 266 875 266 875 232.5 892 c 128,-1,9
 199 909 199 909 174.5 942 c 128,-1,10
 150 975 150 975 136.5 1022.5 c 128,-1,11
 123 1070 123 1070 123 1131 c 0,12,13
 123 1187 123 1187 138 1235 c 128,-1,14
 153 1283 153 1283 181.5 1318 c 128,-1,15
 210 1353 210 1353 249.5 1372.5 c 128,-1,16
 289 1392 289 1392 339 1392 c 0,17,18
 380 1392 380 1392 409 1379.5 c 128,-1,19
 438 1367 438 1367 461 1345 c 1,20,-1
 461 1607 l 1,21,-1
 586 1607 l 1,22,-1
 586 883 l 1,23,-1
 510 883 l 2,0,1
357 975 m 0,24,25
 389 975 389 975 414 988.5 c 128,-1,26
 439 1002 439 1002 461 1030 c 1,27,-1
 461 1254 l 1,28,29
 441 1277 441 1277 417.5 1286.5 c 128,-1,30
 394 1296 394 1296 367 1296 c 0,31,32
 314 1296 314 1296 282.5 1257 c 128,-1,33
 251 1218 251 1218 251 1131 c 0,34,35
 251 1045 251 1045 278.5 1010 c 128,-1,36
 306 975 306 975 357 975 c 0,24,25
EndSplineSet
Validated: 1
EndChar

StartChar: e.superior
Encoding: 2169 -1 148
Width: 696
GlyphClass: 2
Flags: MW
LayerCount: 2
Fore
SplineSet
360 1391 m 0,0,1
 408 1391 408 1391 448 1376 c 128,-1,2
 488 1361 488 1361 517 1331.5 c 128,-1,3
 546 1302 546 1302 562 1259.5 c 128,-1,4
 578 1217 578 1217 578 1163 c 0,5,6
 578 1134 578 1134 572 1124.5 c 128,-1,7
 566 1115 566 1115 549 1115 c 2,8,-1
 243 1115 l 1,9,10
 249 1040 249 1040 284.5 1006.5 c 128,-1,11
 320 973 320 973 377 973 c 0,12,13
 406 973 406 973 427 979.5 c 128,-1,14
 448 986 448 986 463.5 994 c 128,-1,15
 479 1002 479 1002 491.5 1008.5 c 128,-1,16
 504 1015 504 1015 515 1015 c 0,17,18
 529 1015 529 1015 538 1004 c 2,19,-1
 573 958 l 1,20,21
 532 910 532 910 475.5 892.5 c 128,-1,22
 419 875 419 875 366 875 c 0,23,24
 314 875 314 875 269 892.5 c 128,-1,25
 224 910 224 910 190.5 943.5 c 128,-1,26
 157 977 157 977 138 1027.5 c 128,-1,27
 119 1078 119 1078 119 1144 c 0,28,29
 119 1195 119 1195 135.5 1239.5 c 128,-1,30
 152 1284 152 1284 183.5 1318 c 128,-1,31
 215 1352 215 1352 259.5 1371.5 c 128,-1,32
 304 1391 304 1391 360 1391 c 0,0,1
363 1301 m 0,33,34
 312 1301 312 1301 282.5 1272 c 128,-1,35
 253 1243 253 1243 245 1191 c 1,36,-1
 466 1191 l 1,37,38
 466 1213 466 1213 459.5 1233 c 128,-1,39
 453 1253 453 1253 440.5 1268 c 128,-1,40
 428 1283 428 1283 408.5 1292 c 128,-1,41
 389 1301 389 1301 363 1301 c 0,33,34
EndSplineSet
Validated: 1
EndChar

StartChar: f.superior
Encoding: 2170 -1 149
Width: 449
GlyphClass: 2
Flags: MW
LayerCount: 2
Fore
SplineSet
138 883 m 1,0,-1
 138 1290 l 1,1,-1
 96 1297 l 2,2,3
 82 1299 82 1299 73 1306.5 c 128,-1,4
 64 1314 64 1314 64 1328 c 2,5,-1
 64 1379 l 1,6,-1
 138 1379 l 1,7,-1
 138 1415 l 2,8,9
 138 1501 138 1501 188 1550.5 c 128,-1,10
 238 1600 238 1600 326 1600 c 0,11,12
 344 1600 344 1600 359.5 1598 c 128,-1,13
 375 1596 375 1596 391 1591 c 1,14,-1
 388 1527 l 2,15,16
 387 1513 387 1513 376.5 1509 c 128,-1,17
 366 1505 366 1505 343 1505 c 0,18,19
 305 1505 305 1505 281.5 1485 c 128,-1,20
 258 1465 258 1465 258 1410 c 2,21,-1
 258 1379 l 1,22,-1
 386 1379 l 1,23,-1
 386 1290 l 1,24,-1
 262 1290 l 1,25,-1
 262 883 l 1,26,-1
 138 883 l 1,0,-1
EndSplineSet
Validated: 1
EndChar

StartChar: g.superior
Encoding: 2171 -1 150
Width: 700
GlyphClass: 2
Flags: MW
LayerCount: 2
Fore
SplineSet
342 1392 m 1,0,1
 438 1387 438 1387 472 1333 c 1,2,-1
 479 1360 l 2,3,4
 485 1383 485 1383 510 1383 c 2,5,-1
 561 1384 l 1,6,-1
 561 920 l 2,7,8
 561 835 561 835 500 774 c 0,9,10
 471 745 471 745 419.5 728 c 128,-1,11
 368 711 368 711 324 711 c 128,-1,12
 280 711 280 711 230 731.5 c 136,-1,13
 180 752 180 752 148 784 c 1,14,-1
 173 825 l 2,15,16
 184 843 184 843 205 843 c 2,17,-1
 206 843 l 2,18,19
 224 843 224 843 245 827 c 0,20,21
 272 806 272 806 314 802 c 0,22,23
 324 801 324 801 334 801 c 0,24,25
 363 802 363 802 380 808 c 0,26,27
 453 834 453 834 453 916 c 2,28,-1
 453 941 l 1,29,-1
 433 926 l 2,30,31
 380 886 380 886 322 886 c 0,32,33
 281 886 281 886 237 907 c 0,34,35
 163 942 163 942 137 1035 c 0,36,37
 123 1085 123 1085 123 1136 c 0,38,39
 123 1243 123 1243 181 1318 c 0,40,41
 238 1392 238 1392 337 1392 c 2,42,-1
 342 1392 l 1,0,1
367 1303 m 2,43,44
 257 1303 257 1303 257 1142.5 c 128,-1,45
 257 982 257 982 354 982 c 0,46,47
 414 982 414 982 456 1045 c 1,48,-1
 456 1255 l 1,49,50
 432 1303 432 1303 368 1303 c 2,51,-1
 367 1303 l 2,43,44
EndSplineSet
Validated: 1
Substitution2: "sous-table 'ss04' Style 4 lookups34" g.superior.salt
Substitution2: "sous-table 'salt' Alternatives stylistiques lookups28" g.superior.salt
EndChar

StartChar: h.superior
Encoding: 2172 -1 151
Width: 745
GlyphClass: 2
Flags: MW
LayerCount: 2
Fore
SplineSet
160 883 m 1,0,-1
 160 1607 l 1,1,-1
 285 1607 l 1,2,-1
 285 1331 l 1,3,4
 314 1358 314 1358 348 1374.5 c 128,-1,5
 382 1391 382 1391 430 1391 c 0,6,7
 471 1391 471 1391 502.5 1377 c 128,-1,8
 534 1363 534 1363 555.5 1337.5 c 128,-1,9
 577 1312 577 1312 588 1277.5 c 128,-1,10
 599 1243 599 1243 599 1201 c 2,11,-1
 599 883 l 1,12,-1
 475 883 l 1,13,-1
 475 1201 l 2,14,15
 475 1245 475 1245 454.5 1269 c 128,-1,16
 434 1293 434 1293 393 1293 c 0,17,18
 362 1293 362 1293 335 1279.5 c 128,-1,19
 308 1266 308 1266 285 1243 c 1,20,-1
 285 883 l 1,21,-1
 160 883 l 1,0,-1
EndSplineSet
Validated: 1
EndChar

StartChar: i.superior
Encoding: 2173 -1 152
Width: 355
GlyphClass: 2
Flags: MW
LayerCount: 2
Fore
SplineSet
240 1362 m 1,0,-1
 240 883 l 1,1,-1
 115 883 l 1,2,-1
 115 1362 l 1,3,-1
 240 1362 l 1,0,-1
259 1527 m 0,4,5
 259 1511 259 1511 252.5 1496.5 c 128,-1,6
 246 1482 246 1482 235 1471.5 c 128,-1,7
 224 1461 224 1461 209 1454.5 c 128,-1,8
 194 1448 194 1448 177 1448 c 0,9,10
 161 1448 161 1448 147 1454.5 c 128,-1,11
 133 1461 133 1461 122.5 1471.5 c 128,-1,12
 112 1482 112 1482 106 1496.5 c 128,-1,13
 100 1511 100 1511 100 1527 c 0,14,15
 100 1560 100 1560 122.5 1583 c 128,-1,16
 145 1606 145 1606 177 1606 c 0,17,18
 211 1606 211 1606 235 1583 c 128,-1,19
 259 1560 259 1560 259 1527 c 0,4,5
EndSplineSet
Validated: 1
EndChar

StartChar: j.superior
Encoding: 2174 -1 153
Width: 365
GlyphClass: 2
Flags: MW
LayerCount: 2
Fore
SplineSet
251 1362 m 1,0,-1
 251 869 l 2,1,2
 251 836 251 836 242.5 806.5 c 128,-1,3
 234 777 234 777 215 755 c 128,-1,4
 196 733 196 733 165 720.5 c 128,-1,5
 134 708 134 708 89 708 c 0,6,7
 72 708 72 708 57.5 710 c 128,-1,8
 43 712 43 712 27 717 c 1,9,-1
 32 784 l 2,10,11
 33 794 33 794 39 797.5 c 128,-1,12
 45 801 45 801 63 801 c 0,13,14
 100 801 100 801 113 815.5 c 128,-1,15
 126 830 126 830 126 869 c 2,16,-1
 126 1362 l 1,17,-1
 251 1362 l 1,0,-1
269 1527 m 0,18,19
 269 1495 269 1495 245.5 1471.5 c 128,-1,20
 222 1448 222 1448 189 1448 c 0,21,22
 173 1448 173 1448 159 1454.5 c 128,-1,23
 145 1461 145 1461 134.5 1471.5 c 128,-1,24
 124 1482 124 1482 117.5 1496.5 c 128,-1,25
 111 1511 111 1511 111 1527 c 0,26,27
 111 1560 111 1560 134 1583 c 128,-1,28
 157 1606 157 1606 189 1606 c 0,29,30
 222 1606 222 1606 245.5 1583 c 128,-1,31
 269 1560 269 1560 269 1527 c 0,18,19
EndSplineSet
Validated: 1
EndChar

StartChar: k.superior
Encoding: 2175 -1 154
Width: 663
GlyphClass: 2
Flags: MW
LayerCount: 2
Fore
SplineSet
251 1607 m 1,0,-1
 251 1194 l 1,1,-1
 273 1194 l 2,2,3
 285 1194 285 1194 292.5 1197 c 128,-1,4
 300 1200 300 1200 307 1209 c 2,5,-1
 426 1363 l 2,6,7
 441 1383 441 1383 471 1383 c 2,8,-1
 584 1383 l 1,9,-1
 435 1197 l 2,10,11
 417 1174 417 1174 393 1161 c 1,12,13
 414 1151 414 1151 431 1126 c 2,14,-1
 592 883 l 1,15,-1
 480 883 l 2,16,17
 466 883 466 883 455 887.5 c 128,-1,18
 444 892 444 892 436 903 c 2,19,-1
 315 1092 l 2,20,21
 308 1103 308 1103 300 1106.5 c 128,-1,22
 292 1110 292 1110 278 1110 c 2,23,-1
 251 1110 l 1,24,-1
 251 883 l 1,25,-1
 126 883 l 1,26,-1
 126 1607 l 1,27,-1
 251 1607 l 1,0,-1
EndSplineSet
Validated: 1
EndChar

StartChar: l.superior
Encoding: 2176 -1 155
Width: 350
GlyphClass: 2
Flags: MW
LayerCount: 2
Fore
SplineSet
237 1607 m 1,0,-1
 237 883 l 1,1,-1
 113 883 l 1,2,-1
 113 1607 l 1,3,-1
 237 1607 l 1,0,-1
EndSplineSet
Validated: 1
EndChar

StartChar: m.superior
Encoding: 2177 -1 156
Width: 1110
GlyphClass: 2
Flags: MW
LayerCount: 2
Fore
SplineSet
207 883 m 1,0,-1
 207 1383 l 1,1,-1
 283 1383 l 2,2,3
 309 1383 309 1383 311 1359 c 2,4,-1
 316 1317 l 1,5,6
 343 1349 343 1349 375.5 1370 c 128,-1,7
 408 1391 408 1391 456 1391 c 256,8,9
 504 1391 504 1391 534 1365.5 c 128,-1,10
 564 1340 564 1340 579 1298 c 1,11,12
 603 1347 603 1347 647.5 1369 c 128,-1,13
 692 1391 692 1391 739 1391 c 0,14,15
 823 1391 823 1391 867.5 1341.5 c 128,-1,16
 912 1292 912 1292 912 1201 c 2,17,-1
 912 883 l 1,18,-1
 788 883 l 1,19,-1
 788 1201 l 2,20,21
 788 1293 788 1293 707 1293 c 0,22,23
 672 1293 672 1293 647 1269.5 c 128,-1,24
 622 1246 622 1246 622 1201 c 2,25,-1
 622 883 l 1,26,-1
 498 883 l 1,27,-1
 498 1201 l 2,28,29
 498 1246 498 1246 479 1269.5 c 128,-1,30
 460 1293 460 1293 420 1293 c 0,31,32
 395 1293 395 1293 373 1281 c 128,-1,33
 351 1269 351 1269 332 1248 c 1,34,-1
 332 883 l 1,35,-1
 207 883 l 1,0,-1
EndSplineSet
Validated: 1
EndChar

StartChar: uni207F
Encoding: 1921 8319 157
Width: 742
GlyphClass: 2
Flags: MW
LayerCount: 2
Fore
SplineSet
160 886 m 1,0,-1
 160 1386 l 1,1,-1
 225 1386 l 2,2,3
 239 1386 239 1386 246.5 1380 c 128,-1,4
 254 1374 254 1374 257 1359 c 2,5,-1
 266 1315 l 1,6,7
 298 1350 298 1350 336.5 1372 c 128,-1,8
 375 1394 375 1394 429 1394 c 0,9,10
 470 1394 470 1394 501.5 1380 c 128,-1,11
 533 1366 533 1366 554 1340.5 c 128,-1,12
 575 1315 575 1315 586 1280.5 c 128,-1,13
 597 1246 597 1246 597 1204 c 2,14,-1
 597 886 l 1,15,-1
 473 886 l 1,16,-1
 473 1204 l 2,17,18
 473 1248 473 1248 453 1272 c 128,-1,19
 433 1296 433 1296 391 1296 c 0,20,21
 361 1296 361 1296 334 1282 c 128,-1,22
 307 1268 307 1268 284 1245 c 1,23,-1
 284 886 l 1,24,-1
 160 886 l 1,0,-1
EndSplineSet
Validated: 1
EndChar

StartChar: o.superior
Encoding: 2178 -1 158
Width: 742
GlyphClass: 2
Flags: MW
LayerCount: 2
Fore
SplineSet
372 1391 m 0,0,1
 428 1391 428 1391 473.5 1373 c 128,-1,2
 519 1355 519 1355 551.5 1321.5 c 128,-1,3
 584 1288 584 1288 602 1240.5 c 128,-1,4
 620 1193 620 1193 620 1133 c 0,5,6
 620 1074 620 1074 602 1026 c 128,-1,7
 584 978 584 978 551.5 944.5 c 128,-1,8
 519 911 519 911 473.5 893 c 128,-1,9
 428 875 428 875 372 875 c 0,10,11
 315 875 315 875 269 893 c 128,-1,12
 223 911 223 911 190.5 944.5 c 128,-1,13
 158 978 158 978 140 1026 c 128,-1,14
 122 1074 122 1074 122 1133 c 0,15,16
 122 1193 122 1193 140 1240.5 c 128,-1,17
 158 1288 158 1288 190.5 1321.5 c 128,-1,18
 223 1355 223 1355 269 1373 c 128,-1,19
 315 1391 315 1391 372 1391 c 0,0,1
372 972 m 0,20,21
 491 972 491 972 491 1133 c 0,22,23
 491 1212 491 1212 462 1253 c 128,-1,24
 433 1294 433 1294 372 1294 c 0,25,26
 309 1294 309 1294 279.5 1253 c 128,-1,27
 250 1212 250 1212 250 1133 c 0,28,29
 250 972 250 972 372 972 c 0,20,21
EndSplineSet
Validated: 1
EndChar

